G04 Layer: BottomSolderMaskLayer*
G04 EasyEDA v6.4.25, 2022-02-05T09:57:48+11:00*
G04 a67cddfb3fce44daa9051d46cbbcc19f,10*
G04 Gerber Generator version 0.2*
G04 Scale: 100 percent, Rotated: No, Reflected: No *
G04 Dimensions in millimeters *
G04 leading zeros omitted , absolute positions ,4 integer and 5 decimal *
%FSLAX45Y45*%
%MOMM*%

%ADD30C,1.6016*%
%ADD35C,1.6764*%
%ADD39C,1.9016*%
%ADD40C,1.7272*%

%LPD*%
D30*
X5379999Y421424D02*
G01*
X5379999Y321424D01*
X4219981Y421424D02*
G01*
X4219981Y321424D01*
X5379999Y3621417D02*
G01*
X5379999Y3521417D01*
X4219981Y3621417D02*
G01*
X4219981Y3521417D01*
G36*
X6016243Y706628D02*
G01*
X6016243Y874268D01*
X6183884Y874268D01*
X6183884Y706628D01*
G37*
D35*
G01*
X6100013Y1044422D03*
G01*
X6100013Y1298422D03*
G01*
X6100013Y1552422D03*
G36*
X6016243Y2206497D02*
G01*
X6016243Y2374137D01*
X6183884Y2374137D01*
X6183884Y2206497D01*
G37*
G01*
X6100013Y2544419D03*
G01*
X6100013Y2798419D03*
G01*
X6100013Y3052419D03*
D39*
G01*
X5099989Y371424D03*
G01*
X4799990Y371424D03*
G01*
X4499990Y371424D03*
G01*
X5099989Y3571417D03*
G01*
X4799990Y3571417D03*
G01*
X4499990Y3571417D03*
D40*
G01*
X1861997Y3622420D03*
G01*
X1861997Y3368420D03*
G01*
X1861997Y3114420D03*
G01*
X1861997Y2860420D03*
G01*
X1861997Y2606420D03*
G01*
X1861997Y2352420D03*
G01*
X1861997Y2098420D03*
G01*
X1861997Y1844420D03*
G01*
X1861997Y1590420D03*
G01*
X1861997Y1336420D03*
G01*
X1861997Y1082420D03*
G01*
X1861997Y828420D03*
G01*
X1861997Y574420D03*
G01*
X1861997Y320420D03*
G01*
X1607997Y3368420D03*
G01*
X1607997Y2860420D03*
G01*
X1607997Y2606420D03*
G01*
X1607997Y2352420D03*
G01*
X1607997Y320420D03*
G01*
X1353997Y320420D03*
G01*
X1099997Y320420D03*
G01*
X845997Y320420D03*
G01*
X591997Y320420D03*
G01*
X337997Y333120D03*
G01*
X337997Y574420D03*
G01*
X337997Y828420D03*
G01*
X337997Y1082420D03*
G01*
X337997Y1336420D03*
G01*
X337997Y1590420D03*
G01*
X337997Y1844420D03*
G01*
X337997Y2098420D03*
G01*
X337997Y2352420D03*
G01*
X337997Y2606420D03*
G01*
X337997Y2860420D03*
G01*
X337997Y3114420D03*
G01*
X337997Y3368420D03*
G01*
X337997Y3622420D03*
M02*
