G04 Layer: TopSolderMaskLayer*
G04 EasyEDA v6.4.25, 2022-02-01T03:32:05+11:00*
G04 a67cddfb3fce44daa9051d46cbbcc19f,10*
G04 Gerber Generator version 0.2*
G04 Scale: 100 percent, Rotated: No, Reflected: No *
G04 Dimensions in millimeters *
G04 leading zeros omitted , absolute positions ,4 integer and 5 decimal *
%FSLAX45Y45*%
%MOMM*%

%ADD30C,1.6016*%
%ADD35C,1.6764*%
%ADD39C,1.9016*%
%ADD40C,1.7272*%

%LPD*%
D30*
X5379999Y421424D02*
G01*
X5379999Y321424D01*
X4219981Y421424D02*
G01*
X4219981Y321424D01*
X5379999Y3621417D02*
G01*
X5379999Y3521417D01*
X4219981Y3621417D02*
G01*
X4219981Y3521417D01*
G36*
X3612388Y211073D02*
G01*
X3612388Y331470D01*
X3787647Y331470D01*
X3787647Y211073D01*
G37*
G36*
X3612388Y411226D02*
G01*
X3612388Y531621D01*
X3787647Y531621D01*
X3787647Y411226D01*
G37*
G36*
X3312413Y211073D02*
G01*
X3312413Y331470D01*
X3487674Y331470D01*
X3487674Y211073D01*
G37*
G36*
X3312413Y411226D02*
G01*
X3312413Y531621D01*
X3487674Y531621D01*
X3487674Y411226D01*
G37*
G36*
X3312413Y3611371D02*
G01*
X3312413Y3731768D01*
X3487674Y3731768D01*
X3487674Y3611371D01*
G37*
G36*
X3312413Y3411220D02*
G01*
X3312413Y3531615D01*
X3487674Y3531615D01*
X3487674Y3411220D01*
G37*
G36*
X3612388Y3611371D02*
G01*
X3612388Y3731768D01*
X3787647Y3731768D01*
X3787647Y3611371D01*
G37*
G36*
X3612388Y3411220D02*
G01*
X3612388Y3531615D01*
X3787647Y3531615D01*
X3787647Y3411220D01*
G37*
G36*
X6654800Y1406397D02*
G01*
X6654800Y1486662D01*
X6830059Y1486662D01*
X6830059Y1406397D01*
G37*
G36*
X6654800Y1306321D02*
G01*
X6654800Y1386586D01*
X6830059Y1386586D01*
X6830059Y1306321D01*
G37*
G36*
X6654800Y1206245D02*
G01*
X6654800Y1286510D01*
X6830059Y1286510D01*
X6830059Y1206245D01*
G37*
G36*
X7029958Y946150D02*
G01*
X7029958Y1086612D01*
X7230109Y1086612D01*
X7230109Y946150D01*
G37*
G36*
X7029958Y1506220D02*
G01*
X7029958Y1646681D01*
X7230109Y1646681D01*
X7230109Y1506220D01*
G37*
G36*
X6654800Y1106170D02*
G01*
X6654800Y1186687D01*
X6830059Y1186687D01*
X6830059Y1106170D01*
G37*
G36*
X6654800Y2656331D02*
G01*
X6654800Y2736595D01*
X6830059Y2736595D01*
X6830059Y2656331D01*
G37*
G36*
X6654800Y2556255D02*
G01*
X6654800Y2636520D01*
X6830059Y2636520D01*
X6830059Y2556255D01*
G37*
G36*
X6654800Y2456179D02*
G01*
X6654800Y2536697D01*
X6830059Y2536697D01*
X6830059Y2456179D01*
G37*
G36*
X7029958Y2196337D02*
G01*
X7029958Y2336545D01*
X7230109Y2336545D01*
X7230109Y2196337D01*
G37*
G36*
X7029958Y2756154D02*
G01*
X7029958Y2896615D01*
X7230109Y2896615D01*
X7230109Y2756154D01*
G37*
G36*
X6654800Y2356357D02*
G01*
X6654800Y2436621D01*
X6830059Y2436621D01*
X6830059Y2356357D01*
G37*
G36*
X6016243Y706628D02*
G01*
X6016243Y874268D01*
X6183884Y874268D01*
X6183884Y706628D01*
G37*
D35*
G01*
X6100013Y1044422D03*
G01*
X6100013Y1298422D03*
G01*
X6100013Y1552422D03*
G36*
X6016243Y2206497D02*
G01*
X6016243Y2374137D01*
X6183884Y2374137D01*
X6183884Y2206497D01*
G37*
G01*
X6100013Y2544419D03*
G01*
X6100013Y2798419D03*
G01*
X6100013Y3052419D03*
G36*
X2724911Y406400D02*
G01*
X2724911Y546607D01*
X2875025Y546607D01*
X2875025Y406400D01*
G37*
G36*
X2724911Y196342D02*
G01*
X2724911Y336550D01*
X2875025Y336550D01*
X2875025Y196342D01*
G37*
G36*
X2724911Y3396234D02*
G01*
X2724911Y3536442D01*
X2875025Y3536442D01*
X2875025Y3396234D01*
G37*
G36*
X2724911Y3606292D02*
G01*
X2724911Y3746500D01*
X2875025Y3746500D01*
X2875025Y3606292D01*
G37*
G36*
X2685795Y3043936D02*
G01*
X2685795Y3158997D01*
X2942590Y3158997D01*
X2942590Y3043936D01*
G37*
G36*
X2685795Y2813812D02*
G01*
X2685795Y2929128D01*
X2942590Y2929128D01*
X2942590Y2813812D01*
G37*
G36*
X2685795Y2583942D02*
G01*
X2685795Y2699004D01*
X2942590Y2699004D01*
X2942590Y2583942D01*
G37*
G36*
X3257295Y2689352D02*
G01*
X3257295Y3053587D01*
X3514090Y3053587D01*
X3514090Y2689352D01*
G37*
G36*
X4085843Y2743962D02*
G01*
X4085843Y2859023D01*
X4342638Y2859023D01*
X4342638Y2743962D01*
G37*
G36*
X4085843Y2513837D02*
G01*
X4085843Y2628900D01*
X4342638Y2628900D01*
X4342638Y2513837D01*
G37*
G36*
X4085843Y2283968D02*
G01*
X4085843Y2399029D01*
X4342638Y2399029D01*
X4342638Y2283968D01*
G37*
G36*
X4657343Y2389378D02*
G01*
X4657343Y2753613D01*
X4914138Y2753613D01*
X4914138Y2389378D01*
G37*
G36*
X3012440Y211328D02*
G01*
X3012440Y331470D01*
X3187700Y331470D01*
X3187700Y211328D01*
G37*
G36*
X3012440Y411226D02*
G01*
X3012440Y531621D01*
X3187700Y531621D01*
X3187700Y411226D01*
G37*
G36*
X3012440Y3611371D02*
G01*
X3012440Y3731513D01*
X3187700Y3731513D01*
X3187700Y3611371D01*
G37*
G36*
X3012440Y3411220D02*
G01*
X3012440Y3531615D01*
X3187700Y3531615D01*
X3187700Y3411220D01*
G37*
D39*
G01*
X5099989Y371424D03*
G01*
X4799990Y371424D03*
G01*
X4499990Y371424D03*
G01*
X5099989Y3571417D03*
G01*
X4799990Y3571417D03*
G01*
X4499990Y3571417D03*
D40*
G01*
X1861997Y3622420D03*
G01*
X1861997Y3368420D03*
G01*
X1861997Y3114420D03*
G01*
X1861997Y2860420D03*
G01*
X1861997Y2606420D03*
G01*
X1861997Y2352420D03*
G01*
X1861997Y2098420D03*
G01*
X1861997Y1844420D03*
G01*
X1861997Y1590420D03*
G01*
X1861997Y1336420D03*
G01*
X1861997Y1082420D03*
G01*
X1861997Y828420D03*
G01*
X1861997Y574420D03*
G01*
X1861997Y320420D03*
G01*
X1607997Y3368420D03*
G01*
X1607997Y2860420D03*
G01*
X1607997Y2606420D03*
G01*
X1607997Y2352420D03*
G01*
X1607997Y320420D03*
G01*
X1353997Y320420D03*
G01*
X1099997Y320420D03*
G01*
X845997Y320420D03*
G01*
X591997Y320420D03*
G01*
X337997Y333120D03*
G01*
X337997Y574420D03*
G01*
X337997Y828420D03*
G01*
X337997Y1082420D03*
G01*
X337997Y1336420D03*
G01*
X337997Y1590420D03*
G01*
X337997Y1844420D03*
G01*
X337997Y2098420D03*
G01*
X337997Y2352420D03*
G01*
X337997Y2606420D03*
G01*
X337997Y2860420D03*
G01*
X337997Y3114420D03*
G01*
X337997Y3368420D03*
G01*
X337997Y3622420D03*
M02*
