G04 Layer: TopSilkLayer*
G04 EasyEDA v6.4.25, 2022-02-05T09:57:48+11:00*
G04 a67cddfb3fce44daa9051d46cbbcc19f,10*
G04 Gerber Generator version 0.2*
G04 Scale: 100 percent, Rotated: No, Reflected: No *
G04 Dimensions in millimeters *
G04 leading zeros omitted , absolute positions ,4 integer and 5 decimal *
%FSLAX45Y45*%
%MOMM*%

%ADD10C,0.2540*%
%ADD11C,1.0000*%
%ADD25C,0.1000*%
%ADD26C,0.2032*%
%ADD27C,0.2030*%
%ADD28C,0.2000*%
%ADD29C,0.1524*%

%LPD*%
D26*
X6285755Y3880048D02*
G01*
X6193553Y3880048D01*
X6184155Y3796990D01*
X6193553Y3806134D01*
X6221239Y3815278D01*
X6248925Y3815278D01*
X6276611Y3806134D01*
X6295153Y3787592D01*
X6304297Y3759906D01*
X6304297Y3741618D01*
X6295153Y3713678D01*
X6276611Y3695390D01*
X6248925Y3685992D01*
X6221239Y3685992D01*
X6193553Y3695390D01*
X6184155Y3704534D01*
X6175011Y3723076D01*
X6365257Y3880048D02*
G01*
X6439171Y3685992D01*
X6513085Y3880048D02*
G01*
X6439171Y3685992D01*
X6716285Y3880048D02*
G01*
X6716285Y3685992D01*
X6786389Y3833820D02*
G01*
X6786389Y3843218D01*
X6795787Y3861506D01*
X6804931Y3870904D01*
X6823473Y3880048D01*
X6860303Y3880048D01*
X6878845Y3870904D01*
X6887989Y3861506D01*
X6897387Y3843218D01*
X6897387Y3824676D01*
X6887989Y3806134D01*
X6869447Y3778448D01*
X6777245Y3685992D01*
X6906531Y3685992D01*
X7105921Y3833820D02*
G01*
X7096777Y3852362D01*
X7078235Y3870904D01*
X7059947Y3880048D01*
X7022863Y3880048D01*
X7004321Y3870904D01*
X6986033Y3852362D01*
X6976635Y3833820D01*
X6967491Y3806134D01*
X6967491Y3759906D01*
X6976635Y3732220D01*
X6986033Y3713678D01*
X7004321Y3695390D01*
X7022863Y3685992D01*
X7059947Y3685992D01*
X7078235Y3695390D01*
X7096777Y3713678D01*
X7105921Y3732220D01*
X5918555Y305000D02*
G01*
X6020155Y305000D01*
X5964529Y231086D01*
X5992469Y231086D01*
X6010757Y221942D01*
X6020155Y212798D01*
X6029299Y184858D01*
X6029299Y166570D01*
X6020155Y138884D01*
X6001613Y120342D01*
X5973927Y111198D01*
X5946241Y111198D01*
X5918555Y120342D01*
X5909157Y129486D01*
X5900013Y148028D01*
X6099403Y157172D02*
G01*
X6090259Y148028D01*
X6099403Y138884D01*
X6108801Y148028D01*
X6099403Y157172D01*
X6188049Y305000D02*
G01*
X6289649Y305000D01*
X6234277Y231086D01*
X6261963Y231086D01*
X6280505Y221942D01*
X6289649Y212798D01*
X6299047Y184858D01*
X6299047Y166570D01*
X6289649Y138884D01*
X6271361Y120342D01*
X6243675Y111198D01*
X6215989Y111198D01*
X6188049Y120342D01*
X6178905Y129486D01*
X6169761Y148028D01*
X6360007Y305000D02*
G01*
X6433921Y111198D01*
X6507835Y305000D02*
G01*
X6433921Y111198D01*
X6711035Y305000D02*
G01*
X6711035Y111198D01*
X6781139Y258772D02*
G01*
X6781139Y268170D01*
X6790283Y286458D01*
X6799681Y295856D01*
X6817969Y305000D01*
X6855053Y305000D01*
X6873595Y295856D01*
X6882739Y286458D01*
X6891883Y268170D01*
X6891883Y249628D01*
X6882739Y231086D01*
X6864197Y203400D01*
X6771995Y111198D01*
X6901281Y111198D01*
X7100671Y258772D02*
G01*
X7091527Y277314D01*
X7072985Y295856D01*
X7054443Y305000D01*
X7017613Y305000D01*
X6999071Y295856D01*
X6980529Y277314D01*
X6971385Y258772D01*
X6962241Y231086D01*
X6962241Y184858D01*
X6971385Y157172D01*
X6980529Y138884D01*
X6999071Y120342D01*
X7017613Y111198D01*
X7054443Y111198D01*
X7072985Y120342D01*
X7091527Y138884D01*
X7100671Y157172D01*
X5564446Y3107181D02*
G01*
X5548190Y3123437D01*
X5523552Y3131565D01*
X5490786Y3131565D01*
X5466402Y3123437D01*
X5449892Y3107181D01*
X5449892Y3090671D01*
X5458274Y3074415D01*
X5466402Y3066287D01*
X5482658Y3057905D01*
X5531934Y3041650D01*
X5548190Y3033521D01*
X5556318Y3025394D01*
X5564446Y3008884D01*
X5564446Y2984245D01*
X5548190Y2967989D01*
X5523552Y2959862D01*
X5490786Y2959862D01*
X5466402Y2967989D01*
X5449892Y2984245D01*
X5741230Y3090671D02*
G01*
X5733102Y3107181D01*
X5716846Y3123437D01*
X5700336Y3131565D01*
X5667570Y3131565D01*
X5651314Y3123437D01*
X5634804Y3107181D01*
X5626676Y3090671D01*
X5618548Y3066287D01*
X5618548Y3025394D01*
X5626676Y3000755D01*
X5634804Y2984245D01*
X5651314Y2967989D01*
X5667570Y2959862D01*
X5700336Y2959862D01*
X5716846Y2967989D01*
X5733102Y2984245D01*
X5741230Y3000755D01*
X5795332Y3131565D02*
G01*
X5795332Y2959862D01*
X5795332Y2959862D02*
G01*
X5893376Y2959862D01*
X5564446Y2832100D02*
G01*
X5548190Y2848355D01*
X5523552Y2856737D01*
X5490786Y2856737D01*
X5466402Y2848355D01*
X5449892Y2832100D01*
X5449892Y2815844D01*
X5458274Y2799334D01*
X5466402Y2791205D01*
X5482658Y2783078D01*
X5531934Y2766568D01*
X5548190Y2758439D01*
X5556318Y2750312D01*
X5564446Y2733802D01*
X5564446Y2709418D01*
X5548190Y2692907D01*
X5523552Y2684779D01*
X5490786Y2684779D01*
X5466402Y2692907D01*
X5449892Y2709418D01*
X5618548Y2856737D02*
G01*
X5618548Y2684779D01*
X5618548Y2856737D02*
G01*
X5675698Y2856737D01*
X5700336Y2848355D01*
X5716846Y2832100D01*
X5724974Y2815844D01*
X5733102Y2791205D01*
X5733102Y2750312D01*
X5724974Y2725673D01*
X5716846Y2709418D01*
X5700336Y2692907D01*
X5675698Y2684779D01*
X5618548Y2684779D01*
X5852482Y2856737D02*
G01*
X5787204Y2684779D01*
X5852482Y2856737D02*
G01*
X5918014Y2684779D01*
X5811588Y2742184D02*
G01*
X5893376Y2742184D01*
X5523552Y2582163D02*
G01*
X5523552Y2434844D01*
X5449892Y2508504D02*
G01*
X5597212Y2508504D01*
X5749358Y2606547D02*
G01*
X5667570Y2606547D01*
X5659442Y2532887D01*
X5667570Y2541270D01*
X5692208Y2549397D01*
X5716846Y2549397D01*
X5741230Y2541270D01*
X5757740Y2524760D01*
X5765868Y2500376D01*
X5765868Y2483865D01*
X5757740Y2459481D01*
X5741230Y2442971D01*
X5716846Y2434844D01*
X5692208Y2434844D01*
X5667570Y2442971D01*
X5659442Y2451100D01*
X5651314Y2467610D01*
X5819716Y2606547D02*
G01*
X5885248Y2434844D01*
X5950780Y2606547D02*
G01*
X5885248Y2434844D01*
X5572828Y2290826D02*
G01*
X5564446Y2307081D01*
X5548190Y2323337D01*
X5531934Y2331720D01*
X5499168Y2331720D01*
X5482658Y2323337D01*
X5466402Y2307081D01*
X5458274Y2290826D01*
X5449892Y2266187D01*
X5449892Y2225294D01*
X5458274Y2200655D01*
X5466402Y2184400D01*
X5482658Y2167889D01*
X5499168Y2159762D01*
X5531934Y2159762D01*
X5548190Y2167889D01*
X5564446Y2184400D01*
X5572828Y2200655D01*
X5572828Y2225294D01*
X5531934Y2225294D02*
G01*
X5572828Y2225294D01*
X5626676Y2331720D02*
G01*
X5626676Y2159762D01*
X5626676Y2331720D02*
G01*
X5741230Y2159762D01*
X5741230Y2331720D02*
G01*
X5741230Y2159762D01*
X5795332Y2331720D02*
G01*
X5795332Y2159762D01*
X5795332Y2331720D02*
G01*
X5852482Y2331720D01*
X5877120Y2323337D01*
X5893376Y2307081D01*
X5901758Y2290826D01*
X5909886Y2266187D01*
X5909886Y2225294D01*
X5901758Y2200655D01*
X5893376Y2184400D01*
X5877120Y2167889D01*
X5852482Y2159762D01*
X5795332Y2159762D01*
X5572828Y815847D02*
G01*
X5564446Y832104D01*
X5548190Y848360D01*
X5531934Y856742D01*
X5499168Y856742D01*
X5482658Y848360D01*
X5466402Y832104D01*
X5458274Y815847D01*
X5449892Y791210D01*
X5449892Y750315D01*
X5458274Y725678D01*
X5466402Y709421D01*
X5482658Y692912D01*
X5499168Y684784D01*
X5531934Y684784D01*
X5548190Y692912D01*
X5564446Y709421D01*
X5572828Y725678D01*
X5572828Y750315D01*
X5531934Y750315D02*
G01*
X5572828Y750315D01*
X5626676Y856742D02*
G01*
X5626676Y684784D01*
X5626676Y856742D02*
G01*
X5741230Y684784D01*
X5741230Y856742D02*
G01*
X5741230Y684784D01*
X5795332Y856742D02*
G01*
X5795332Y684784D01*
X5795332Y856742D02*
G01*
X5852482Y856742D01*
X5877120Y848360D01*
X5893376Y832104D01*
X5901758Y815847D01*
X5909886Y791210D01*
X5909886Y750315D01*
X5901758Y725678D01*
X5893376Y709421D01*
X5877120Y692912D01*
X5852482Y684784D01*
X5795332Y684784D01*
X5416364Y1131570D02*
G01*
X5506280Y1131570D01*
X5457258Y1066292D01*
X5481896Y1066292D01*
X5498152Y1057910D01*
X5506280Y1049781D01*
X5514662Y1025397D01*
X5514662Y1008887D01*
X5506280Y984250D01*
X5490024Y967994D01*
X5465386Y959865D01*
X5441002Y959865D01*
X5416364Y967994D01*
X5408236Y976121D01*
X5400108Y992631D01*
X5576638Y1000760D02*
G01*
X5568510Y992631D01*
X5576638Y984250D01*
X5585020Y992631D01*
X5576638Y1000760D01*
X5655378Y1131570D02*
G01*
X5745294Y1131570D01*
X5696272Y1066292D01*
X5720656Y1066292D01*
X5737166Y1057910D01*
X5745294Y1049781D01*
X5753422Y1025397D01*
X5753422Y1008887D01*
X5745294Y984250D01*
X5728784Y967994D01*
X5704400Y959865D01*
X5679762Y959865D01*
X5655378Y967994D01*
X5646996Y976121D01*
X5638868Y992631D01*
X5807524Y1131570D02*
G01*
X5872802Y959865D01*
X5938334Y1131570D02*
G01*
X5872802Y959865D01*
X5564446Y1357121D02*
G01*
X5548190Y1373378D01*
X5523552Y1381760D01*
X5490786Y1381760D01*
X5466402Y1373378D01*
X5449892Y1357121D01*
X5449892Y1340612D01*
X5458274Y1324355D01*
X5466402Y1316228D01*
X5482658Y1308100D01*
X5531934Y1291589D01*
X5548190Y1283462D01*
X5556318Y1275334D01*
X5564446Y1258823D01*
X5564446Y1234439D01*
X5548190Y1217929D01*
X5523552Y1209802D01*
X5490786Y1209802D01*
X5466402Y1217929D01*
X5449892Y1234439D01*
X5618548Y1381760D02*
G01*
X5618548Y1209802D01*
X5618548Y1381760D02*
G01*
X5675698Y1381760D01*
X5700336Y1373378D01*
X5716846Y1357121D01*
X5724974Y1340612D01*
X5733102Y1316228D01*
X5733102Y1275334D01*
X5724974Y1250695D01*
X5716846Y1234439D01*
X5700336Y1217929D01*
X5675698Y1209802D01*
X5618548Y1209802D01*
X5852482Y1381760D02*
G01*
X5787204Y1209802D01*
X5852482Y1381760D02*
G01*
X5918014Y1209802D01*
X5811588Y1267205D02*
G01*
X5893376Y1267205D01*
X5564446Y1632204D02*
G01*
X5548190Y1648460D01*
X5523552Y1656587D01*
X5490786Y1656587D01*
X5466402Y1648460D01*
X5449892Y1632204D01*
X5449892Y1615694D01*
X5458274Y1599437D01*
X5466402Y1591055D01*
X5482658Y1582928D01*
X5531934Y1566671D01*
X5548190Y1558544D01*
X5556318Y1550162D01*
X5564446Y1533905D01*
X5564446Y1509268D01*
X5548190Y1493012D01*
X5523552Y1484884D01*
X5490786Y1484884D01*
X5466402Y1493012D01*
X5449892Y1509268D01*
X5741230Y1615694D02*
G01*
X5733102Y1632204D01*
X5716846Y1648460D01*
X5700336Y1656587D01*
X5667570Y1656587D01*
X5651314Y1648460D01*
X5634804Y1632204D01*
X5626676Y1615694D01*
X5618548Y1591055D01*
X5618548Y1550162D01*
X5626676Y1525778D01*
X5634804Y1509268D01*
X5651314Y1493012D01*
X5667570Y1484884D01*
X5700336Y1484884D01*
X5716846Y1493012D01*
X5733102Y1509268D01*
X5741230Y1525778D01*
X5795332Y1656587D02*
G01*
X5795332Y1484884D01*
X5795332Y1484884D02*
G01*
X5893376Y1484884D01*
X2499944Y1900859D02*
G01*
X2499944Y1832787D01*
X2504516Y1819071D01*
X2513660Y1809927D01*
X2527376Y1805355D01*
X2536266Y1805355D01*
X2549982Y1809927D01*
X2559126Y1819071D01*
X2563698Y1832787D01*
X2563698Y1900859D01*
X2643708Y1855393D02*
G01*
X2639136Y1864537D01*
X2625420Y1869109D01*
X2611704Y1869109D01*
X2598242Y1864537D01*
X2593670Y1855393D01*
X2598242Y1846249D01*
X2607386Y1841931D01*
X2629992Y1837359D01*
X2639136Y1832787D01*
X2643708Y1823643D01*
X2643708Y1819071D01*
X2639136Y1809927D01*
X2625420Y1805355D01*
X2611704Y1805355D01*
X2598242Y1809927D01*
X2593670Y1819071D01*
X2673680Y1841931D02*
G01*
X2728290Y1841931D01*
X2728290Y1850821D01*
X2723718Y1859965D01*
X2719146Y1864537D01*
X2710002Y1869109D01*
X2696286Y1869109D01*
X2687396Y1864537D01*
X2678252Y1855393D01*
X2673680Y1841931D01*
X2673680Y1832787D01*
X2678252Y1819071D01*
X2687396Y1809927D01*
X2696286Y1805355D01*
X2710002Y1805355D01*
X2719146Y1809927D01*
X2728290Y1819071D01*
X2878150Y1855393D02*
G01*
X2873578Y1864537D01*
X2860116Y1869109D01*
X2846400Y1869109D01*
X2832684Y1864537D01*
X2828112Y1855393D01*
X2832684Y1846249D01*
X2841828Y1841931D01*
X2864434Y1837359D01*
X2873578Y1832787D01*
X2878150Y1823643D01*
X2878150Y1819071D01*
X2873578Y1809927D01*
X2860116Y1805355D01*
X2846400Y1805355D01*
X2832684Y1809927D01*
X2828112Y1819071D01*
X2908122Y1869109D02*
G01*
X2926410Y1805355D01*
X2944444Y1869109D02*
G01*
X2926410Y1805355D01*
X2944444Y1869109D02*
G01*
X2962732Y1805355D01*
X2981020Y1869109D02*
G01*
X2962732Y1805355D01*
X3010992Y1900859D02*
G01*
X3015564Y1896287D01*
X3019882Y1900859D01*
X3015564Y1905431D01*
X3010992Y1900859D01*
X3015564Y1869109D02*
G01*
X3015564Y1805355D01*
X3063570Y1900859D02*
G01*
X3063570Y1823643D01*
X3068142Y1809927D01*
X3077286Y1805355D01*
X3086430Y1805355D01*
X3050108Y1869109D02*
G01*
X3081858Y1869109D01*
X3171012Y1855393D02*
G01*
X3161868Y1864537D01*
X3152724Y1869109D01*
X3139008Y1869109D01*
X3130118Y1864537D01*
X3120974Y1855393D01*
X3116402Y1841931D01*
X3116402Y1832787D01*
X3120974Y1819071D01*
X3130118Y1809927D01*
X3139008Y1805355D01*
X3152724Y1805355D01*
X3161868Y1809927D01*
X3171012Y1819071D01*
X3200984Y1900859D02*
G01*
X3200984Y1805355D01*
X3200984Y1850821D02*
G01*
X3214446Y1864537D01*
X3223590Y1869109D01*
X3237306Y1869109D01*
X3246450Y1864537D01*
X3251022Y1850821D01*
X3251022Y1805355D01*
X3280994Y1841931D02*
G01*
X3335350Y1841931D01*
X3335350Y1850821D01*
X3331032Y1859965D01*
X3326460Y1864537D01*
X3317316Y1869109D01*
X3303600Y1869109D01*
X3294456Y1864537D01*
X3285566Y1855393D01*
X3280994Y1841931D01*
X3280994Y1832787D01*
X3285566Y1819071D01*
X3294456Y1809927D01*
X3303600Y1805355D01*
X3317316Y1805355D01*
X3326460Y1809927D01*
X3335350Y1819071D01*
X3415360Y1855393D02*
G01*
X3410788Y1864537D01*
X3397326Y1869109D01*
X3383610Y1869109D01*
X3369894Y1864537D01*
X3365576Y1855393D01*
X3369894Y1846249D01*
X3379038Y1841931D01*
X3401898Y1837359D01*
X3410788Y1832787D01*
X3415360Y1823643D01*
X3415360Y1819071D01*
X3410788Y1809927D01*
X3397326Y1805355D01*
X3383610Y1805355D01*
X3369894Y1809927D01*
X3365576Y1819071D01*
X3529152Y1900859D02*
G01*
X3529152Y1823643D01*
X3533724Y1809927D01*
X3542614Y1805355D01*
X3551758Y1805355D01*
X3515436Y1869109D02*
G01*
X3547186Y1869109D01*
X3604590Y1869109D02*
G01*
X3595446Y1864537D01*
X3586302Y1855393D01*
X3581730Y1841931D01*
X3581730Y1832787D01*
X3586302Y1819071D01*
X3595446Y1809927D01*
X3604590Y1805355D01*
X3618306Y1805355D01*
X3627196Y1809927D01*
X3636340Y1819071D01*
X3640912Y1832787D01*
X3640912Y1841931D01*
X3636340Y1855393D01*
X3627196Y1864537D01*
X3618306Y1869109D01*
X3604590Y1869109D01*
X3740988Y1841931D02*
G01*
X3795344Y1841931D01*
X3795344Y1850821D01*
X3791026Y1859965D01*
X3786454Y1864537D01*
X3777310Y1869109D01*
X3763594Y1869109D01*
X3754450Y1864537D01*
X3745560Y1855393D01*
X3740988Y1841931D01*
X3740988Y1832787D01*
X3745560Y1819071D01*
X3754450Y1809927D01*
X3763594Y1805355D01*
X3777310Y1805355D01*
X3786454Y1809927D01*
X3795344Y1819071D01*
X3825570Y1869109D02*
G01*
X3825570Y1805355D01*
X3825570Y1850821D02*
G01*
X3839032Y1864537D01*
X3848176Y1869109D01*
X3861892Y1869109D01*
X3870782Y1864537D01*
X3875354Y1850821D01*
X3875354Y1805355D01*
X3959936Y1869109D02*
G01*
X3959936Y1805355D01*
X3959936Y1855393D02*
G01*
X3950792Y1864537D01*
X3941902Y1869109D01*
X3928186Y1869109D01*
X3919042Y1864537D01*
X3909898Y1855393D01*
X3905580Y1841931D01*
X3905580Y1832787D01*
X3909898Y1819071D01*
X3919042Y1809927D01*
X3928186Y1805355D01*
X3941902Y1805355D01*
X3950792Y1809927D01*
X3959936Y1819071D01*
X3989908Y1900859D02*
G01*
X3989908Y1805355D01*
X3989908Y1855393D02*
G01*
X3999052Y1864537D01*
X4008196Y1869109D01*
X4021912Y1869109D01*
X4030802Y1864537D01*
X4039946Y1855393D01*
X4044518Y1841931D01*
X4044518Y1832787D01*
X4039946Y1819071D01*
X4030802Y1809927D01*
X4021912Y1805355D01*
X4008196Y1805355D01*
X3999052Y1809927D01*
X3989908Y1819071D01*
X4074490Y1900859D02*
G01*
X4074490Y1805355D01*
X4104462Y1841931D02*
G01*
X4159072Y1841931D01*
X4159072Y1850821D01*
X4154500Y1859965D01*
X4149928Y1864537D01*
X4140784Y1869109D01*
X4127322Y1869109D01*
X4118178Y1864537D01*
X4109034Y1855393D01*
X4104462Y1841931D01*
X4104462Y1832787D01*
X4109034Y1819071D01*
X4118178Y1809927D01*
X4127322Y1805355D01*
X4140784Y1805355D01*
X4149928Y1809927D01*
X4159072Y1819071D01*
X4259148Y1869109D02*
G01*
X4259148Y1773605D01*
X4259148Y1855393D02*
G01*
X4268292Y1864537D01*
X4277182Y1869109D01*
X4290898Y1869109D01*
X4300042Y1864537D01*
X4309186Y1855393D01*
X4313758Y1841931D01*
X4313758Y1832787D01*
X4309186Y1819071D01*
X4300042Y1809927D01*
X4290898Y1805355D01*
X4277182Y1805355D01*
X4268292Y1809927D01*
X4259148Y1819071D01*
X4343730Y1869109D02*
G01*
X4343730Y1823643D01*
X4348302Y1809927D01*
X4357192Y1805355D01*
X4370908Y1805355D01*
X4380052Y1809927D01*
X4393514Y1823643D01*
X4393514Y1869109D02*
G01*
X4393514Y1805355D01*
X4423740Y1900859D02*
G01*
X4423740Y1805355D01*
X4453712Y1900859D02*
G01*
X4453712Y1805355D01*
X4553534Y1869109D02*
G01*
X4553534Y1823643D01*
X4558106Y1809927D01*
X4567250Y1805355D01*
X4580966Y1805355D01*
X4590110Y1809927D01*
X4603572Y1823643D01*
X4603572Y1869109D02*
G01*
X4603572Y1805355D01*
X4633544Y1869109D02*
G01*
X4633544Y1773605D01*
X4633544Y1855393D02*
G01*
X4642688Y1864537D01*
X4651832Y1869109D01*
X4665548Y1869109D01*
X4674438Y1864537D01*
X4683582Y1855393D01*
X4688154Y1841931D01*
X4688154Y1832787D01*
X4683582Y1819071D01*
X4674438Y1809927D01*
X4665548Y1805355D01*
X4651832Y1805355D01*
X4642688Y1809927D01*
X4633544Y1819071D01*
X4768164Y1855393D02*
G01*
X4763592Y1864537D01*
X4749876Y1869109D01*
X4736414Y1869109D01*
X4722698Y1864537D01*
X4718126Y1855393D01*
X4722698Y1846249D01*
X4731842Y1841931D01*
X4754448Y1837359D01*
X4763592Y1832787D01*
X4768164Y1823643D01*
X4768164Y1819071D01*
X4763592Y1809927D01*
X4749876Y1805355D01*
X4736414Y1805355D01*
X4722698Y1809927D01*
X4718126Y1819071D01*
X2499944Y2200861D02*
G01*
X2499944Y2132789D01*
X2504516Y2119073D01*
X2513660Y2109929D01*
X2527376Y2105357D01*
X2536266Y2105357D01*
X2549982Y2109929D01*
X2559126Y2119073D01*
X2563698Y2132789D01*
X2563698Y2200861D01*
X2643708Y2155395D02*
G01*
X2639136Y2164539D01*
X2625420Y2169111D01*
X2611704Y2169111D01*
X2598242Y2164539D01*
X2593670Y2155395D01*
X2598242Y2146251D01*
X2607386Y2141933D01*
X2629992Y2137361D01*
X2639136Y2132789D01*
X2643708Y2123645D01*
X2643708Y2119073D01*
X2639136Y2109929D01*
X2625420Y2105357D01*
X2611704Y2105357D01*
X2598242Y2109929D01*
X2593670Y2119073D01*
X2673680Y2141933D02*
G01*
X2728290Y2141933D01*
X2728290Y2150823D01*
X2723718Y2159967D01*
X2719146Y2164539D01*
X2710002Y2169111D01*
X2696286Y2169111D01*
X2687396Y2164539D01*
X2678252Y2155395D01*
X2673680Y2141933D01*
X2673680Y2132789D01*
X2678252Y2119073D01*
X2687396Y2109929D01*
X2696286Y2105357D01*
X2710002Y2105357D01*
X2719146Y2109929D01*
X2728290Y2119073D01*
X2878150Y2155395D02*
G01*
X2873578Y2164539D01*
X2860116Y2169111D01*
X2846400Y2169111D01*
X2832684Y2164539D01*
X2828112Y2155395D01*
X2832684Y2146251D01*
X2841828Y2141933D01*
X2864434Y2137361D01*
X2873578Y2132789D01*
X2878150Y2123645D01*
X2878150Y2119073D01*
X2873578Y2109929D01*
X2860116Y2105357D01*
X2846400Y2105357D01*
X2832684Y2109929D01*
X2828112Y2119073D01*
X2908122Y2169111D02*
G01*
X2926410Y2105357D01*
X2944444Y2169111D02*
G01*
X2926410Y2105357D01*
X2944444Y2169111D02*
G01*
X2962732Y2105357D01*
X2981020Y2169111D02*
G01*
X2962732Y2105357D01*
X3010992Y2200861D02*
G01*
X3015564Y2196289D01*
X3019882Y2200861D01*
X3015564Y2205433D01*
X3010992Y2200861D01*
X3015564Y2169111D02*
G01*
X3015564Y2105357D01*
X3063570Y2200861D02*
G01*
X3063570Y2123645D01*
X3068142Y2109929D01*
X3077286Y2105357D01*
X3086430Y2105357D01*
X3050108Y2169111D02*
G01*
X3081858Y2169111D01*
X3171012Y2155395D02*
G01*
X3161868Y2164539D01*
X3152724Y2169111D01*
X3139008Y2169111D01*
X3130118Y2164539D01*
X3120974Y2155395D01*
X3116402Y2141933D01*
X3116402Y2132789D01*
X3120974Y2119073D01*
X3130118Y2109929D01*
X3139008Y2105357D01*
X3152724Y2105357D01*
X3161868Y2109929D01*
X3171012Y2119073D01*
X3200984Y2200861D02*
G01*
X3200984Y2105357D01*
X3200984Y2150823D02*
G01*
X3214446Y2164539D01*
X3223590Y2169111D01*
X3237306Y2169111D01*
X3246450Y2164539D01*
X3251022Y2150823D01*
X3251022Y2105357D01*
X3280994Y2141933D02*
G01*
X3335350Y2141933D01*
X3335350Y2150823D01*
X3331032Y2159967D01*
X3326460Y2164539D01*
X3317316Y2169111D01*
X3303600Y2169111D01*
X3294456Y2164539D01*
X3285566Y2155395D01*
X3280994Y2141933D01*
X3280994Y2132789D01*
X3285566Y2119073D01*
X3294456Y2109929D01*
X3303600Y2105357D01*
X3317316Y2105357D01*
X3326460Y2109929D01*
X3335350Y2119073D01*
X3415360Y2155395D02*
G01*
X3410788Y2164539D01*
X3397326Y2169111D01*
X3383610Y2169111D01*
X3369894Y2164539D01*
X3365576Y2155395D01*
X3369894Y2146251D01*
X3379038Y2141933D01*
X3401898Y2137361D01*
X3410788Y2132789D01*
X3415360Y2123645D01*
X3415360Y2119073D01*
X3410788Y2109929D01*
X3397326Y2105357D01*
X3383610Y2105357D01*
X3369894Y2109929D01*
X3365576Y2119073D01*
X3529152Y2200861D02*
G01*
X3529152Y2123645D01*
X3533724Y2109929D01*
X3542614Y2105357D01*
X3551758Y2105357D01*
X3515436Y2169111D02*
G01*
X3547186Y2169111D01*
X3604590Y2169111D02*
G01*
X3595446Y2164539D01*
X3586302Y2155395D01*
X3581730Y2141933D01*
X3581730Y2132789D01*
X3586302Y2119073D01*
X3595446Y2109929D01*
X3604590Y2105357D01*
X3618306Y2105357D01*
X3627196Y2109929D01*
X3636340Y2119073D01*
X3640912Y2132789D01*
X3640912Y2141933D01*
X3636340Y2155395D01*
X3627196Y2164539D01*
X3618306Y2169111D01*
X3604590Y2169111D01*
X3740988Y2141933D02*
G01*
X3795344Y2141933D01*
X3795344Y2150823D01*
X3791026Y2159967D01*
X3786454Y2164539D01*
X3777310Y2169111D01*
X3763594Y2169111D01*
X3754450Y2164539D01*
X3745560Y2155395D01*
X3740988Y2141933D01*
X3740988Y2132789D01*
X3745560Y2119073D01*
X3754450Y2109929D01*
X3763594Y2105357D01*
X3777310Y2105357D01*
X3786454Y2109929D01*
X3795344Y2119073D01*
X3825570Y2169111D02*
G01*
X3825570Y2105357D01*
X3825570Y2150823D02*
G01*
X3839032Y2164539D01*
X3848176Y2169111D01*
X3861892Y2169111D01*
X3870782Y2164539D01*
X3875354Y2150823D01*
X3875354Y2105357D01*
X3959936Y2169111D02*
G01*
X3959936Y2105357D01*
X3959936Y2155395D02*
G01*
X3950792Y2164539D01*
X3941902Y2169111D01*
X3928186Y2169111D01*
X3919042Y2164539D01*
X3909898Y2155395D01*
X3905580Y2141933D01*
X3905580Y2132789D01*
X3909898Y2119073D01*
X3919042Y2109929D01*
X3928186Y2105357D01*
X3941902Y2105357D01*
X3950792Y2109929D01*
X3959936Y2119073D01*
X3989908Y2200861D02*
G01*
X3989908Y2105357D01*
X3989908Y2155395D02*
G01*
X3999052Y2164539D01*
X4008196Y2169111D01*
X4021912Y2169111D01*
X4030802Y2164539D01*
X4039946Y2155395D01*
X4044518Y2141933D01*
X4044518Y2132789D01*
X4039946Y2119073D01*
X4030802Y2109929D01*
X4021912Y2105357D01*
X4008196Y2105357D01*
X3999052Y2109929D01*
X3989908Y2119073D01*
X4074490Y2200861D02*
G01*
X4074490Y2105357D01*
X4104462Y2141933D02*
G01*
X4159072Y2141933D01*
X4159072Y2150823D01*
X4154500Y2159967D01*
X4149928Y2164539D01*
X4140784Y2169111D01*
X4127322Y2169111D01*
X4118178Y2164539D01*
X4109034Y2155395D01*
X4104462Y2141933D01*
X4104462Y2132789D01*
X4109034Y2119073D01*
X4118178Y2109929D01*
X4127322Y2105357D01*
X4140784Y2105357D01*
X4149928Y2109929D01*
X4159072Y2119073D01*
X4259148Y2169111D02*
G01*
X4259148Y2073607D01*
X4259148Y2155395D02*
G01*
X4268292Y2164539D01*
X4277182Y2169111D01*
X4290898Y2169111D01*
X4300042Y2164539D01*
X4309186Y2155395D01*
X4313758Y2141933D01*
X4313758Y2132789D01*
X4309186Y2119073D01*
X4300042Y2109929D01*
X4290898Y2105357D01*
X4277182Y2105357D01*
X4268292Y2109929D01*
X4259148Y2119073D01*
X4343730Y2169111D02*
G01*
X4343730Y2123645D01*
X4348302Y2109929D01*
X4357192Y2105357D01*
X4370908Y2105357D01*
X4380052Y2109929D01*
X4393514Y2123645D01*
X4393514Y2169111D02*
G01*
X4393514Y2105357D01*
X4423740Y2200861D02*
G01*
X4423740Y2105357D01*
X4453712Y2200861D02*
G01*
X4453712Y2105357D01*
X4553534Y2169111D02*
G01*
X4553534Y2123645D01*
X4558106Y2109929D01*
X4567250Y2105357D01*
X4580966Y2105357D01*
X4590110Y2109929D01*
X4603572Y2123645D01*
X4603572Y2169111D02*
G01*
X4603572Y2105357D01*
X4633544Y2169111D02*
G01*
X4633544Y2073607D01*
X4633544Y2155395D02*
G01*
X4642688Y2164539D01*
X4651832Y2169111D01*
X4665548Y2169111D01*
X4674438Y2164539D01*
X4683582Y2155395D01*
X4688154Y2141933D01*
X4688154Y2132789D01*
X4683582Y2119073D01*
X4674438Y2109929D01*
X4665548Y2105357D01*
X4651832Y2105357D01*
X4642688Y2109929D01*
X4633544Y2119073D01*
X4768164Y2155395D02*
G01*
X4763592Y2164539D01*
X4749876Y2169111D01*
X4736414Y2169111D01*
X4722698Y2164539D01*
X4718126Y2155395D01*
X4722698Y2146251D01*
X4731842Y2141933D01*
X4754448Y2137361D01*
X4763592Y2132789D01*
X4768164Y2123645D01*
X4768164Y2119073D01*
X4763592Y2109929D01*
X4749876Y2105357D01*
X4736414Y2105357D01*
X4722698Y2109929D01*
X4718126Y2119073D01*
D29*
X3599941Y686815D02*
G01*
X3599941Y577595D01*
X3599941Y686815D02*
G01*
X3646677Y686815D01*
X3662425Y681481D01*
X3667506Y676402D01*
X3672840Y665987D01*
X3672840Y655573D01*
X3667506Y645160D01*
X3662425Y640079D01*
X3646677Y634745D01*
X3599941Y634745D01*
X3636263Y634745D02*
G01*
X3672840Y577595D01*
X3712209Y660907D02*
G01*
X3712209Y665987D01*
X3717543Y676402D01*
X3722624Y681481D01*
X3733038Y686815D01*
X3753865Y686815D01*
X3764279Y681481D01*
X3769359Y676402D01*
X3774693Y665987D01*
X3774693Y655573D01*
X3769359Y645160D01*
X3758945Y629665D01*
X3707129Y577595D01*
X3779774Y577595D01*
X3299968Y686815D02*
G01*
X3299968Y577595D01*
X3299968Y686815D02*
G01*
X3346704Y686815D01*
X3362452Y681481D01*
X3367531Y676402D01*
X3372611Y665987D01*
X3372611Y655573D01*
X3367531Y645160D01*
X3362452Y640079D01*
X3346704Y634745D01*
X3299968Y634745D01*
X3336290Y634745D02*
G01*
X3372611Y577595D01*
X3417315Y686815D02*
G01*
X3474465Y686815D01*
X3443477Y645160D01*
X3458972Y645160D01*
X3469386Y640079D01*
X3474465Y634745D01*
X3479800Y619252D01*
X3479800Y608837D01*
X3474465Y593344D01*
X3464052Y582929D01*
X3448558Y577595D01*
X3433063Y577595D01*
X3417315Y582929D01*
X3412236Y588010D01*
X3406902Y598423D01*
X3299968Y3886707D02*
G01*
X3299968Y3777742D01*
X3299968Y3886707D02*
G01*
X3346704Y3886707D01*
X3362452Y3881628D01*
X3367531Y3876294D01*
X3372611Y3865879D01*
X3372611Y3855720D01*
X3367531Y3845305D01*
X3362452Y3839971D01*
X3346704Y3834892D01*
X3299968Y3834892D01*
X3336290Y3834892D02*
G01*
X3372611Y3777742D01*
X3458972Y3886707D02*
G01*
X3406902Y3814063D01*
X3484879Y3814063D01*
X3458972Y3886707D02*
G01*
X3458972Y3777742D01*
X3599941Y3886707D02*
G01*
X3599941Y3777742D01*
X3599941Y3886707D02*
G01*
X3646677Y3886707D01*
X3662425Y3881628D01*
X3667506Y3876294D01*
X3672840Y3865879D01*
X3672840Y3855720D01*
X3667506Y3845305D01*
X3662425Y3839971D01*
X3646677Y3834892D01*
X3599941Y3834892D01*
X3636263Y3834892D02*
G01*
X3672840Y3777742D01*
X3769359Y3886707D02*
G01*
X3717543Y3886707D01*
X3712209Y3839971D01*
X3717543Y3845305D01*
X3733038Y3850386D01*
X3748531Y3850386D01*
X3764279Y3845305D01*
X3774693Y3834892D01*
X3779774Y3819144D01*
X3779774Y3808729D01*
X3774693Y3793236D01*
X3764279Y3782821D01*
X3748531Y3777742D01*
X3733038Y3777742D01*
X3717543Y3782821D01*
X3712209Y3788155D01*
X3707129Y3798570D01*
X7102063Y1815317D02*
G01*
X7102063Y1732259D01*
X7096729Y1716511D01*
X7091649Y1711431D01*
X7081235Y1706351D01*
X7070821Y1706351D01*
X7060407Y1711431D01*
X7055073Y1716511D01*
X7049993Y1732259D01*
X7049993Y1742673D01*
X7136353Y1794489D02*
G01*
X7146513Y1799823D01*
X7162261Y1815317D01*
X7162261Y1706351D01*
X7102071Y3065315D02*
G01*
X7102071Y2982257D01*
X7096737Y2966509D01*
X7091657Y2961429D01*
X7081243Y2956349D01*
X7070829Y2956349D01*
X7060415Y2961429D01*
X7055081Y2966509D01*
X7050001Y2982257D01*
X7050001Y2992671D01*
X7141441Y3039407D02*
G01*
X7141441Y3044487D01*
X7146521Y3054901D01*
X7151855Y3060235D01*
X7162269Y3065315D01*
X7183097Y3065315D01*
X7193511Y3060235D01*
X7198591Y3054901D01*
X7203671Y3044487D01*
X7203671Y3034073D01*
X7198591Y3023659D01*
X7188177Y3008165D01*
X7136361Y2956349D01*
X7209005Y2956349D01*
X6027069Y1840316D02*
G01*
X6027069Y1757258D01*
X6021735Y1741510D01*
X6016655Y1736430D01*
X6006241Y1731350D01*
X5995827Y1731350D01*
X5985413Y1736430D01*
X5980079Y1741510D01*
X5974999Y1757258D01*
X5974999Y1767672D01*
X6071519Y1840316D02*
G01*
X6128669Y1840316D01*
X6097681Y1798660D01*
X6113175Y1798660D01*
X6123589Y1793580D01*
X6128669Y1788500D01*
X6134003Y1772752D01*
X6134003Y1762338D01*
X6128669Y1746844D01*
X6118509Y1736430D01*
X6102761Y1731350D01*
X6087267Y1731350D01*
X6071519Y1736430D01*
X6066439Y1741510D01*
X6061359Y1751924D01*
X6052070Y3340315D02*
G01*
X6052070Y3257257D01*
X6046736Y3241509D01*
X6041656Y3236429D01*
X6031242Y3231349D01*
X6020828Y3231349D01*
X6010414Y3236429D01*
X6005080Y3241509D01*
X6000000Y3257257D01*
X6000000Y3267671D01*
X6138176Y3340315D02*
G01*
X6086360Y3267671D01*
X6164084Y3267671D01*
X6138176Y3340315D02*
G01*
X6138176Y3231349D01*
X2534686Y171427D02*
G01*
X2643652Y171427D01*
X2643652Y171427D02*
G01*
X2643652Y233657D01*
X2534686Y267947D02*
G01*
X2643652Y267947D01*
X2534686Y267947D02*
G01*
X2534686Y335511D01*
X2586502Y267947D02*
G01*
X2586502Y309603D01*
X2643652Y267947D02*
G01*
X2643652Y335511D01*
X2534686Y369801D02*
G01*
X2643652Y369801D01*
X2534686Y369801D02*
G01*
X2534686Y406377D01*
X2539766Y421871D01*
X2550180Y432285D01*
X2560594Y437365D01*
X2576342Y442699D01*
X2602250Y442699D01*
X2617744Y437365D01*
X2628158Y432285D01*
X2638572Y421871D01*
X2643652Y406377D01*
X2643652Y369801D01*
X2555514Y476989D02*
G01*
X2550180Y487403D01*
X2534686Y502897D01*
X2643652Y502897D01*
X2534686Y3371428D02*
G01*
X2643652Y3371428D01*
X2643652Y3371428D02*
G01*
X2643652Y3433658D01*
X2534686Y3467948D02*
G01*
X2643652Y3467948D01*
X2534686Y3467948D02*
G01*
X2534686Y3535512D01*
X2586502Y3467948D02*
G01*
X2586502Y3509604D01*
X2643652Y3467948D02*
G01*
X2643652Y3535512D01*
X2534686Y3569802D02*
G01*
X2643652Y3569802D01*
X2534686Y3569802D02*
G01*
X2534686Y3606378D01*
X2539766Y3621872D01*
X2550180Y3632286D01*
X2560594Y3637366D01*
X2576342Y3642700D01*
X2602250Y3642700D01*
X2617744Y3637366D01*
X2628158Y3632286D01*
X2638572Y3621872D01*
X2643652Y3606378D01*
X2643652Y3569802D01*
X2560594Y3682070D02*
G01*
X2555514Y3682070D01*
X2545100Y3687404D01*
X2539766Y3692484D01*
X2534686Y3702898D01*
X2534686Y3723726D01*
X2539766Y3734140D01*
X2545100Y3739220D01*
X2555514Y3744554D01*
X2565928Y3744554D01*
X2576342Y3739220D01*
X2591836Y3728806D01*
X2643652Y3676990D01*
X2643652Y3749634D01*
X3331243Y3236744D02*
G01*
X3320829Y3231664D01*
X3310415Y3221250D01*
X3305081Y3210836D01*
X3300001Y3195088D01*
X3300001Y3169180D01*
X3305081Y3153686D01*
X3310415Y3143272D01*
X3320829Y3132858D01*
X3331243Y3127778D01*
X3352071Y3127778D01*
X3362231Y3132858D01*
X3372645Y3143272D01*
X3377979Y3153686D01*
X3383059Y3169180D01*
X3383059Y3195088D01*
X3377979Y3210836D01*
X3372645Y3221250D01*
X3362231Y3231664D01*
X3352071Y3236744D01*
X3331243Y3236744D01*
X3346737Y3148352D02*
G01*
X3377979Y3117364D01*
X3417349Y3215916D02*
G01*
X3427763Y3221250D01*
X3443511Y3236744D01*
X3443511Y3127778D01*
X4731242Y2911744D02*
G01*
X4720828Y2906664D01*
X4710414Y2896250D01*
X4705080Y2885836D01*
X4700000Y2870088D01*
X4700000Y2844180D01*
X4705080Y2828686D01*
X4710414Y2818272D01*
X4720828Y2807858D01*
X4731242Y2802778D01*
X4752070Y2802778D01*
X4762230Y2807858D01*
X4772644Y2818272D01*
X4777978Y2828686D01*
X4783058Y2844180D01*
X4783058Y2870088D01*
X4777978Y2885836D01*
X4772644Y2896250D01*
X4762230Y2906664D01*
X4752070Y2911744D01*
X4731242Y2911744D01*
X4746736Y2823352D02*
G01*
X4777978Y2792364D01*
X4822682Y2885836D02*
G01*
X4822682Y2890916D01*
X4827762Y2901330D01*
X4833096Y2906664D01*
X4843510Y2911744D01*
X4864084Y2911744D01*
X4874498Y2906664D01*
X4879832Y2901330D01*
X4884912Y2890916D01*
X4884912Y2880502D01*
X4879832Y2870088D01*
X4869418Y2854594D01*
X4817348Y2802778D01*
X4890246Y2802778D01*
X3000001Y686742D02*
G01*
X3000001Y577776D01*
X3000001Y686742D02*
G01*
X3046737Y686742D01*
X3062231Y681662D01*
X3067565Y676328D01*
X3072645Y665914D01*
X3072645Y655500D01*
X3067565Y645086D01*
X3062231Y640006D01*
X3046737Y634926D01*
X3000001Y634926D01*
X3036323Y634926D02*
G01*
X3072645Y577776D01*
X3106935Y665914D02*
G01*
X3117349Y671248D01*
X3133097Y686742D01*
X3133097Y577776D01*
X3000001Y3886743D02*
G01*
X3000001Y3777777D01*
X3000001Y3886743D02*
G01*
X3046737Y3886743D01*
X3062231Y3881663D01*
X3067565Y3876329D01*
X3072645Y3865915D01*
X3072645Y3855501D01*
X3067565Y3845087D01*
X3062231Y3840007D01*
X3046737Y3834927D01*
X3000001Y3834927D01*
X3036323Y3834927D02*
G01*
X3072645Y3777777D01*
X3169419Y3871249D02*
G01*
X3164085Y3881663D01*
X3148591Y3886743D01*
X3138177Y3886743D01*
X3122683Y3881663D01*
X3112269Y3865915D01*
X3106935Y3840007D01*
X3106935Y3814099D01*
X3112269Y3793271D01*
X3122683Y3782857D01*
X3138177Y3777777D01*
X3143511Y3777777D01*
X3159005Y3782857D01*
X3169419Y3793271D01*
X3174499Y3808765D01*
X3174499Y3814099D01*
X3169419Y3829593D01*
X3159005Y3840007D01*
X3143511Y3845087D01*
X3138177Y3845087D01*
X3122683Y3840007D01*
X3112269Y3829593D01*
X3106935Y3814099D01*
X4272648Y771250D02*
G01*
X4262234Y781664D01*
X4246740Y786744D01*
X4225912Y786744D01*
X4210418Y781664D01*
X4200004Y771250D01*
X4200004Y760836D01*
X4205084Y750422D01*
X4210418Y745088D01*
X4220832Y740008D01*
X4252074Y729594D01*
X4262234Y724514D01*
X4267568Y719180D01*
X4272648Y708766D01*
X4272648Y693272D01*
X4262234Y682858D01*
X4246740Y677778D01*
X4225912Y677778D01*
X4210418Y682858D01*
X4200004Y693272D01*
X4306938Y786744D02*
G01*
X4333100Y677778D01*
X4359008Y786744D02*
G01*
X4333100Y677778D01*
X4359008Y786744D02*
G01*
X4384916Y677778D01*
X4410824Y786744D02*
G01*
X4384916Y677778D01*
X4445114Y765916D02*
G01*
X4455528Y771250D01*
X4471276Y786744D01*
X4471276Y677778D01*
X4272645Y3221250D02*
G01*
X4262231Y3231664D01*
X4246737Y3236744D01*
X4225909Y3236744D01*
X4210415Y3231664D01*
X4200001Y3221250D01*
X4200001Y3210836D01*
X4205081Y3200422D01*
X4210415Y3195088D01*
X4220829Y3190008D01*
X4252071Y3179594D01*
X4262231Y3174514D01*
X4267565Y3169180D01*
X4272645Y3158766D01*
X4272645Y3143272D01*
X4262231Y3132858D01*
X4246737Y3127778D01*
X4225909Y3127778D01*
X4210415Y3132858D01*
X4200001Y3143272D01*
X4306935Y3236744D02*
G01*
X4333097Y3127778D01*
X4359005Y3236744D02*
G01*
X4333097Y3127778D01*
X4359005Y3236744D02*
G01*
X4384913Y3127778D01*
X4410821Y3236744D02*
G01*
X4384913Y3127778D01*
X4450445Y3210836D02*
G01*
X4450445Y3215916D01*
X4455525Y3226330D01*
X4460859Y3231664D01*
X4471273Y3236744D01*
X4492101Y3236744D01*
X4502261Y3231664D01*
X4507595Y3226330D01*
X4512675Y3215916D01*
X4512675Y3205502D01*
X4507595Y3195088D01*
X4497181Y3179594D01*
X4445111Y3127778D01*
X4518009Y3127778D01*
D26*
X622752Y3676383D02*
G01*
X622752Y3533127D01*
X575000Y3676383D02*
G01*
X670504Y3676383D01*
X715462Y3587737D02*
G01*
X797250Y3587737D01*
X797250Y3601453D01*
X790392Y3614915D01*
X783534Y3621773D01*
X770072Y3628631D01*
X749498Y3628631D01*
X736036Y3621773D01*
X722320Y3608057D01*
X715462Y3587737D01*
X715462Y3574021D01*
X722320Y3553701D01*
X736036Y3539985D01*
X749498Y3533127D01*
X770072Y3533127D01*
X783534Y3539985D01*
X797250Y3553701D01*
X842208Y3587737D02*
G01*
X923996Y3587737D01*
X923996Y3601453D01*
X917392Y3614915D01*
X910534Y3621773D01*
X896818Y3628631D01*
X876244Y3628631D01*
X862782Y3621773D01*
X849066Y3608057D01*
X842208Y3587737D01*
X842208Y3574021D01*
X849066Y3553701D01*
X862782Y3539985D01*
X876244Y3533127D01*
X896818Y3533127D01*
X910534Y3539985D01*
X923996Y3553701D01*
X969208Y3628631D02*
G01*
X969208Y3533127D01*
X969208Y3601453D02*
G01*
X989528Y3621773D01*
X1003244Y3628631D01*
X1023564Y3628631D01*
X1037280Y3621773D01*
X1044138Y3601453D01*
X1044138Y3533127D01*
X1164026Y3608057D02*
G01*
X1157168Y3621773D01*
X1136848Y3628631D01*
X1116274Y3628631D01*
X1095954Y3621773D01*
X1089096Y3608057D01*
X1095954Y3594595D01*
X1109670Y3587737D01*
X1143706Y3580879D01*
X1157168Y3574021D01*
X1164026Y3560559D01*
X1164026Y3553701D01*
X1157168Y3539985D01*
X1136848Y3533127D01*
X1116274Y3533127D01*
X1095954Y3539985D01*
X1089096Y3553701D01*
X1215842Y3628631D02*
G01*
X1256736Y3533127D01*
X1297630Y3628631D02*
G01*
X1256736Y3533127D01*
X1243274Y3505949D01*
X1229558Y3492233D01*
X1215842Y3485375D01*
X1208984Y3485375D01*
X1342842Y3676383D02*
G01*
X1342842Y3533127D01*
X1342842Y3533127D02*
G01*
X1424630Y3533127D01*
X1571696Y3642347D02*
G01*
X1565092Y3655809D01*
X1551376Y3669525D01*
X1537660Y3676383D01*
X1510482Y3676383D01*
X1496766Y3669525D01*
X1483304Y3655809D01*
X1476446Y3642347D01*
X1469588Y3621773D01*
X1469588Y3587737D01*
X1476446Y3567163D01*
X1483304Y3553701D01*
X1496766Y3539985D01*
X1510482Y3533127D01*
X1537660Y3533127D01*
X1551376Y3539985D01*
X1565092Y3553701D01*
X1571696Y3567163D01*
G36*
X2760014Y381457D02*
G01*
X2799994Y351434D01*
X2840024Y381406D01*
G37*
G36*
X2799994Y3591407D02*
G01*
X2760014Y3561435D01*
X2840024Y3561435D01*
G37*
D11*
X7200000Y2000001D02*
G01*
X2200008Y2000001D01*
D10*
X3801938Y421347D02*
G01*
X3801938Y546348D01*
X3597945Y421347D02*
G01*
X3597945Y546348D01*
X3801938Y321348D02*
G01*
X3801938Y196347D01*
X3597945Y321348D02*
G01*
X3597945Y196347D01*
X3801938Y546351D02*
G01*
X3597945Y546348D01*
X3801938Y196347D02*
G01*
X3597945Y196347D01*
X3501964Y421347D02*
G01*
X3501964Y546348D01*
X3297971Y421347D02*
G01*
X3297971Y546348D01*
X3501964Y321348D02*
G01*
X3501964Y196347D01*
X3297971Y321348D02*
G01*
X3297971Y196347D01*
X3501964Y546351D02*
G01*
X3297971Y546348D01*
X3501964Y196347D02*
G01*
X3297971Y196347D01*
X3297971Y3521494D02*
G01*
X3297971Y3396493D01*
X3501964Y3521494D02*
G01*
X3501964Y3396493D01*
X3297971Y3621493D02*
G01*
X3297971Y3746494D01*
X3501964Y3621493D02*
G01*
X3501964Y3746494D01*
X3297971Y3396490D02*
G01*
X3501964Y3396493D01*
X3297971Y3746494D02*
G01*
X3501964Y3746494D01*
X3597945Y3521494D02*
G01*
X3597945Y3396493D01*
X3801938Y3521494D02*
G01*
X3801938Y3396493D01*
X3597945Y3621493D02*
G01*
X3597945Y3746494D01*
X3801938Y3621493D02*
G01*
X3801938Y3746494D01*
X3597945Y3396490D02*
G01*
X3801938Y3396493D01*
X3597945Y3746494D02*
G01*
X3801938Y3746494D01*
D25*
X7200000Y1596428D02*
G01*
X7200000Y996429D01*
X6780011Y996429D01*
X6780011Y1596428D01*
X7200000Y1596428D01*
X7200000Y2846428D02*
G01*
X7200000Y2246429D01*
X6780011Y2246429D01*
X6780011Y2846428D01*
X7200000Y2846428D01*
D26*
X5973000Y1679427D02*
G01*
X6227000Y1679427D01*
X6227000Y663427D01*
X5973000Y663427D01*
X5973000Y853927D01*
D27*
X5973000Y1679427D02*
G01*
X5973000Y853927D01*
D26*
X5973000Y3179427D02*
G01*
X6227000Y3179427D01*
X6227000Y2163427D01*
X5973000Y2163427D01*
X5973000Y2353927D01*
D27*
X5973000Y3179427D02*
G01*
X5973000Y2353927D01*
D28*
X2900001Y331426D02*
G01*
X2900001Y171427D01*
X2700002Y171427D01*
X2700002Y331426D01*
X2700002Y411426D02*
G01*
X2700002Y571426D01*
X2900001Y571426D01*
X2900001Y411426D01*
X2900001Y171427D02*
G01*
X2900001Y171427D01*
X2870001Y141427D01*
X2730002Y141427D01*
X2730002Y141427D01*
X2700002Y171427D01*
X2700002Y3611427D02*
G01*
X2700002Y3771427D01*
X2900001Y3771427D01*
X2900001Y3611427D01*
X2900001Y3531428D02*
G01*
X2900001Y3371428D01*
X2700002Y3371428D01*
X2700002Y3531428D01*
X2700002Y3771427D02*
G01*
X2700002Y3771427D01*
X2730002Y3801427D01*
X2870001Y3801427D01*
X2870001Y3801427D01*
X2900001Y3771427D01*
D29*
X3239640Y3211548D02*
G01*
X3239640Y2531305D01*
X2960362Y2531305D01*
X2960362Y3211548D01*
X3239640Y3211548D01*
X4639640Y2911548D02*
G01*
X4639640Y2231306D01*
X4360362Y2231306D01*
X4360362Y2911548D01*
X4639640Y2911548D01*
D10*
X3201997Y421426D02*
G01*
X3201997Y546427D01*
X2998005Y421426D02*
G01*
X2998005Y546427D01*
X3201997Y321426D02*
G01*
X3201997Y196425D01*
X2998005Y321426D02*
G01*
X2998005Y196425D01*
X3201997Y546430D02*
G01*
X2998005Y546427D01*
X3201997Y196425D02*
G01*
X2998005Y196425D01*
X2998005Y3521428D02*
G01*
X2998005Y3396427D01*
X3201997Y3521428D02*
G01*
X3201997Y3396427D01*
X2998005Y3621427D02*
G01*
X2998005Y3746428D01*
X3201997Y3621427D02*
G01*
X3201997Y3746428D01*
X2998005Y3396424D02*
G01*
X3201997Y3396427D01*
X2998005Y3746428D02*
G01*
X3201997Y3746428D01*
X5400001Y91424D02*
G01*
X4199999Y91427D01*
X4199999Y651428D02*
G01*
X5400001Y651426D01*
X4419000Y574626D02*
G01*
X5155600Y574626D01*
X4952400Y219026D02*
G01*
X4952400Y523826D01*
X5155600Y168226D02*
G01*
X4419000Y168226D01*
X5400001Y91424D02*
G01*
X5400001Y225376D01*
X5400001Y517476D02*
G01*
X5400001Y651426D01*
X5155600Y574626D02*
G01*
X5155600Y469894D01*
X5155600Y272958D02*
G01*
X5155600Y168226D01*
X4419000Y168226D02*
G01*
X4419000Y292582D01*
X4419000Y450270D02*
G01*
X4419000Y574626D01*
X4800000Y523826D02*
G01*
X4800000Y484540D01*
X4800000Y258312D02*
G01*
X4800000Y219026D01*
X4854287Y219026D02*
G01*
X4854287Y272227D01*
X4854287Y470626D02*
G01*
X4854287Y523826D01*
X4902547Y523826D02*
G01*
X4902547Y418812D01*
X4902547Y324040D02*
G01*
X4902547Y219026D01*
X5004147Y523826D02*
G01*
X5004147Y431261D01*
X5004147Y311591D02*
G01*
X5004147Y219026D01*
X5054947Y219026D02*
G01*
X5054947Y267695D01*
X5054947Y475157D02*
G01*
X5054947Y523826D01*
X5104800Y523826D02*
G01*
X5104800Y484438D01*
X5104800Y258414D02*
G01*
X5104800Y219026D01*
X5104800Y219026D02*
G01*
X4800000Y219026D01*
X4800000Y523826D02*
G01*
X5104800Y523826D01*
X4199999Y91427D02*
G01*
X4199999Y225376D01*
X4199999Y517476D02*
G01*
X4199999Y651428D01*
X5400001Y3291425D02*
G01*
X4199999Y3291428D01*
X4199999Y3851429D02*
G01*
X5400001Y3851427D01*
X4419000Y3774627D02*
G01*
X5155600Y3774627D01*
X4952400Y3419027D02*
G01*
X4952400Y3723827D01*
X5155600Y3368227D02*
G01*
X4419000Y3368227D01*
X5400001Y3291425D02*
G01*
X5400001Y3425377D01*
X5400001Y3717477D02*
G01*
X5400001Y3851427D01*
X5155600Y3774627D02*
G01*
X5155600Y3669896D01*
X5155600Y3472959D02*
G01*
X5155600Y3368227D01*
X4419000Y3368227D02*
G01*
X4419000Y3492583D01*
X4419000Y3650272D02*
G01*
X4419000Y3774627D01*
X4800000Y3723827D02*
G01*
X4800000Y3684541D01*
X4800000Y3458314D02*
G01*
X4800000Y3419027D01*
X4854287Y3419027D02*
G01*
X4854287Y3472228D01*
X4854287Y3670627D02*
G01*
X4854287Y3723827D01*
X4902547Y3723827D02*
G01*
X4902547Y3618814D01*
X4902547Y3524041D02*
G01*
X4902547Y3419027D01*
X5004147Y3723827D02*
G01*
X5004147Y3631262D01*
X5004147Y3511593D02*
G01*
X5004147Y3419027D01*
X5054947Y3419027D02*
G01*
X5054947Y3467696D01*
X5054947Y3675159D02*
G01*
X5054947Y3723827D01*
X5104800Y3723827D02*
G01*
X5104800Y3684440D01*
X5104800Y3458415D02*
G01*
X5104800Y3419027D01*
X5104800Y3419027D02*
G01*
X4800000Y3419027D01*
X4800000Y3723827D02*
G01*
X5104800Y3723827D01*
X4199999Y3291428D02*
G01*
X4199999Y3425377D01*
X4199999Y3717477D02*
G01*
X4199999Y3851429D01*
X1989000Y3749428D02*
G01*
X1989000Y193428D01*
X211000Y193428D01*
X211000Y3749428D01*
X1989000Y3749428D01*
M02*
