G04 Layer: TopLayer*
G04 EasyEDA v6.4.25, 2022-02-05T09:57:48+11:00*
G04 a67cddfb3fce44daa9051d46cbbcc19f,10*
G04 Gerber Generator version 0.2*
G04 Scale: 100 percent, Rotated: No, Reflected: No *
G04 Dimensions in millimeters *
G04 leading zeros omitted , absolute positions ,4 integer and 5 decimal *
%FSLAX45Y45*%
%MOMM*%

%ADD10C,0.2540*%
%ADD11C,1.0000*%
%ADD12C,0.7500*%
%ADD13C,0.6096*%
%ADD14R,1.5500X1.0000*%
%ADD15R,1.5500X0.6000*%
%ADD16R,1.8000X1.2000*%
%ADD17R,1.3995X1.3005*%
%ADD20R,1.5748X1.5748*%
%ADD21C,1.5748*%
%ADD22C,1.8000*%
%ADD23C,1.5240*%
%ADD24C,1.5000*%

%LPD*%
G36*
X300685Y25908D02*
G01*
X278079Y26822D01*
X256743Y29362D01*
X235610Y33629D01*
X214934Y39471D01*
X194767Y46939D01*
X175209Y55981D01*
X156464Y66548D01*
X138582Y78536D01*
X121716Y91846D01*
X105918Y106476D01*
X91338Y122326D01*
X78028Y139242D01*
X66141Y157124D01*
X55626Y175920D01*
X46634Y195478D01*
X39217Y215696D01*
X33426Y236423D01*
X29260Y257505D01*
X26771Y278892D01*
X25908Y300685D01*
X25908Y3699306D01*
X26822Y3721912D01*
X29362Y3743248D01*
X33629Y3764381D01*
X39471Y3785057D01*
X46939Y3805224D01*
X55981Y3824782D01*
X66548Y3843528D01*
X78536Y3861409D01*
X91846Y3878275D01*
X106476Y3894074D01*
X122326Y3908653D01*
X139242Y3921963D01*
X157124Y3933901D01*
X175920Y3944365D01*
X195478Y3953357D01*
X215696Y3960774D01*
X236423Y3966565D01*
X257505Y3970731D01*
X278892Y3973220D01*
X300685Y3974084D01*
X6999325Y3974084D01*
X7021880Y3973169D01*
X7043267Y3970629D01*
X7064349Y3966413D01*
X7085075Y3960520D01*
X7105243Y3953052D01*
X7124750Y3944010D01*
X7143546Y3933444D01*
X7161428Y3921506D01*
X7178294Y3908145D01*
X7194092Y3893515D01*
X7208672Y3877665D01*
X7221931Y3860749D01*
X7233869Y3842867D01*
X7244384Y3824071D01*
X7253325Y3804513D01*
X7260793Y3784295D01*
X7266584Y3763568D01*
X7270750Y3742486D01*
X7273239Y3721100D01*
X7274102Y3699306D01*
X7274102Y300685D01*
X7273188Y278079D01*
X7270597Y256743D01*
X7266381Y235610D01*
X7260539Y214934D01*
X7253020Y194767D01*
X7244029Y175209D01*
X7233462Y156464D01*
X7221474Y138582D01*
X7208113Y121716D01*
X7193483Y105918D01*
X7177684Y91338D01*
X7160768Y78028D01*
X7142835Y66141D01*
X7124090Y55626D01*
X7104532Y46634D01*
X7084314Y39217D01*
X7063587Y33426D01*
X7042454Y29260D01*
X7021118Y26771D01*
X6999325Y25908D01*
X5778398Y25908D01*
X5774486Y26720D01*
X5771184Y28956D01*
X5769000Y32308D01*
X5768238Y36220D01*
X5769102Y40132D01*
X5770626Y43688D01*
X5772505Y49072D01*
X5773978Y54559D01*
X5775045Y60096D01*
X5775706Y65735D01*
X5775909Y71628D01*
X5775909Y608736D01*
X5776671Y612648D01*
X5778855Y615950D01*
X5996127Y833170D01*
X5999378Y835355D01*
X6003290Y836168D01*
X6054293Y836168D01*
X6054293Y887120D01*
X6055055Y891032D01*
X6057239Y894334D01*
X6100216Y937310D01*
X6103213Y939342D01*
X6106769Y940257D01*
X6113678Y940714D01*
X6127089Y943356D01*
X6140043Y947775D01*
X6152337Y953820D01*
X6163716Y961440D01*
X6173978Y970432D01*
X6183020Y980744D01*
X6190589Y992124D01*
X6196685Y1004366D01*
X6201054Y1017371D01*
X6203746Y1030782D01*
X6204610Y1044448D01*
X6204000Y1053846D01*
X6204661Y1058113D01*
X6206947Y1061720D01*
X6325311Y1180033D01*
X6328613Y1182268D01*
X6332474Y1183030D01*
X6628942Y1183030D01*
X6632803Y1182268D01*
X6636105Y1180033D01*
X6638290Y1176731D01*
X6639102Y1172870D01*
X6639102Y1167790D01*
X6697421Y1167790D01*
X6697421Y1172870D01*
X6698183Y1176731D01*
X6700367Y1180033D01*
X6703669Y1182268D01*
X6707581Y1183030D01*
X6742074Y1183030D01*
X6752945Y1183944D01*
X6763105Y1186484D01*
X6770319Y1189634D01*
X6774383Y1190498D01*
X6777431Y1190498D01*
X6781342Y1189736D01*
X6784644Y1187551D01*
X6786829Y1184249D01*
X6787591Y1180338D01*
X6787591Y1167790D01*
X6845909Y1167790D01*
X6845909Y1175867D01*
X6845198Y1182166D01*
X6843268Y1187653D01*
X6841134Y1191006D01*
X6839762Y1194511D01*
X6839762Y1198321D01*
X6841134Y1201826D01*
X6843268Y1205179D01*
X6845198Y1210665D01*
X6845909Y1216964D01*
X6845909Y1275842D01*
X6845198Y1282192D01*
X6843268Y1287627D01*
X6841134Y1291031D01*
X6839762Y1294536D01*
X6839762Y1298295D01*
X6841134Y1301851D01*
X6843268Y1305204D01*
X6845198Y1310690D01*
X6845909Y1316990D01*
X6845909Y1375867D01*
X6845198Y1382217D01*
X6843268Y1387652D01*
X6841134Y1391056D01*
X6839762Y1394561D01*
X6839762Y1398320D01*
X6841134Y1401826D01*
X6843268Y1405229D01*
X6845198Y1410665D01*
X6845909Y1417015D01*
X6845909Y1475892D01*
X6845198Y1482191D01*
X6843268Y1487678D01*
X6840220Y1492554D01*
X6836105Y1496669D01*
X6831228Y1499717D01*
X6825742Y1501648D01*
X6819442Y1502359D01*
X6665569Y1502359D01*
X6659219Y1501648D01*
X6653784Y1499717D01*
X6648907Y1496669D01*
X6644792Y1492554D01*
X6643065Y1489811D01*
X6640779Y1487271D01*
X6637832Y1485595D01*
X6634429Y1485036D01*
X6226200Y1485036D01*
X6222288Y1485798D01*
X6219037Y1488033D01*
X6200597Y1506423D01*
X6198514Y1509522D01*
X6197650Y1513128D01*
X6198158Y1516837D01*
X6201054Y1525371D01*
X6203746Y1538782D01*
X6204610Y1552448D01*
X6203746Y1566062D01*
X6201054Y1579524D01*
X6196685Y1592478D01*
X6190589Y1604721D01*
X6183020Y1616100D01*
X6173978Y1626412D01*
X6163716Y1635455D01*
X6152337Y1643024D01*
X6140043Y1649069D01*
X6127089Y1653489D01*
X6113678Y1656181D01*
X6100013Y1657045D01*
X6086348Y1656181D01*
X6072936Y1653489D01*
X6059982Y1649069D01*
X6047689Y1643024D01*
X6036310Y1635455D01*
X6025997Y1626412D01*
X6017006Y1616100D01*
X6009386Y1604721D01*
X6005423Y1596745D01*
X6003188Y1593748D01*
X5999988Y1591767D01*
X5996330Y1591056D01*
X3227832Y1591056D01*
X3219805Y1590243D01*
X3212592Y1588058D01*
X3205886Y1584502D01*
X3199688Y1579422D01*
X3137052Y1516583D01*
X3133750Y1514348D01*
X3129838Y1513586D01*
X1952294Y1513586D01*
X1948078Y1514500D01*
X1944624Y1517091D01*
X1942541Y1520850D01*
X1942236Y1525168D01*
X1943760Y1529232D01*
X1951532Y1541373D01*
X1957273Y1553718D01*
X1961286Y1566773D01*
X1963572Y1580184D01*
X1964029Y1593850D01*
X1962657Y1607413D01*
X1959508Y1620672D01*
X1958339Y1623669D01*
X1957679Y1627479D01*
X1958492Y1631238D01*
X1960676Y1634489D01*
X2626004Y2299817D01*
X2629306Y2302052D01*
X2633218Y2302814D01*
X4054957Y2302814D01*
X4058818Y2302052D01*
X4062120Y2299817D01*
X4064304Y2296566D01*
X4065117Y2292654D01*
X4065117Y2289505D01*
X4065828Y2283155D01*
X4067708Y2277719D01*
X4070807Y2272792D01*
X4074871Y2268728D01*
X4079798Y2265629D01*
X4085234Y2263749D01*
X4091584Y2263038D01*
X4151223Y2263038D01*
X4155135Y2262225D01*
X4158386Y2260041D01*
X4160621Y2256739D01*
X4161383Y2252878D01*
X4161383Y2245004D01*
X4160621Y2241092D01*
X4158386Y2237790D01*
X4156811Y2236216D01*
X4151223Y2228189D01*
X4147058Y2219248D01*
X4144518Y2209800D01*
X4143654Y2199995D01*
X4144518Y2190191D01*
X4147058Y2180742D01*
X4151223Y2171801D01*
X4156811Y2163775D01*
X4163771Y2156815D01*
X4171848Y2151176D01*
X4180738Y2147062D01*
X4190237Y2144522D01*
X4199991Y2143658D01*
X4209796Y2144522D01*
X4219295Y2147062D01*
X4228185Y2151176D01*
X4236212Y2156815D01*
X4243171Y2163775D01*
X4248810Y2171801D01*
X4252925Y2180742D01*
X4255516Y2190191D01*
X4256328Y2199995D01*
X4255516Y2209800D01*
X4252925Y2219248D01*
X4248810Y2228189D01*
X4243171Y2236216D01*
X4241596Y2237790D01*
X4239361Y2241092D01*
X4238599Y2245004D01*
X4238599Y2252878D01*
X4239361Y2256739D01*
X4241596Y2260041D01*
X4244848Y2262225D01*
X4248759Y2263038D01*
X4336948Y2263038D01*
X4343247Y2263749D01*
X4348734Y2265629D01*
X4353610Y2268728D01*
X4357725Y2272792D01*
X4360773Y2277719D01*
X4362704Y2283155D01*
X4363415Y2289505D01*
X4363415Y2393340D01*
X4362704Y2399690D01*
X4360773Y2405126D01*
X4357725Y2410053D01*
X4353610Y2414117D01*
X4348734Y2417216D01*
X4343247Y2419146D01*
X4336948Y2419858D01*
X4091584Y2419858D01*
X4085234Y2419146D01*
X4079798Y2417216D01*
X4074871Y2414117D01*
X4070807Y2410053D01*
X4067708Y2405126D01*
X4065828Y2399690D01*
X4065117Y2393340D01*
X4065117Y2390190D01*
X4064304Y2386279D01*
X4062120Y2383028D01*
X4058818Y2380792D01*
X4054957Y2380030D01*
X3528415Y2380030D01*
X3524554Y2380792D01*
X3521303Y2382977D01*
X3519068Y2386228D01*
X3518255Y2390089D01*
X3519017Y2393950D01*
X3521151Y2397252D01*
X3524351Y2399487D01*
X3535426Y2404313D01*
X3545027Y2410358D01*
X3553917Y2418029D01*
X3858463Y2722524D01*
X3861765Y2724759D01*
X3865626Y2725521D01*
X4078427Y2725521D01*
X4081779Y2724962D01*
X4085234Y2723743D01*
X4091584Y2723032D01*
X4336948Y2723032D01*
X4343247Y2723743D01*
X4348734Y2725623D01*
X4353610Y2728722D01*
X4357725Y2732836D01*
X4360773Y2737713D01*
X4362704Y2743200D01*
X4363415Y2749499D01*
X4363415Y2853334D01*
X4362704Y2859684D01*
X4360773Y2865120D01*
X4357725Y2870047D01*
X4353610Y2874111D01*
X4348734Y2877210D01*
X4343247Y2879140D01*
X4336948Y2879852D01*
X4091584Y2879852D01*
X4085234Y2879140D01*
X4081779Y2877921D01*
X4078427Y2877312D01*
X3827322Y2877261D01*
X3818483Y2876448D01*
X3816045Y2876042D01*
X3807460Y2873908D01*
X3805123Y2873146D01*
X3796893Y2869742D01*
X3794709Y2868625D01*
X3787089Y2864053D01*
X3785057Y2862630D01*
X3778250Y2856941D01*
X3446576Y2525369D01*
X3438956Y2516479D01*
X3432911Y2506878D01*
X3428390Y2496464D01*
X3425444Y2485542D01*
X3424174Y2474264D01*
X3424580Y2462936D01*
X3426714Y2451760D01*
X3430422Y2441092D01*
X3435756Y2431034D01*
X3442462Y2421940D01*
X3450488Y2413914D01*
X3459632Y2407158D01*
X3469640Y2401874D01*
X3475634Y2399792D01*
X3479088Y2397709D01*
X3481476Y2394458D01*
X3482441Y2390495D01*
X3481730Y2386533D01*
X3479596Y2383129D01*
X3476244Y2380843D01*
X3472281Y2380030D01*
X2613507Y2380030D01*
X2605481Y2379218D01*
X2598267Y2377033D01*
X2591562Y2373477D01*
X2585364Y2368346D01*
X1906219Y1689201D01*
X1903272Y1687169D01*
X1899869Y1686255D01*
X1896313Y1686610D01*
X1882343Y1690471D01*
X1868830Y1692300D01*
X1855165Y1692300D01*
X1841652Y1690471D01*
X1828495Y1686864D01*
X1815947Y1681530D01*
X1804212Y1674571D01*
X1793544Y1666138D01*
X1784045Y1656334D01*
X1775968Y1645361D01*
X1769414Y1633423D01*
X1764487Y1620672D01*
X1761337Y1607413D01*
X1759966Y1593850D01*
X1760423Y1580184D01*
X1762455Y1568145D01*
X1762302Y1563928D01*
X1760372Y1560118D01*
X1757121Y1557426D01*
X1753006Y1556308D01*
X1748840Y1556969D01*
X1745284Y1559255D01*
X1741627Y1562912D01*
X1739392Y1566214D01*
X1738630Y1570126D01*
X1738630Y1662277D01*
X1739392Y1666189D01*
X1741627Y1669491D01*
X1817979Y1745843D01*
X1821078Y1747977D01*
X1824736Y1748789D01*
X1828495Y1748231D01*
X1835048Y1745945D01*
X1848408Y1743252D01*
X1862023Y1742338D01*
X1875586Y1743252D01*
X1888947Y1745945D01*
X1901850Y1750466D01*
X1914042Y1756613D01*
X1925269Y1764334D01*
X1935378Y1773478D01*
X1944166Y1783892D01*
X1951532Y1795373D01*
X1957273Y1807718D01*
X1961286Y1820773D01*
X1963572Y1834184D01*
X1964029Y1847850D01*
X1962657Y1861413D01*
X1959508Y1874672D01*
X1958339Y1877669D01*
X1957679Y1881479D01*
X1958492Y1885238D01*
X1960676Y1888489D01*
X2651810Y2579674D01*
X2654808Y2581706D01*
X2658313Y2582621D01*
X2661920Y2582214D01*
X2665171Y2580538D01*
X2667609Y2577896D01*
X2670810Y2572816D01*
X2674874Y2568702D01*
X2679801Y2565654D01*
X2685237Y2563723D01*
X2691587Y2563012D01*
X2936951Y2563012D01*
X2943250Y2563723D01*
X2948736Y2565654D01*
X2953613Y2568702D01*
X2957728Y2572816D01*
X2960776Y2577693D01*
X2962706Y2583180D01*
X2963418Y2589479D01*
X2963418Y2693365D01*
X2962706Y2699664D01*
X2960776Y2705150D01*
X2957728Y2710027D01*
X2953613Y2714142D01*
X2948736Y2717190D01*
X2943250Y2719120D01*
X2936951Y2719832D01*
X2691587Y2719832D01*
X2685237Y2719120D01*
X2679801Y2717190D01*
X2674874Y2714142D01*
X2670810Y2710027D01*
X2667711Y2705150D01*
X2665780Y2699664D01*
X2665069Y2693365D01*
X2665069Y2689809D01*
X2664409Y2686151D01*
X2662478Y2682951D01*
X2659481Y2680716D01*
X2655925Y2679700D01*
X2651455Y2679242D01*
X2644241Y2677058D01*
X2637586Y2673502D01*
X2631338Y2668371D01*
X1906219Y1943201D01*
X1903272Y1941169D01*
X1899869Y1940306D01*
X1896313Y1940610D01*
X1882343Y1944471D01*
X1868830Y1946300D01*
X1855165Y1946300D01*
X1841652Y1944471D01*
X1828495Y1940864D01*
X1815947Y1935530D01*
X1804212Y1928571D01*
X1793544Y1920138D01*
X1784045Y1910334D01*
X1775968Y1899361D01*
X1769414Y1887423D01*
X1764487Y1874672D01*
X1761337Y1861413D01*
X1759966Y1847850D01*
X1760423Y1834184D01*
X1762709Y1820773D01*
X1765858Y1810613D01*
X1766265Y1806956D01*
X1765401Y1803400D01*
X1763318Y1800402D01*
X1673098Y1710131D01*
X1667967Y1703933D01*
X1664411Y1697228D01*
X1662226Y1690014D01*
X1661414Y1681988D01*
X1661414Y1550416D01*
X1662226Y1542389D01*
X1664411Y1535176D01*
X1667967Y1528470D01*
X1673098Y1522272D01*
X1747316Y1448054D01*
X1753514Y1442923D01*
X1760220Y1439367D01*
X1767433Y1437182D01*
X1775460Y1436370D01*
X1794967Y1436370D01*
X1799031Y1435506D01*
X1802384Y1433118D01*
X1804568Y1429562D01*
X1805076Y1425397D01*
X1803907Y1421434D01*
X1801266Y1418234D01*
X1793544Y1412138D01*
X1784045Y1402334D01*
X1775968Y1391361D01*
X1769414Y1379423D01*
X1764487Y1366672D01*
X1761337Y1353413D01*
X1759966Y1339850D01*
X1760423Y1326184D01*
X1762709Y1312773D01*
X1766722Y1299718D01*
X1772462Y1287373D01*
X1779828Y1275892D01*
X1788617Y1265478D01*
X1798726Y1256334D01*
X1809953Y1248613D01*
X1822145Y1242466D01*
X1835048Y1237945D01*
X1848408Y1235252D01*
X1862023Y1234338D01*
X1875586Y1235252D01*
X1888947Y1237945D01*
X1901850Y1242466D01*
X1914042Y1248613D01*
X1925269Y1256334D01*
X1935378Y1265478D01*
X1944166Y1275892D01*
X1951532Y1287373D01*
X1957273Y1299718D01*
X1961286Y1312773D01*
X1963572Y1326184D01*
X1964029Y1339850D01*
X1962657Y1353413D01*
X1959508Y1366672D01*
X1954580Y1379423D01*
X1948027Y1391361D01*
X1939950Y1402334D01*
X1930501Y1412138D01*
X1922780Y1418234D01*
X1920087Y1421434D01*
X1918919Y1425397D01*
X1919478Y1429562D01*
X1921611Y1433118D01*
X1924964Y1435506D01*
X1929079Y1436370D01*
X3111195Y1436370D01*
X3115056Y1435608D01*
X3118358Y1433372D01*
X3358438Y1193342D01*
X3360623Y1190040D01*
X3361385Y1186129D01*
X3361385Y557428D01*
X3360623Y553516D01*
X3358438Y550214D01*
X3355136Y548030D01*
X3351225Y547268D01*
X3323031Y547268D01*
X3316732Y546557D01*
X3311245Y544626D01*
X3306368Y541528D01*
X3302254Y537464D01*
X3299206Y532536D01*
X3297275Y527100D01*
X3296564Y520801D01*
X3296564Y421893D01*
X3297275Y415594D01*
X3299206Y410159D01*
X3302254Y405231D01*
X3306368Y401167D01*
X3311245Y398068D01*
X3316732Y396138D01*
X3323031Y395427D01*
X3476904Y395427D01*
X3483203Y396138D01*
X3488690Y398068D01*
X3493566Y401167D01*
X3497681Y405231D01*
X3500729Y410159D01*
X3502660Y415594D01*
X3503371Y421893D01*
X3503371Y520801D01*
X3502660Y527100D01*
X3500729Y532536D01*
X3497681Y537464D01*
X3493566Y541528D01*
X3488690Y544626D01*
X3483203Y546557D01*
X3476904Y547268D01*
X3448761Y547268D01*
X3444900Y548030D01*
X3441598Y550214D01*
X3439363Y553516D01*
X3438601Y557428D01*
X3438601Y1205839D01*
X3437839Y1213866D01*
X3435604Y1221130D01*
X3432048Y1227785D01*
X3426968Y1233982D01*
X3202482Y1458468D01*
X3200298Y1461770D01*
X3199485Y1465630D01*
X3200298Y1469542D01*
X3202482Y1472844D01*
X3240379Y1510842D01*
X3243681Y1513078D01*
X3247593Y1513840D01*
X5996330Y1513840D01*
X5999988Y1513128D01*
X6003188Y1511147D01*
X6005423Y1508150D01*
X6009386Y1500124D01*
X6017006Y1488744D01*
X6025997Y1478432D01*
X6036310Y1469440D01*
X6047689Y1461820D01*
X6059982Y1455775D01*
X6072936Y1451356D01*
X6086348Y1448714D01*
X6100013Y1447800D01*
X6113678Y1448714D01*
X6127089Y1451356D01*
X6135573Y1454251D01*
X6139281Y1454759D01*
X6142939Y1453946D01*
X6146038Y1451813D01*
X6178346Y1419504D01*
X6184595Y1414373D01*
X6191250Y1410817D01*
X6198463Y1408633D01*
X6206490Y1407820D01*
X6634480Y1407820D01*
X6637832Y1407261D01*
X6640779Y1405585D01*
X6643827Y1401826D01*
X6645198Y1398320D01*
X6645198Y1394561D01*
X6643065Y1389786D01*
X6640779Y1387246D01*
X6637832Y1385620D01*
X6634429Y1385062D01*
X6161379Y1385062D01*
X6158433Y1385468D01*
X6155740Y1386738D01*
X6152337Y1389024D01*
X6140043Y1395069D01*
X6127089Y1399489D01*
X6113678Y1402181D01*
X6100013Y1403045D01*
X6086348Y1402181D01*
X6072936Y1399489D01*
X6059982Y1395069D01*
X6047689Y1389024D01*
X6036310Y1381455D01*
X6025997Y1372412D01*
X6017006Y1362100D01*
X6009386Y1350721D01*
X6006185Y1344269D01*
X6003950Y1341272D01*
X6000750Y1339291D01*
X5997092Y1338580D01*
X4320184Y1338580D01*
X4316272Y1339342D01*
X4312970Y1341577D01*
X4259122Y1395425D01*
X4257090Y1398270D01*
X4256176Y1401724D01*
X4255516Y1409801D01*
X4252925Y1419250D01*
X4248810Y1428191D01*
X4243171Y1436217D01*
X4236212Y1443177D01*
X4228185Y1448816D01*
X4219295Y1452930D01*
X4209796Y1455470D01*
X4199991Y1456334D01*
X4190237Y1455470D01*
X4180738Y1452930D01*
X4171848Y1448816D01*
X4163771Y1443177D01*
X4156811Y1436217D01*
X4151223Y1428191D01*
X4147058Y1419250D01*
X4144518Y1409801D01*
X4143654Y1399997D01*
X4144518Y1390192D01*
X4147058Y1380744D01*
X4151223Y1371803D01*
X4156811Y1363776D01*
X4163771Y1356817D01*
X4171848Y1351178D01*
X4180738Y1347063D01*
X4190237Y1344523D01*
X4198162Y1343812D01*
X4201566Y1342898D01*
X4204462Y1340866D01*
X4238193Y1307134D01*
X4240377Y1303883D01*
X4241139Y1299972D01*
X4240377Y1296060D01*
X4238193Y1292809D01*
X3673043Y727659D01*
X3667963Y721410D01*
X3664356Y714756D01*
X3662172Y707542D01*
X3661410Y699516D01*
X3661410Y557428D01*
X3660597Y553516D01*
X3658412Y550214D01*
X3655110Y548030D01*
X3651250Y547268D01*
X3623005Y547268D01*
X3616706Y546557D01*
X3611219Y544626D01*
X3606342Y541528D01*
X3602228Y537464D01*
X3599179Y532536D01*
X3597249Y527100D01*
X3596538Y520801D01*
X3596538Y421893D01*
X3597249Y415594D01*
X3599179Y410159D01*
X3602228Y405231D01*
X3606342Y401167D01*
X3611219Y398068D01*
X3616706Y396138D01*
X3623005Y395427D01*
X3763416Y395427D01*
X3767328Y394665D01*
X3770629Y392480D01*
X3772814Y389178D01*
X3773576Y385267D01*
X3772814Y381406D01*
X3770629Y378104D01*
X3742944Y350418D01*
X3739642Y348183D01*
X3735730Y347421D01*
X3023057Y347319D01*
X3016758Y346608D01*
X3011271Y344728D01*
X3006394Y341630D01*
X3002280Y337515D01*
X2999232Y332638D01*
X2997301Y327202D01*
X2996590Y320852D01*
X2996590Y221996D01*
X2997301Y215696D01*
X2999232Y210210D01*
X3002280Y205333D01*
X3006394Y201218D01*
X3011271Y198120D01*
X3016758Y196240D01*
X3023057Y195529D01*
X3476904Y195427D01*
X3479037Y195630D01*
X3620871Y195630D01*
X3623005Y195427D01*
X3776878Y195427D01*
X3783177Y196138D01*
X3785920Y197053D01*
X3793947Y199034D01*
X3796284Y199796D01*
X3804513Y203200D01*
X3806698Y204317D01*
X3814318Y208940D01*
X3823157Y216001D01*
X4099814Y492607D01*
X4103115Y494842D01*
X4107027Y495604D01*
X4129481Y495604D01*
X4133748Y494639D01*
X4137202Y492048D01*
X4139234Y488188D01*
X4139488Y483819D01*
X4137914Y479806D01*
X4132630Y471881D01*
X4126788Y460044D01*
X4122572Y447548D01*
X4119981Y434593D01*
X4119118Y421081D01*
X4119118Y321767D01*
X4119981Y308254D01*
X4122572Y295300D01*
X4126788Y282803D01*
X4132630Y270967D01*
X4139946Y259994D01*
X4148683Y250088D01*
X4158589Y241401D01*
X4169562Y234035D01*
X4181398Y228244D01*
X4193895Y223977D01*
X4206849Y221386D01*
X4220006Y220522D01*
X4233164Y221386D01*
X4246118Y223977D01*
X4258614Y228244D01*
X4270451Y234035D01*
X4281424Y241401D01*
X4291330Y250088D01*
X4300016Y259994D01*
X4307382Y270967D01*
X4313224Y282803D01*
X4317441Y295300D01*
X4320032Y308254D01*
X4320895Y321767D01*
X4320895Y418541D01*
X4321708Y422452D01*
X4323892Y425754D01*
X4327194Y427939D01*
X4331055Y428701D01*
X4334967Y427939D01*
X4338269Y425754D01*
X4381347Y382574D01*
X4383684Y378968D01*
X4384344Y374751D01*
X4384090Y371449D01*
X4385005Y356920D01*
X4387748Y342595D01*
X4392269Y328777D01*
X4398467Y315620D01*
X4406239Y303326D01*
X4415536Y292100D01*
X4426153Y282143D01*
X4437888Y273558D01*
X4450638Y266547D01*
X4464202Y261213D01*
X4478274Y257606D01*
X4492701Y255778D01*
X4507280Y255778D01*
X4521708Y257606D01*
X4535830Y261213D01*
X4549343Y266547D01*
X4562094Y273558D01*
X4573879Y282143D01*
X4584496Y292100D01*
X4593742Y303326D01*
X4601565Y315620D01*
X4607763Y328777D01*
X4612233Y342595D01*
X4614976Y356920D01*
X4615891Y371449D01*
X4614976Y385927D01*
X4612233Y400253D01*
X4607763Y414070D01*
X4601565Y427278D01*
X4593742Y439521D01*
X4584496Y450748D01*
X4573879Y460705D01*
X4562094Y469290D01*
X4549343Y476300D01*
X4535830Y481634D01*
X4521708Y485241D01*
X4507280Y487070D01*
X4495749Y487070D01*
X4491888Y487883D01*
X4488586Y490067D01*
X4351731Y627024D01*
X4344924Y632663D01*
X4342892Y634085D01*
X4333087Y639826D01*
X4322521Y643991D01*
X4313936Y646125D01*
X4311446Y646531D01*
X4302658Y647344D01*
X4068724Y647344D01*
X4059885Y646531D01*
X4057446Y646125D01*
X4048810Y643991D01*
X4046474Y643229D01*
X4038244Y639826D01*
X4036060Y638708D01*
X4028440Y634085D01*
X4019600Y627024D01*
X3820718Y428193D01*
X3817416Y425958D01*
X3813505Y425196D01*
X3809644Y425958D01*
X3806342Y428193D01*
X3804107Y431495D01*
X3803345Y435356D01*
X3803345Y520801D01*
X3802634Y527100D01*
X3800703Y532536D01*
X3797655Y537464D01*
X3793540Y541528D01*
X3788664Y544626D01*
X3783177Y546557D01*
X3776878Y547268D01*
X3748786Y547268D01*
X3744874Y548030D01*
X3741572Y550214D01*
X3739387Y553516D01*
X3738626Y557428D01*
X3738626Y679805D01*
X3739387Y683717D01*
X3741572Y686968D01*
X4312970Y1258366D01*
X4316272Y1260602D01*
X4320184Y1261364D01*
X5995568Y1261364D01*
X5999226Y1260652D01*
X6002426Y1258671D01*
X6004661Y1255674D01*
X6009386Y1246124D01*
X6017006Y1234744D01*
X6025997Y1224432D01*
X6036310Y1215440D01*
X6047689Y1207820D01*
X6059982Y1201775D01*
X6072936Y1197356D01*
X6086348Y1194714D01*
X6100013Y1193800D01*
X6113678Y1194714D01*
X6127089Y1197356D01*
X6140602Y1201978D01*
X6145123Y1202436D01*
X6149340Y1200912D01*
X6152489Y1197711D01*
X6153962Y1193444D01*
X6153454Y1188974D01*
X6151067Y1185164D01*
X6117285Y1151382D01*
X6113678Y1149045D01*
X6109462Y1148435D01*
X6100013Y1149045D01*
X6086348Y1148181D01*
X6072936Y1145489D01*
X6059982Y1141069D01*
X6047689Y1135024D01*
X6036310Y1127455D01*
X6025997Y1118412D01*
X6017006Y1108100D01*
X6009386Y1096721D01*
X6003340Y1084478D01*
X5998921Y1071524D01*
X5996279Y1058062D01*
X5995822Y1051153D01*
X5994908Y1047597D01*
X5992876Y1044600D01*
X5644489Y696163D01*
X5638800Y689305D01*
X5637377Y687324D01*
X5632805Y679704D01*
X5631688Y677519D01*
X5628284Y669290D01*
X5627522Y666953D01*
X5625388Y658317D01*
X5624982Y655929D01*
X5624118Y647039D01*
X5624068Y157480D01*
X5623306Y153619D01*
X5621121Y150317D01*
X5617819Y148132D01*
X5613908Y147320D01*
X4886045Y147320D01*
X4882184Y148132D01*
X4878882Y150317D01*
X4876698Y153619D01*
X4875885Y157480D01*
X4875885Y279654D01*
X4876749Y283667D01*
X4879086Y287070D01*
X4884470Y292100D01*
X4893767Y303326D01*
X4901539Y315620D01*
X4907737Y328777D01*
X4912258Y342595D01*
X4914950Y356920D01*
X4915865Y371449D01*
X4914950Y385927D01*
X4912258Y400253D01*
X4907737Y414070D01*
X4901539Y427278D01*
X4893767Y439521D01*
X4884470Y450748D01*
X4873853Y460705D01*
X4862118Y469290D01*
X4849368Y476300D01*
X4835804Y481634D01*
X4821732Y485241D01*
X4807254Y487070D01*
X4792726Y487070D01*
X4778298Y485241D01*
X4764176Y481634D01*
X4750663Y476300D01*
X4737912Y469290D01*
X4726127Y460705D01*
X4715510Y450748D01*
X4706264Y439521D01*
X4698441Y427278D01*
X4692243Y414070D01*
X4687773Y400253D01*
X4685030Y385927D01*
X4684115Y371449D01*
X4685030Y356920D01*
X4687773Y342595D01*
X4692243Y328777D01*
X4698441Y315620D01*
X4706264Y303326D01*
X4715510Y292100D01*
X4720894Y287070D01*
X4723231Y283667D01*
X4724095Y279654D01*
X4724095Y157480D01*
X4723333Y153619D01*
X4721098Y150317D01*
X4717796Y148132D01*
X4713935Y147320D01*
X2220722Y147320D01*
X2218232Y147624D01*
X2210358Y149606D01*
X2207920Y150012D01*
X2199081Y150876D01*
X985672Y150926D01*
X981760Y151688D01*
X978458Y153873D01*
X924864Y207467D01*
X922680Y210769D01*
X921918Y214629D01*
X921918Y248716D01*
X922528Y252221D01*
X924306Y255270D01*
X928166Y259892D01*
X935532Y271373D01*
X941273Y283718D01*
X945286Y296773D01*
X947572Y310184D01*
X948029Y323850D01*
X946658Y337413D01*
X943508Y350672D01*
X938580Y363423D01*
X932027Y375361D01*
X923899Y386435D01*
X922426Y389280D01*
X921918Y392480D01*
X921918Y2610358D01*
X922680Y2614218D01*
X924864Y2617520D01*
X1342898Y3035554D01*
X1346200Y3037738D01*
X1350060Y3038500D01*
X1790192Y3038500D01*
X1793798Y3037840D01*
X1796999Y3035909D01*
X1798726Y3034334D01*
X1809953Y3026613D01*
X1822145Y3020466D01*
X1835048Y3015945D01*
X1848408Y3013252D01*
X1862023Y3012338D01*
X1875586Y3013252D01*
X1888947Y3015945D01*
X1900834Y3020110D01*
X1904085Y3020669D01*
X2680411Y3024784D01*
X2685237Y3023717D01*
X2691587Y3023006D01*
X2936951Y3023006D01*
X2943250Y3023717D01*
X2948736Y3025648D01*
X2953613Y3028696D01*
X2957728Y3032810D01*
X2960776Y3037687D01*
X2962706Y3043174D01*
X2963418Y3049473D01*
X2963418Y3153359D01*
X2962706Y3159658D01*
X2960776Y3165144D01*
X2957728Y3170021D01*
X2953613Y3174136D01*
X2948736Y3177235D01*
X2943250Y3179114D01*
X2936951Y3179826D01*
X2691587Y3179826D01*
X2685237Y3179114D01*
X2679649Y3177184D01*
X2676347Y3176574D01*
X1950770Y3172714D01*
X1947621Y3173171D01*
X1944776Y3174593D01*
X1942541Y3176828D01*
X1939950Y3180334D01*
X1930501Y3190138D01*
X1919782Y3198571D01*
X1908048Y3205530D01*
X1895500Y3210864D01*
X1882343Y3214471D01*
X1868830Y3216300D01*
X1855165Y3216300D01*
X1841652Y3214471D01*
X1828495Y3210864D01*
X1815947Y3205530D01*
X1804212Y3198571D01*
X1796542Y3192526D01*
X1793595Y3190900D01*
X1790242Y3190341D01*
X1311757Y3190290D01*
X1302918Y3189478D01*
X1291894Y3186887D01*
X1289558Y3186125D01*
X1281328Y3182721D01*
X1279144Y3181604D01*
X1271524Y3177032D01*
X1269492Y3175609D01*
X1262684Y3169920D01*
X790498Y2697784D01*
X784809Y2690926D01*
X783386Y2688894D01*
X778814Y2681274D01*
X777697Y2679090D01*
X774293Y2670911D01*
X773531Y2668574D01*
X771398Y2659938D01*
X770991Y2657500D01*
X770128Y2648661D01*
X770077Y392480D01*
X769569Y389280D01*
X768096Y386435D01*
X759968Y375361D01*
X753414Y363423D01*
X748487Y350672D01*
X745337Y337413D01*
X743966Y323850D01*
X744423Y310184D01*
X746709Y296773D01*
X750722Y283718D01*
X756462Y271373D01*
X763828Y259892D01*
X767689Y255270D01*
X769467Y252221D01*
X770077Y248716D01*
X770128Y176377D01*
X770991Y167487D01*
X771398Y165100D01*
X773531Y156464D01*
X774293Y154127D01*
X777697Y145897D01*
X778814Y143713D01*
X783386Y136093D01*
X784809Y134061D01*
X790498Y127254D01*
X874420Y43230D01*
X876604Y39979D01*
X877366Y36068D01*
X876604Y32156D01*
X874420Y28905D01*
X871118Y26670D01*
X867206Y25908D01*
G37*

%LPC*%
G36*
X6145733Y2185771D02*
G01*
X6178194Y2185771D01*
X6184493Y2186482D01*
X6189929Y2188413D01*
X6194856Y2191461D01*
X6198920Y2195576D01*
X6202019Y2200452D01*
X6203950Y2205939D01*
X6204661Y2212238D01*
X6204661Y2244699D01*
X6145733Y2244699D01*
G37*
G36*
X2704134Y3715308D02*
G01*
X2758643Y3715308D01*
X2758643Y3767378D01*
X2730601Y3767378D01*
X2724251Y3766667D01*
X2718816Y3764787D01*
X2713888Y3761689D01*
X2709824Y3757574D01*
X2706725Y3752697D01*
X2704846Y3747211D01*
X2704134Y3740912D01*
G37*
G36*
X2841345Y3715308D02*
G01*
X2895904Y3715308D01*
X2895904Y3740912D01*
X2895193Y3747211D01*
X2893263Y3752697D01*
X2890164Y3757574D01*
X2886100Y3761689D01*
X2881172Y3764787D01*
X2875737Y3766667D01*
X2869387Y3767378D01*
X2841345Y3767378D01*
G37*
G36*
X2730601Y175463D02*
G01*
X2758643Y175463D01*
X2758643Y227533D01*
X2704134Y227533D01*
X2704134Y201930D01*
X2704846Y195630D01*
X2706725Y190144D01*
X2709824Y185267D01*
X2713888Y181152D01*
X2718816Y178104D01*
X2724251Y176174D01*
G37*
G36*
X2841345Y175463D02*
G01*
X2869387Y175463D01*
X2875737Y176174D01*
X2881172Y178104D01*
X2886100Y181152D01*
X2890164Y185267D01*
X2893263Y190144D01*
X2895193Y195630D01*
X2895904Y201930D01*
X2895904Y227533D01*
X2841345Y227533D01*
G37*
G36*
X246227Y3666896D02*
G01*
X293573Y3666896D01*
X293573Y3714191D01*
X291947Y3713530D01*
X280212Y3706571D01*
X269544Y3698138D01*
X260045Y3688334D01*
X251967Y3677361D01*
G37*
G36*
X382473Y3666896D02*
G01*
X429768Y3666896D01*
X424027Y3677361D01*
X415950Y3688334D01*
X406501Y3698138D01*
X395782Y3706571D01*
X384048Y3713530D01*
X382473Y3714191D01*
G37*
G36*
X1862023Y218338D02*
G01*
X1875586Y219252D01*
X1888947Y221945D01*
X1901850Y226466D01*
X1914042Y232613D01*
X1925269Y240334D01*
X1935378Y249478D01*
X1944166Y259892D01*
X1951532Y271373D01*
X1957273Y283718D01*
X1961286Y296773D01*
X1963572Y310184D01*
X1964029Y323850D01*
X1962657Y337413D01*
X1959508Y350672D01*
X1954580Y363423D01*
X1948027Y375361D01*
X1939950Y386334D01*
X1930501Y396138D01*
X1919782Y404571D01*
X1908048Y411530D01*
X1895500Y416864D01*
X1882343Y420471D01*
X1868830Y422300D01*
X1855165Y422300D01*
X1841652Y420471D01*
X1828495Y416864D01*
X1815947Y411530D01*
X1804212Y404571D01*
X1793544Y396138D01*
X1784045Y386334D01*
X1775968Y375361D01*
X1769414Y363423D01*
X1764487Y350672D01*
X1761337Y337413D01*
X1759966Y323850D01*
X1760423Y310184D01*
X1762709Y296773D01*
X1766722Y283718D01*
X1772462Y271373D01*
X1779828Y259892D01*
X1788617Y249478D01*
X1798726Y240334D01*
X1809953Y232613D01*
X1822145Y226466D01*
X1835048Y221945D01*
X1848408Y219252D01*
G37*
G36*
X1608023Y218338D02*
G01*
X1621586Y219252D01*
X1634947Y221945D01*
X1647850Y226466D01*
X1660042Y232613D01*
X1671269Y240334D01*
X1681378Y249478D01*
X1690166Y259892D01*
X1697532Y271373D01*
X1703273Y283718D01*
X1707286Y296773D01*
X1709572Y310184D01*
X1710029Y323850D01*
X1708657Y337413D01*
X1705508Y350672D01*
X1700580Y363423D01*
X1694027Y375361D01*
X1685950Y386334D01*
X1676501Y396138D01*
X1665782Y404571D01*
X1654048Y411530D01*
X1641500Y416864D01*
X1628343Y420471D01*
X1614830Y422300D01*
X1601165Y422300D01*
X1587652Y420471D01*
X1574495Y416864D01*
X1561947Y411530D01*
X1550212Y404571D01*
X1539544Y396138D01*
X1530045Y386334D01*
X1521968Y375361D01*
X1515414Y363423D01*
X1510487Y350672D01*
X1507337Y337413D01*
X1505966Y323850D01*
X1506423Y310184D01*
X1508709Y296773D01*
X1512722Y283718D01*
X1518462Y271373D01*
X1525828Y259892D01*
X1534617Y249478D01*
X1544726Y240334D01*
X1555953Y232613D01*
X1568145Y226466D01*
X1581048Y221945D01*
X1594408Y219252D01*
G37*
G36*
X592023Y218338D02*
G01*
X605586Y219252D01*
X618947Y221945D01*
X631850Y226466D01*
X644042Y232613D01*
X655269Y240334D01*
X665378Y249478D01*
X674166Y259892D01*
X681532Y271373D01*
X687273Y283718D01*
X691286Y296773D01*
X693572Y310184D01*
X694029Y323850D01*
X692658Y337413D01*
X689508Y350672D01*
X684580Y363423D01*
X678027Y375361D01*
X669950Y386334D01*
X660501Y396138D01*
X649782Y404571D01*
X638048Y411530D01*
X625500Y416864D01*
X612343Y420471D01*
X598830Y422300D01*
X585165Y422300D01*
X571652Y420471D01*
X558495Y416864D01*
X545947Y411530D01*
X534212Y404571D01*
X523544Y396138D01*
X514045Y386334D01*
X505968Y375361D01*
X499414Y363423D01*
X494487Y350672D01*
X491337Y337413D01*
X489966Y323850D01*
X490423Y310184D01*
X492709Y296773D01*
X496722Y283718D01*
X502462Y271373D01*
X509828Y259892D01*
X518617Y249478D01*
X528726Y240334D01*
X539953Y232613D01*
X552145Y226466D01*
X565048Y221945D01*
X578408Y219252D01*
G37*
G36*
X1354023Y218338D02*
G01*
X1367586Y219252D01*
X1380947Y221945D01*
X1393850Y226466D01*
X1406042Y232613D01*
X1417269Y240334D01*
X1427378Y249478D01*
X1436166Y259892D01*
X1443532Y271373D01*
X1449273Y283718D01*
X1453286Y296773D01*
X1455572Y310184D01*
X1456029Y323850D01*
X1454658Y337413D01*
X1451508Y350672D01*
X1446580Y363423D01*
X1440027Y375361D01*
X1431950Y386334D01*
X1422501Y396138D01*
X1411782Y404571D01*
X1400048Y411530D01*
X1387500Y416864D01*
X1374343Y420471D01*
X1360830Y422300D01*
X1347165Y422300D01*
X1333652Y420471D01*
X1320495Y416864D01*
X1307947Y411530D01*
X1296212Y404571D01*
X1285544Y396138D01*
X1276045Y386334D01*
X1267968Y375361D01*
X1261414Y363423D01*
X1256487Y350672D01*
X1253337Y337413D01*
X1251966Y323850D01*
X1252423Y310184D01*
X1254709Y296773D01*
X1258722Y283718D01*
X1264462Y271373D01*
X1271828Y259892D01*
X1280617Y249478D01*
X1290726Y240334D01*
X1301953Y232613D01*
X1314145Y226466D01*
X1327048Y221945D01*
X1340408Y219252D01*
G37*
G36*
X5380024Y220522D02*
G01*
X5393182Y221386D01*
X5406136Y223977D01*
X5418582Y228244D01*
X5430418Y234035D01*
X5441391Y241401D01*
X5451348Y250088D01*
X5460034Y259994D01*
X5467350Y270967D01*
X5473192Y282803D01*
X5477459Y295300D01*
X5479999Y308254D01*
X5480913Y321767D01*
X5480913Y421081D01*
X5479999Y434593D01*
X5477459Y447548D01*
X5473192Y460044D01*
X5467350Y471881D01*
X5460034Y482854D01*
X5451348Y492759D01*
X5441391Y501446D01*
X5430418Y508812D01*
X5418582Y514654D01*
X5406136Y518871D01*
X5393182Y521462D01*
X5380024Y522325D01*
X5366816Y521462D01*
X5353913Y518871D01*
X5341416Y514654D01*
X5329580Y508812D01*
X5318607Y501446D01*
X5308650Y492759D01*
X5299964Y482854D01*
X5292648Y471881D01*
X5286806Y460044D01*
X5282539Y447548D01*
X5279999Y434593D01*
X5279085Y421081D01*
X5279085Y321767D01*
X5279999Y308254D01*
X5282539Y295300D01*
X5286806Y282803D01*
X5292648Y270967D01*
X5299964Y259994D01*
X5308650Y250088D01*
X5318607Y241401D01*
X5329580Y234035D01*
X5341416Y228244D01*
X5353913Y223977D01*
X5366816Y221386D01*
G37*
G36*
X2841345Y3585514D02*
G01*
X2869387Y3585514D01*
X2875737Y3586226D01*
X2881172Y3588156D01*
X2886100Y3591204D01*
X2890164Y3595319D01*
X2893263Y3600196D01*
X2895193Y3605682D01*
X2895904Y3611981D01*
X2895904Y3637584D01*
X2841345Y3637584D01*
G37*
G36*
X1144473Y228752D02*
G01*
X1152042Y232613D01*
X1163269Y240334D01*
X1173378Y249478D01*
X1182166Y259892D01*
X1189532Y271373D01*
X1191666Y275996D01*
X1144473Y275996D01*
G37*
G36*
X1055573Y228752D02*
G01*
X1055573Y275996D01*
X1008329Y275996D01*
X1010462Y271373D01*
X1017828Y259892D01*
X1026617Y249478D01*
X1036726Y240334D01*
X1047953Y232613D01*
G37*
G36*
X338023Y231038D02*
G01*
X351586Y231952D01*
X364947Y234645D01*
X377850Y239166D01*
X390042Y245313D01*
X401269Y253034D01*
X411378Y262178D01*
X420166Y272592D01*
X427532Y284073D01*
X433273Y296418D01*
X437286Y309473D01*
X439572Y322884D01*
X440029Y336550D01*
X438658Y350113D01*
X435508Y363372D01*
X430580Y376123D01*
X424027Y388061D01*
X415950Y399034D01*
X406501Y408838D01*
X395782Y417271D01*
X384048Y424230D01*
X371500Y429564D01*
X358343Y433171D01*
X344830Y435000D01*
X331165Y435000D01*
X317652Y433171D01*
X304495Y429564D01*
X291947Y424230D01*
X280212Y417271D01*
X269544Y408838D01*
X260045Y399034D01*
X251967Y388061D01*
X245414Y376123D01*
X240487Y363372D01*
X237337Y350113D01*
X235966Y336550D01*
X236423Y322884D01*
X238709Y309473D01*
X242722Y296418D01*
X248462Y284073D01*
X255828Y272592D01*
X264617Y262178D01*
X274726Y253034D01*
X285953Y245313D01*
X298145Y239166D01*
X311048Y234645D01*
X324408Y231952D01*
G37*
G36*
X5092700Y255778D02*
G01*
X5107279Y255778D01*
X5121706Y257606D01*
X5135829Y261213D01*
X5149342Y266547D01*
X5162092Y273558D01*
X5173878Y282143D01*
X5184495Y292100D01*
X5193741Y303326D01*
X5201564Y315620D01*
X5207762Y328777D01*
X5212232Y342595D01*
X5214975Y356920D01*
X5215890Y371449D01*
X5214975Y385927D01*
X5212232Y400253D01*
X5207762Y414070D01*
X5201564Y427278D01*
X5193741Y439521D01*
X5184495Y450748D01*
X5173878Y460705D01*
X5162092Y469290D01*
X5149342Y476300D01*
X5135829Y481634D01*
X5121706Y485241D01*
X5107279Y487070D01*
X5092700Y487070D01*
X5078272Y485241D01*
X5064201Y481634D01*
X5050637Y476300D01*
X5037886Y469290D01*
X5026152Y460705D01*
X5015534Y450748D01*
X5006238Y439521D01*
X4998466Y427278D01*
X4992268Y414070D01*
X4987747Y400253D01*
X4985004Y385927D01*
X4984089Y371449D01*
X4985004Y356920D01*
X4987747Y342595D01*
X4992268Y328777D01*
X4998466Y315620D01*
X5006238Y303326D01*
X5015534Y292100D01*
X5026152Y282143D01*
X5037886Y273558D01*
X5050637Y266547D01*
X5064201Y261213D01*
X5078272Y257606D01*
G37*
G36*
X2730601Y3585514D02*
G01*
X2758643Y3585514D01*
X2758643Y3637584D01*
X2704134Y3637584D01*
X2704134Y3611981D01*
X2704846Y3605682D01*
X2706725Y3600196D01*
X2709824Y3595319D01*
X2713888Y3591204D01*
X2718816Y3588156D01*
X2724251Y3586226D01*
G37*
G36*
X2841345Y305257D02*
G01*
X2895904Y305257D01*
X2895904Y330860D01*
X2895193Y337159D01*
X2893263Y342646D01*
X2890164Y347522D01*
X2886100Y351637D01*
X2881172Y354685D01*
X2875737Y356616D01*
X2869387Y357327D01*
X2841345Y357327D01*
G37*
G36*
X2704134Y305257D02*
G01*
X2758643Y305257D01*
X2758643Y357327D01*
X2730601Y357327D01*
X2724251Y356616D01*
X2718816Y354685D01*
X2713888Y351637D01*
X2709824Y347522D01*
X2706725Y342646D01*
X2704846Y337159D01*
X2704134Y330860D01*
G37*
G36*
X1144473Y364896D02*
G01*
X1191768Y364896D01*
X1186027Y375361D01*
X1177950Y386334D01*
X1168501Y396138D01*
X1157782Y404571D01*
X1146048Y411530D01*
X1144473Y412191D01*
G37*
G36*
X1008227Y364896D02*
G01*
X1055573Y364896D01*
X1055573Y412191D01*
X1053947Y411530D01*
X1042212Y404571D01*
X1031544Y396138D01*
X1022045Y386334D01*
X1013968Y375361D01*
G37*
G36*
X2730601Y385521D02*
G01*
X2869387Y385521D01*
X2875737Y386232D01*
X2881172Y388162D01*
X2886100Y391210D01*
X2890164Y395325D01*
X2893263Y400202D01*
X2895193Y405688D01*
X2895904Y411988D01*
X2895904Y422656D01*
X2896666Y426567D01*
X2898851Y429869D01*
X2902153Y432054D01*
X2906064Y432816D01*
X2986430Y432816D01*
X2990088Y432155D01*
X2993237Y430174D01*
X2995523Y427228D01*
X2996539Y423672D01*
X2997352Y415594D01*
X2999232Y410209D01*
X3002280Y405333D01*
X3006394Y401218D01*
X3011271Y398119D01*
X3016758Y396240D01*
X3023057Y395528D01*
X3176930Y395528D01*
X3183229Y396240D01*
X3188716Y398119D01*
X3193592Y401218D01*
X3197707Y405333D01*
X3200806Y410209D01*
X3202686Y415696D01*
X3203397Y421995D01*
X3203397Y520852D01*
X3202686Y527202D01*
X3200806Y532638D01*
X3197707Y537514D01*
X3193592Y541629D01*
X3188716Y544728D01*
X3183229Y546608D01*
X3176930Y547319D01*
X3023057Y547319D01*
X3016758Y546608D01*
X3011271Y544728D01*
X3006394Y541629D01*
X3002280Y537514D01*
X2999232Y532638D01*
X2997352Y527253D01*
X2996539Y519226D01*
X2995523Y515620D01*
X2993237Y512673D01*
X2990088Y510743D01*
X2986430Y510032D01*
X2906064Y510032D01*
X2902153Y510793D01*
X2898851Y513029D01*
X2896666Y516331D01*
X2895904Y520192D01*
X2895904Y540918D01*
X2895193Y547217D01*
X2893263Y552704D01*
X2890164Y557580D01*
X2886100Y561695D01*
X2881172Y564743D01*
X2875737Y566674D01*
X2869387Y567385D01*
X2730601Y567385D01*
X2724251Y566674D01*
X2718816Y564743D01*
X2713888Y561695D01*
X2709824Y557580D01*
X2706725Y552704D01*
X2704846Y547217D01*
X2704134Y540918D01*
X2704134Y411988D01*
X2704846Y405688D01*
X2706725Y400202D01*
X2709824Y395325D01*
X2713888Y391210D01*
X2718816Y388162D01*
X2724251Y386232D01*
G37*
G36*
X382473Y3530752D02*
G01*
X390042Y3534613D01*
X401269Y3542334D01*
X411378Y3551478D01*
X420166Y3561892D01*
X427532Y3573373D01*
X429666Y3577996D01*
X382473Y3577996D01*
G37*
G36*
X293573Y3530752D02*
G01*
X293573Y3577996D01*
X246329Y3577996D01*
X248462Y3573373D01*
X255828Y3561892D01*
X264617Y3551478D01*
X274726Y3542334D01*
X285953Y3534613D01*
G37*
G36*
X4792726Y3455771D02*
G01*
X4807254Y3455771D01*
X4821732Y3457600D01*
X4835804Y3461207D01*
X4849368Y3466592D01*
X4862118Y3473602D01*
X4873853Y3482136D01*
X4884470Y3492093D01*
X4893767Y3503320D01*
X4901539Y3515614D01*
X4907737Y3528771D01*
X4912258Y3542588D01*
X4914950Y3556914D01*
X4915865Y3571443D01*
X4914950Y3585972D01*
X4912258Y3600246D01*
X4907737Y3614064D01*
X4901539Y3627272D01*
X4893767Y3639565D01*
X4884470Y3650742D01*
X4879086Y3655822D01*
X4876749Y3659174D01*
X4875885Y3663187D01*
X4875885Y3785362D01*
X4876698Y3789222D01*
X4878882Y3792524D01*
X4882184Y3794760D01*
X4886045Y3795522D01*
X5618734Y3795522D01*
X5630418Y3796385D01*
X5641492Y3798925D01*
X5652008Y3803040D01*
X5661863Y3808729D01*
X5670702Y3815791D01*
X5678424Y3824122D01*
X5684824Y3833469D01*
X5689752Y3843680D01*
X5693105Y3854551D01*
X5694781Y3865778D01*
X5694781Y3877106D01*
X5693105Y3888333D01*
X5689752Y3899154D01*
X5684824Y3909364D01*
X5678424Y3918712D01*
X5670702Y3927043D01*
X5661863Y3934104D01*
X5652008Y3939794D01*
X5641492Y3943908D01*
X5630418Y3946448D01*
X5618734Y3947312D01*
X2108352Y3947261D01*
X2099513Y3946448D01*
X2097074Y3946042D01*
X2088438Y3943908D01*
X2086102Y3943146D01*
X2077923Y3939743D01*
X2075688Y3938625D01*
X2068068Y3934053D01*
X2066086Y3932631D01*
X2059228Y3926941D01*
X1859127Y3726942D01*
X1856486Y3725011D01*
X1853336Y3724046D01*
X1841652Y3722471D01*
X1828495Y3718864D01*
X1815947Y3713530D01*
X1804212Y3706571D01*
X1793544Y3698138D01*
X1784045Y3688334D01*
X1775968Y3677361D01*
X1769414Y3665423D01*
X1764487Y3652672D01*
X1761337Y3639413D01*
X1759966Y3625850D01*
X1760423Y3612184D01*
X1762709Y3598773D01*
X1766722Y3585718D01*
X1772462Y3573373D01*
X1779828Y3561892D01*
X1788617Y3551478D01*
X1798726Y3542334D01*
X1809953Y3534613D01*
X1822145Y3528466D01*
X1835048Y3523945D01*
X1848408Y3521252D01*
X1862023Y3520338D01*
X1875586Y3521252D01*
X1888947Y3523945D01*
X1901850Y3528466D01*
X1914042Y3534613D01*
X1925269Y3542334D01*
X1935378Y3551478D01*
X1944166Y3561892D01*
X1951532Y3573373D01*
X1957273Y3585718D01*
X1961286Y3598773D01*
X1963572Y3612794D01*
X1964436Y3616502D01*
X1966569Y3619652D01*
X2139492Y3792524D01*
X2142744Y3794760D01*
X2146655Y3795522D01*
X4713935Y3795522D01*
X4717796Y3794760D01*
X4721098Y3792524D01*
X4723333Y3789222D01*
X4724095Y3785362D01*
X4724095Y3663187D01*
X4723231Y3659174D01*
X4720894Y3655771D01*
X4715510Y3650742D01*
X4706264Y3639565D01*
X4698441Y3627272D01*
X4692243Y3614064D01*
X4687773Y3600246D01*
X4685030Y3585972D01*
X4684115Y3571443D01*
X4685030Y3556914D01*
X4687773Y3542588D01*
X4692243Y3528771D01*
X4698441Y3515614D01*
X4706264Y3503320D01*
X4715510Y3492093D01*
X4726127Y3482136D01*
X4737912Y3473602D01*
X4750663Y3466592D01*
X4764176Y3461207D01*
X4778298Y3457600D01*
G37*
G36*
X1862023Y472338D02*
G01*
X1875586Y473252D01*
X1888947Y475945D01*
X1901850Y480466D01*
X1914042Y486613D01*
X1925269Y494334D01*
X1935378Y503478D01*
X1944166Y513892D01*
X1951532Y525373D01*
X1957273Y537718D01*
X1961286Y550773D01*
X1963572Y564184D01*
X1964029Y577850D01*
X1962657Y591413D01*
X1959508Y604672D01*
X1954580Y617423D01*
X1948027Y629361D01*
X1939950Y640334D01*
X1930501Y650138D01*
X1919782Y658571D01*
X1908048Y665530D01*
X1895500Y670864D01*
X1882343Y674471D01*
X1868830Y676300D01*
X1855165Y676300D01*
X1841652Y674471D01*
X1828495Y670864D01*
X1815947Y665530D01*
X1804212Y658571D01*
X1793544Y650138D01*
X1784045Y640334D01*
X1775968Y629361D01*
X1769414Y617423D01*
X1764487Y604672D01*
X1761337Y591413D01*
X1759966Y577850D01*
X1760423Y564184D01*
X1762709Y550773D01*
X1766722Y537718D01*
X1772462Y525373D01*
X1779828Y513892D01*
X1788617Y503478D01*
X1798726Y494334D01*
X1809953Y486613D01*
X1822145Y480466D01*
X1835048Y475945D01*
X1848408Y473252D01*
G37*
G36*
X338023Y472338D02*
G01*
X351586Y473252D01*
X364947Y475945D01*
X377850Y480466D01*
X390042Y486613D01*
X401269Y494334D01*
X411378Y503478D01*
X420166Y513892D01*
X427532Y525373D01*
X433273Y537718D01*
X437286Y550773D01*
X439572Y564184D01*
X440029Y577850D01*
X438658Y591413D01*
X435508Y604672D01*
X430580Y617423D01*
X424027Y629361D01*
X415950Y640334D01*
X406501Y650138D01*
X395782Y658571D01*
X384048Y665530D01*
X371500Y670864D01*
X358343Y674471D01*
X344830Y676300D01*
X331165Y676300D01*
X317652Y674471D01*
X304495Y670864D01*
X291947Y665530D01*
X280212Y658571D01*
X269544Y650138D01*
X260045Y640334D01*
X251967Y629361D01*
X245414Y617423D01*
X240487Y604672D01*
X237337Y591413D01*
X235966Y577850D01*
X236423Y564184D01*
X238709Y550773D01*
X242722Y537718D01*
X248462Y525373D01*
X255828Y513892D01*
X264617Y503478D01*
X274726Y494334D01*
X285953Y486613D01*
X298145Y480466D01*
X311048Y475945D01*
X324408Y473252D01*
G37*
G36*
X5092700Y3455771D02*
G01*
X5107279Y3455771D01*
X5121706Y3457600D01*
X5135829Y3461207D01*
X5149342Y3466592D01*
X5162092Y3473602D01*
X5173878Y3482136D01*
X5184495Y3492093D01*
X5193741Y3503320D01*
X5201564Y3515614D01*
X5207762Y3528771D01*
X5212232Y3542588D01*
X5214975Y3556914D01*
X5215890Y3571443D01*
X5214975Y3585972D01*
X5212232Y3600246D01*
X5207762Y3614064D01*
X5201564Y3627272D01*
X5193741Y3639565D01*
X5184495Y3650742D01*
X5173878Y3660698D01*
X5162092Y3669284D01*
X5149342Y3676294D01*
X5135829Y3681628D01*
X5121706Y3685286D01*
X5107279Y3687064D01*
X5092700Y3687064D01*
X5078272Y3685286D01*
X5064201Y3681628D01*
X5050637Y3676294D01*
X5037886Y3669284D01*
X5026152Y3660698D01*
X5015534Y3650742D01*
X5006238Y3639565D01*
X4998466Y3627272D01*
X4992268Y3614064D01*
X4987747Y3600246D01*
X4985004Y3585972D01*
X4984089Y3571443D01*
X4985004Y3556914D01*
X4987747Y3542588D01*
X4992268Y3528771D01*
X4998466Y3515614D01*
X5006238Y3503320D01*
X5015534Y3492093D01*
X5026152Y3482136D01*
X5037886Y3473602D01*
X5050637Y3466592D01*
X5064201Y3461207D01*
X5078272Y3457600D01*
G37*
G36*
X6145733Y685800D02*
G01*
X6178194Y685800D01*
X6184493Y686511D01*
X6189929Y688390D01*
X6194856Y691489D01*
X6198920Y695553D01*
X6202019Y700481D01*
X6203950Y705916D01*
X6204661Y712266D01*
X6204661Y744728D01*
X6145733Y744728D01*
G37*
G36*
X6021832Y685800D02*
G01*
X6054293Y685800D01*
X6054293Y744728D01*
X5995365Y744728D01*
X5995365Y712266D01*
X5996076Y705916D01*
X5997956Y700481D01*
X6001054Y695553D01*
X6005169Y691489D01*
X6010046Y688390D01*
X6015532Y686511D01*
G37*
G36*
X1862023Y726338D02*
G01*
X1875586Y727252D01*
X1888947Y729945D01*
X1901850Y734466D01*
X1914042Y740613D01*
X1925269Y748334D01*
X1935378Y757478D01*
X1944166Y767892D01*
X1951532Y779373D01*
X1957273Y791718D01*
X1961286Y804773D01*
X1963572Y818184D01*
X1964029Y831850D01*
X1962657Y845413D01*
X1959508Y858672D01*
X1954580Y871423D01*
X1948027Y883361D01*
X1939950Y894334D01*
X1930501Y904138D01*
X1919782Y912571D01*
X1908048Y919530D01*
X1895500Y924864D01*
X1882343Y928471D01*
X1868830Y930300D01*
X1855165Y930300D01*
X1841652Y928471D01*
X1828495Y924864D01*
X1815947Y919530D01*
X1804212Y912571D01*
X1793544Y904138D01*
X1784045Y894334D01*
X1775968Y883361D01*
X1769414Y871423D01*
X1764487Y858672D01*
X1761337Y845413D01*
X1759966Y831850D01*
X1760423Y818184D01*
X1762709Y804773D01*
X1766722Y791718D01*
X1772462Y779373D01*
X1779828Y767892D01*
X1788617Y757478D01*
X1798726Y748334D01*
X1809953Y740613D01*
X1822145Y734466D01*
X1835048Y729945D01*
X1848408Y727252D01*
G37*
G36*
X338023Y726338D02*
G01*
X351586Y727252D01*
X364947Y729945D01*
X377850Y734466D01*
X390042Y740613D01*
X401269Y748334D01*
X411378Y757478D01*
X420166Y767892D01*
X427532Y779373D01*
X433273Y791718D01*
X437286Y804773D01*
X439572Y818184D01*
X440029Y831850D01*
X438658Y845413D01*
X435508Y858672D01*
X430580Y871423D01*
X424027Y883361D01*
X415950Y894334D01*
X406501Y904138D01*
X395782Y912571D01*
X384048Y919530D01*
X371500Y924864D01*
X358343Y928471D01*
X344830Y930300D01*
X331165Y930300D01*
X317652Y928471D01*
X304495Y924864D01*
X291947Y919530D01*
X280212Y912571D01*
X269544Y904138D01*
X260045Y894334D01*
X251967Y883361D01*
X245414Y871423D01*
X240487Y858672D01*
X237337Y845413D01*
X235966Y831850D01*
X236423Y818184D01*
X238709Y804773D01*
X242722Y791718D01*
X248462Y779373D01*
X255828Y767892D01*
X264617Y757478D01*
X274726Y748334D01*
X285953Y740613D01*
X298145Y734466D01*
X311048Y729945D01*
X324408Y727252D01*
G37*
G36*
X6145733Y836168D02*
G01*
X6204661Y836168D01*
X6204661Y868578D01*
X6203950Y874928D01*
X6202019Y880364D01*
X6198920Y885291D01*
X6194856Y889355D01*
X6189929Y892454D01*
X6184493Y894384D01*
X6178194Y895096D01*
X6145733Y895096D01*
G37*
G36*
X7040575Y930503D02*
G01*
X7219442Y930503D01*
X7225741Y931214D01*
X7231227Y933145D01*
X7236104Y936193D01*
X7240219Y940308D01*
X7243267Y945184D01*
X7245197Y950671D01*
X7245908Y956970D01*
X7245908Y1075842D01*
X7245197Y1082192D01*
X7243267Y1087628D01*
X7240219Y1092555D01*
X7236104Y1096619D01*
X7231227Y1099718D01*
X7225741Y1101598D01*
X7219442Y1102309D01*
X7040575Y1102309D01*
X7034225Y1101598D01*
X7028789Y1099718D01*
X7023862Y1096619D01*
X7019798Y1092555D01*
X7016699Y1087628D01*
X7014819Y1082192D01*
X7014108Y1075842D01*
X7014108Y956970D01*
X7014819Y950671D01*
X7016699Y945184D01*
X7019798Y940308D01*
X7023862Y936193D01*
X7028789Y933145D01*
X7034225Y931214D01*
G37*
G36*
X1862023Y980338D02*
G01*
X1875586Y981252D01*
X1888947Y983945D01*
X1901850Y988466D01*
X1914042Y994613D01*
X1925269Y1002334D01*
X1935378Y1011478D01*
X1944166Y1021892D01*
X1951532Y1033373D01*
X1957273Y1045718D01*
X1961286Y1058773D01*
X1963572Y1072184D01*
X1964029Y1085850D01*
X1962657Y1099413D01*
X1959508Y1112672D01*
X1954580Y1125423D01*
X1948027Y1137361D01*
X1939950Y1148334D01*
X1930501Y1158138D01*
X1919782Y1166571D01*
X1908048Y1173530D01*
X1895500Y1178864D01*
X1882343Y1182471D01*
X1868830Y1184300D01*
X1855165Y1184300D01*
X1841652Y1182471D01*
X1828495Y1178864D01*
X1815947Y1173530D01*
X1804212Y1166571D01*
X1793544Y1158138D01*
X1784045Y1148334D01*
X1775968Y1137361D01*
X1769414Y1125423D01*
X1764487Y1112672D01*
X1761337Y1099413D01*
X1759966Y1085850D01*
X1760423Y1072184D01*
X1762709Y1058773D01*
X1766722Y1045718D01*
X1772462Y1033373D01*
X1779828Y1021892D01*
X1788617Y1011478D01*
X1798726Y1002334D01*
X1809953Y994613D01*
X1822145Y988466D01*
X1835048Y983945D01*
X1848408Y981252D01*
G37*
G36*
X338023Y980338D02*
G01*
X351586Y981252D01*
X364947Y983945D01*
X377850Y988466D01*
X390042Y994613D01*
X401269Y1002334D01*
X411378Y1011478D01*
X420166Y1021892D01*
X427532Y1033373D01*
X433273Y1045718D01*
X437286Y1058773D01*
X439572Y1072184D01*
X440029Y1085850D01*
X438658Y1099413D01*
X435508Y1112672D01*
X430580Y1125423D01*
X424027Y1137361D01*
X415950Y1148334D01*
X406501Y1158138D01*
X395782Y1166571D01*
X384048Y1173530D01*
X371500Y1178864D01*
X358343Y1182471D01*
X344830Y1184300D01*
X331165Y1184300D01*
X317652Y1182471D01*
X304495Y1178864D01*
X291947Y1173530D01*
X280212Y1166571D01*
X269544Y1158138D01*
X260045Y1148334D01*
X251967Y1137361D01*
X245414Y1125423D01*
X240487Y1112672D01*
X237337Y1099413D01*
X235966Y1085850D01*
X236423Y1072184D01*
X238709Y1058773D01*
X242722Y1045718D01*
X248462Y1033373D01*
X255828Y1021892D01*
X264617Y1011478D01*
X274726Y1002334D01*
X285953Y994613D01*
X298145Y988466D01*
X311048Y983945D01*
X324408Y981252D01*
G37*
G36*
X6787591Y1090523D02*
G01*
X6819442Y1090523D01*
X6825742Y1091234D01*
X6831228Y1093114D01*
X6836105Y1096213D01*
X6840220Y1100328D01*
X6843268Y1105204D01*
X6845198Y1110640D01*
X6845909Y1116990D01*
X6845909Y1125067D01*
X6787591Y1125067D01*
G37*
G36*
X6665569Y1090523D02*
G01*
X6697421Y1090523D01*
X6697421Y1125067D01*
X6639102Y1125067D01*
X6639102Y1116990D01*
X6639814Y1110640D01*
X6641693Y1105204D01*
X6644792Y1100328D01*
X6648907Y1096213D01*
X6653784Y1093114D01*
X6659219Y1091234D01*
G37*
G36*
X5380024Y3420567D02*
G01*
X5393182Y3421379D01*
X5406136Y3423970D01*
X5418582Y3428237D01*
X5430418Y3434079D01*
X5441391Y3441395D01*
X5451348Y3450082D01*
X5460034Y3459987D01*
X5467350Y3470960D01*
X5473192Y3482797D01*
X5477459Y3495294D01*
X5479999Y3508248D01*
X5480913Y3521760D01*
X5480913Y3621074D01*
X5479999Y3634587D01*
X5477459Y3647541D01*
X5473192Y3660038D01*
X5467350Y3671874D01*
X5460034Y3682847D01*
X5451348Y3692753D01*
X5441391Y3701491D01*
X5430418Y3708806D01*
X5418582Y3714648D01*
X5406136Y3718864D01*
X5393182Y3721455D01*
X5380024Y3722319D01*
X5366816Y3721455D01*
X5353913Y3718864D01*
X5341416Y3714648D01*
X5329580Y3708806D01*
X5318607Y3701491D01*
X5308650Y3692753D01*
X5299964Y3682847D01*
X5292648Y3671874D01*
X5286806Y3660038D01*
X5282539Y3647541D01*
X5279999Y3634587D01*
X5279085Y3621074D01*
X5279085Y3521760D01*
X5279999Y3508248D01*
X5282539Y3495294D01*
X5286806Y3482797D01*
X5292648Y3470960D01*
X5299964Y3459987D01*
X5308650Y3450082D01*
X5318607Y3441395D01*
X5329580Y3434079D01*
X5341416Y3428237D01*
X5353913Y3423970D01*
X5366816Y3421379D01*
G37*
G36*
X1770227Y3412896D02*
G01*
X1817573Y3412896D01*
X1817573Y3460191D01*
X1815947Y3459530D01*
X1804212Y3452571D01*
X1793544Y3444138D01*
X1784045Y3434334D01*
X1775968Y3423361D01*
G37*
G36*
X1906473Y3412896D02*
G01*
X1953768Y3412896D01*
X1948027Y3423361D01*
X1939950Y3434334D01*
X1930501Y3444138D01*
X1919782Y3452571D01*
X1908048Y3459530D01*
X1906473Y3460191D01*
G37*
G36*
X2730601Y3375456D02*
G01*
X2869387Y3375456D01*
X2875737Y3376168D01*
X2881172Y3378098D01*
X2886100Y3381146D01*
X2890164Y3385261D01*
X2893263Y3390137D01*
X2895193Y3395624D01*
X2895904Y3401923D01*
X2895904Y3422650D01*
X2896666Y3426561D01*
X2898851Y3429863D01*
X2902153Y3432048D01*
X2906064Y3432810D01*
X2986430Y3432810D01*
X2990088Y3432149D01*
X2993237Y3430168D01*
X2995523Y3427222D01*
X2996539Y3423665D01*
X2997352Y3415588D01*
X2999232Y3410204D01*
X3002280Y3405327D01*
X3006394Y3401212D01*
X3011271Y3398164D01*
X3016758Y3396234D01*
X3023057Y3395522D01*
X3176930Y3395522D01*
X3183229Y3396234D01*
X3188716Y3398164D01*
X3193592Y3401212D01*
X3197707Y3405327D01*
X3200806Y3410204D01*
X3202686Y3415690D01*
X3203397Y3421989D01*
X3203397Y3520846D01*
X3202686Y3527196D01*
X3200806Y3532632D01*
X3197707Y3537559D01*
X3193592Y3541623D01*
X3188716Y3544722D01*
X3183229Y3546601D01*
X3176930Y3547313D01*
X3023057Y3547313D01*
X3016758Y3546601D01*
X3011271Y3544722D01*
X3006394Y3541623D01*
X3002280Y3537559D01*
X2999232Y3532632D01*
X2997352Y3527247D01*
X2996539Y3519220D01*
X2995523Y3515614D01*
X2993237Y3512667D01*
X2990088Y3510737D01*
X2986430Y3510026D01*
X2906064Y3510026D01*
X2902153Y3510787D01*
X2898851Y3513023D01*
X2896666Y3516325D01*
X2895904Y3520186D01*
X2895904Y3530854D01*
X2895193Y3537153D01*
X2893263Y3542639D01*
X2890164Y3547516D01*
X2886100Y3551631D01*
X2881172Y3554729D01*
X2875737Y3556609D01*
X2869387Y3557320D01*
X2730601Y3557320D01*
X2724251Y3556609D01*
X2718816Y3554729D01*
X2713888Y3551631D01*
X2709824Y3547516D01*
X2706725Y3542639D01*
X2704846Y3537153D01*
X2704134Y3530854D01*
X2704134Y3401923D01*
X2704846Y3395624D01*
X2706725Y3390137D01*
X2709824Y3385261D01*
X2713888Y3381146D01*
X2718816Y3378098D01*
X2724251Y3376168D01*
G37*
G36*
X338023Y1234338D02*
G01*
X351586Y1235252D01*
X364947Y1237945D01*
X377850Y1242466D01*
X390042Y1248613D01*
X401269Y1256334D01*
X411378Y1265478D01*
X420166Y1275892D01*
X427532Y1287373D01*
X433273Y1299718D01*
X437286Y1312773D01*
X439572Y1326184D01*
X440029Y1339850D01*
X438658Y1353413D01*
X435508Y1366672D01*
X430580Y1379423D01*
X424027Y1391361D01*
X415950Y1402334D01*
X406501Y1412138D01*
X395782Y1420571D01*
X384048Y1427530D01*
X371500Y1432864D01*
X358343Y1436471D01*
X344830Y1438300D01*
X331165Y1438300D01*
X317652Y1436471D01*
X304495Y1432864D01*
X291947Y1427530D01*
X280212Y1420571D01*
X269544Y1412138D01*
X260045Y1402334D01*
X251967Y1391361D01*
X245414Y1379423D01*
X240487Y1366672D01*
X237337Y1353413D01*
X235966Y1339850D01*
X236423Y1326184D01*
X238709Y1312773D01*
X242722Y1299718D01*
X248462Y1287373D01*
X255828Y1275892D01*
X264617Y1265478D01*
X274726Y1256334D01*
X285953Y1248613D01*
X298145Y1242466D01*
X311048Y1237945D01*
X324408Y1235252D01*
G37*
G36*
X4100118Y3295497D02*
G01*
X4302658Y3295599D01*
X4311497Y3296412D01*
X4313936Y3296818D01*
X4322572Y3298951D01*
X4324908Y3299714D01*
X4333087Y3303117D01*
X4335322Y3304235D01*
X4342942Y3308807D01*
X4344924Y3310229D01*
X4351782Y3315919D01*
X4488738Y3452774D01*
X4491990Y3455009D01*
X4495901Y3455771D01*
X4507280Y3455771D01*
X4521708Y3457600D01*
X4535830Y3461207D01*
X4549343Y3466592D01*
X4562094Y3473602D01*
X4573879Y3482136D01*
X4584496Y3492093D01*
X4593742Y3503320D01*
X4601565Y3515614D01*
X4607763Y3528771D01*
X4612233Y3542588D01*
X4614976Y3556914D01*
X4615891Y3571443D01*
X4614976Y3585972D01*
X4612233Y3600246D01*
X4607763Y3614064D01*
X4601565Y3627272D01*
X4593742Y3639565D01*
X4584496Y3650742D01*
X4573879Y3660698D01*
X4562094Y3669284D01*
X4549343Y3676294D01*
X4535830Y3681628D01*
X4521708Y3685286D01*
X4507280Y3687064D01*
X4492701Y3687064D01*
X4478274Y3685286D01*
X4464202Y3681628D01*
X4450638Y3676294D01*
X4437888Y3669284D01*
X4426153Y3660698D01*
X4415536Y3650742D01*
X4406239Y3639565D01*
X4398467Y3627272D01*
X4392269Y3614064D01*
X4387748Y3600246D01*
X4385005Y3585972D01*
X4384090Y3571443D01*
X4384344Y3567988D01*
X4383684Y3563721D01*
X4381398Y3560165D01*
X4338269Y3517036D01*
X4334967Y3514801D01*
X4331055Y3514039D01*
X4327194Y3514801D01*
X4323892Y3517036D01*
X4321708Y3520338D01*
X4320895Y3524199D01*
X4320895Y3621074D01*
X4320032Y3634587D01*
X4317441Y3647541D01*
X4313224Y3660038D01*
X4307382Y3671874D01*
X4300016Y3682847D01*
X4291330Y3692753D01*
X4281424Y3701491D01*
X4270451Y3708806D01*
X4258614Y3714648D01*
X4246118Y3718864D01*
X4233164Y3721455D01*
X4220006Y3722319D01*
X4206849Y3721455D01*
X4193895Y3718864D01*
X4181398Y3714648D01*
X4169562Y3708806D01*
X4158589Y3701491D01*
X4148683Y3692753D01*
X4139946Y3682847D01*
X4132630Y3671874D01*
X4126788Y3660038D01*
X4122572Y3647541D01*
X4119981Y3634587D01*
X4119118Y3621074D01*
X4119118Y3521760D01*
X4119981Y3508248D01*
X4122572Y3495294D01*
X4126788Y3482797D01*
X4129582Y3477209D01*
X4130598Y3473246D01*
X4130040Y3469233D01*
X4127906Y3465779D01*
X4124604Y3463442D01*
X4120642Y3462528D01*
X4116679Y3463290D01*
X4113276Y3465525D01*
X3851757Y3726942D01*
X3844899Y3732631D01*
X3842918Y3734054D01*
X3835298Y3738626D01*
X3833114Y3739743D01*
X3824884Y3743147D01*
X3822547Y3743909D01*
X3813911Y3746042D01*
X3811524Y3746449D01*
X3802634Y3747262D01*
X3776878Y3747414D01*
X3023057Y3747312D01*
X3016758Y3746601D01*
X3011271Y3744722D01*
X3006394Y3741623D01*
X3002280Y3737559D01*
X2999232Y3732631D01*
X2997301Y3727196D01*
X2996590Y3720846D01*
X2996590Y3621989D01*
X2997301Y3615690D01*
X2999232Y3610203D01*
X3002280Y3605326D01*
X3006394Y3601212D01*
X3011271Y3598164D01*
X3016758Y3596233D01*
X3023057Y3595522D01*
X3764330Y3595522D01*
X3768242Y3594760D01*
X3771544Y3592525D01*
X4048251Y3315919D01*
X4055110Y3310229D01*
X4057091Y3308807D01*
X4064711Y3304235D01*
X4066895Y3303117D01*
X4075125Y3299714D01*
X4077462Y3298951D01*
X4086098Y3296818D01*
X4088485Y3296412D01*
G37*
G36*
X1906473Y3276752D02*
G01*
X1914042Y3280613D01*
X1925269Y3288334D01*
X1935378Y3297478D01*
X1944166Y3307892D01*
X1951532Y3319373D01*
X1953666Y3323996D01*
X1906473Y3323996D01*
G37*
G36*
X1817573Y3276752D02*
G01*
X1817573Y3323996D01*
X1770329Y3323996D01*
X1772462Y3319373D01*
X1779828Y3307892D01*
X1788617Y3297478D01*
X1798726Y3288334D01*
X1809953Y3280613D01*
G37*
G36*
X338023Y3266338D02*
G01*
X351586Y3267252D01*
X364947Y3269945D01*
X377850Y3274466D01*
X390042Y3280613D01*
X401269Y3288334D01*
X411378Y3297478D01*
X420166Y3307892D01*
X427532Y3319373D01*
X433273Y3331718D01*
X437286Y3344773D01*
X439572Y3358184D01*
X440029Y3371850D01*
X438658Y3385413D01*
X435508Y3398672D01*
X430580Y3411423D01*
X424027Y3423361D01*
X415950Y3434334D01*
X406501Y3444138D01*
X395782Y3452571D01*
X384048Y3459530D01*
X371500Y3464864D01*
X358343Y3468471D01*
X344830Y3470300D01*
X331165Y3470300D01*
X317652Y3468471D01*
X304495Y3464864D01*
X291947Y3459530D01*
X280212Y3452571D01*
X269544Y3444138D01*
X260045Y3434334D01*
X251967Y3423361D01*
X245414Y3411423D01*
X240487Y3398672D01*
X237337Y3385413D01*
X235966Y3371850D01*
X236423Y3358184D01*
X238709Y3344773D01*
X242722Y3331718D01*
X248462Y3319373D01*
X255828Y3307892D01*
X264617Y3297478D01*
X274726Y3288334D01*
X285953Y3280613D01*
X298145Y3274466D01*
X311048Y3269945D01*
X324408Y3267252D01*
G37*
G36*
X1608023Y3266338D02*
G01*
X1621586Y3267252D01*
X1634947Y3269945D01*
X1647850Y3274466D01*
X1660042Y3280613D01*
X1671269Y3288334D01*
X1681378Y3297478D01*
X1690166Y3307892D01*
X1697532Y3319373D01*
X1703273Y3331718D01*
X1707286Y3344773D01*
X1709572Y3358184D01*
X1710029Y3371850D01*
X1708657Y3385413D01*
X1705508Y3398672D01*
X1700580Y3411423D01*
X1694027Y3423361D01*
X1685950Y3434334D01*
X1676501Y3444138D01*
X1665782Y3452571D01*
X1654048Y3459530D01*
X1641500Y3464864D01*
X1628343Y3468471D01*
X1614830Y3470300D01*
X1601165Y3470300D01*
X1587652Y3468471D01*
X1574495Y3464864D01*
X1561947Y3459530D01*
X1550212Y3452571D01*
X1539544Y3444138D01*
X1530045Y3434334D01*
X1521968Y3423361D01*
X1515414Y3411423D01*
X1510487Y3398672D01*
X1507337Y3385413D01*
X1505966Y3371850D01*
X1506423Y3358184D01*
X1508709Y3344773D01*
X1512722Y3331718D01*
X1518462Y3319373D01*
X1525828Y3307892D01*
X1534617Y3297478D01*
X1544726Y3288334D01*
X1555953Y3280613D01*
X1568145Y3274466D01*
X1581048Y3269945D01*
X1594408Y3267252D01*
G37*
G36*
X338023Y1488338D02*
G01*
X351586Y1489252D01*
X364947Y1491945D01*
X377850Y1496466D01*
X390042Y1502613D01*
X401269Y1510334D01*
X411378Y1519478D01*
X420166Y1529892D01*
X427532Y1541373D01*
X433273Y1553718D01*
X437286Y1566773D01*
X439572Y1580184D01*
X440029Y1593850D01*
X438658Y1607413D01*
X435508Y1620672D01*
X430580Y1633423D01*
X424027Y1645361D01*
X415950Y1656334D01*
X406501Y1666138D01*
X395782Y1674571D01*
X384048Y1681530D01*
X371500Y1686864D01*
X358343Y1690471D01*
X344830Y1692300D01*
X331165Y1692300D01*
X317652Y1690471D01*
X304495Y1686864D01*
X291947Y1681530D01*
X280212Y1674571D01*
X269544Y1666138D01*
X260045Y1656334D01*
X251967Y1645361D01*
X245414Y1633423D01*
X240487Y1620672D01*
X237337Y1607413D01*
X235966Y1593850D01*
X236423Y1580184D01*
X238709Y1566773D01*
X242722Y1553718D01*
X248462Y1541373D01*
X255828Y1529892D01*
X264617Y1519478D01*
X274726Y1510334D01*
X285953Y1502613D01*
X298145Y1496466D01*
X311048Y1491945D01*
X324408Y1489252D01*
G37*
G36*
X7040575Y1490522D02*
G01*
X7219442Y1490522D01*
X7225741Y1491234D01*
X7231227Y1493164D01*
X7236104Y1496212D01*
X7240219Y1500327D01*
X7243267Y1505204D01*
X7245197Y1510690D01*
X7245908Y1516989D01*
X7245908Y1635861D01*
X7245197Y1642211D01*
X7243267Y1647647D01*
X7240219Y1652574D01*
X7236104Y1656638D01*
X7231227Y1659737D01*
X7225741Y1661617D01*
X7219442Y1662328D01*
X7040575Y1662328D01*
X7034225Y1661617D01*
X7028789Y1659737D01*
X7023862Y1656638D01*
X7019798Y1652574D01*
X7016699Y1647647D01*
X7014819Y1642211D01*
X7014108Y1635861D01*
X7014108Y1516989D01*
X7014819Y1510690D01*
X7016699Y1505204D01*
X7019798Y1500327D01*
X7023862Y1496212D01*
X7028789Y1493164D01*
X7034225Y1491234D01*
G37*
G36*
X3700018Y3265068D02*
G01*
X3709771Y3265932D01*
X3719271Y3268472D01*
X3728161Y3272637D01*
X3736238Y3278276D01*
X3743147Y3285185D01*
X3748786Y3293262D01*
X3752951Y3302152D01*
X3755491Y3311651D01*
X3756355Y3321405D01*
X3755491Y3331210D01*
X3752951Y3340709D01*
X3748786Y3349599D01*
X3743147Y3357626D01*
X3741572Y3359251D01*
X3739387Y3362502D01*
X3738626Y3366414D01*
X3738626Y3385413D01*
X3739387Y3389325D01*
X3741572Y3392627D01*
X3744874Y3394811D01*
X3748786Y3395573D01*
X3776878Y3395573D01*
X3783177Y3396284D01*
X3788664Y3398215D01*
X3793540Y3401314D01*
X3797655Y3405378D01*
X3800703Y3410305D01*
X3802634Y3415741D01*
X3803345Y3422040D01*
X3803345Y3520948D01*
X3802634Y3527247D01*
X3800703Y3532682D01*
X3797655Y3537610D01*
X3793540Y3541674D01*
X3788664Y3544773D01*
X3783177Y3546703D01*
X3776878Y3547414D01*
X3623005Y3547414D01*
X3616706Y3546703D01*
X3611219Y3544773D01*
X3606342Y3541674D01*
X3602228Y3537610D01*
X3599179Y3532682D01*
X3597249Y3527247D01*
X3596538Y3520948D01*
X3596538Y3422040D01*
X3597249Y3415741D01*
X3599179Y3410305D01*
X3602228Y3405378D01*
X3606342Y3401314D01*
X3611219Y3398215D01*
X3616706Y3396284D01*
X3623005Y3395573D01*
X3651250Y3395573D01*
X3655110Y3394811D01*
X3658412Y3392627D01*
X3660648Y3389325D01*
X3661410Y3385413D01*
X3661410Y3366414D01*
X3660648Y3362553D01*
X3658412Y3359251D01*
X3656837Y3357626D01*
X3651199Y3349599D01*
X3647033Y3340709D01*
X3644493Y3331210D01*
X3643629Y3321405D01*
X3644493Y3311651D01*
X3647033Y3302152D01*
X3651199Y3293262D01*
X3656837Y3285185D01*
X3663797Y3278276D01*
X3671824Y3272637D01*
X3680714Y3268472D01*
X3690213Y3265932D01*
G37*
G36*
X338023Y3012338D02*
G01*
X351586Y3013252D01*
X364947Y3015945D01*
X377850Y3020466D01*
X390042Y3026613D01*
X401269Y3034334D01*
X411378Y3043478D01*
X420166Y3053892D01*
X427532Y3065373D01*
X433273Y3077718D01*
X437286Y3090773D01*
X439572Y3104184D01*
X440029Y3117850D01*
X438658Y3131413D01*
X435508Y3144672D01*
X430580Y3157423D01*
X424027Y3169361D01*
X415950Y3180334D01*
X406501Y3190138D01*
X395782Y3198571D01*
X384048Y3205530D01*
X371500Y3210864D01*
X358343Y3214471D01*
X344830Y3216300D01*
X331165Y3216300D01*
X317652Y3214471D01*
X304495Y3210864D01*
X291947Y3205530D01*
X280212Y3198571D01*
X269544Y3190138D01*
X260045Y3180334D01*
X251967Y3169361D01*
X245414Y3157423D01*
X240487Y3144672D01*
X237337Y3131413D01*
X235966Y3117850D01*
X236423Y3104184D01*
X238709Y3090773D01*
X242722Y3077718D01*
X248462Y3065373D01*
X255828Y3053892D01*
X264617Y3043478D01*
X274726Y3034334D01*
X285953Y3026613D01*
X298145Y3020466D01*
X311048Y3015945D01*
X324408Y3013252D01*
G37*
G36*
X1608023Y2758338D02*
G01*
X1621586Y2759252D01*
X1634947Y2761945D01*
X1647850Y2766466D01*
X1660042Y2772613D01*
X1671269Y2780334D01*
X1681378Y2789478D01*
X1690166Y2799892D01*
X1697532Y2811373D01*
X1703273Y2823718D01*
X1707286Y2836773D01*
X1709572Y2850184D01*
X1710029Y2863850D01*
X1708657Y2877413D01*
X1705508Y2890672D01*
X1700580Y2903423D01*
X1694027Y2915361D01*
X1685950Y2926334D01*
X1676501Y2936138D01*
X1665782Y2944571D01*
X1654048Y2951530D01*
X1641500Y2956864D01*
X1628343Y2960471D01*
X1614830Y2962300D01*
X1601165Y2962300D01*
X1587652Y2960471D01*
X1574495Y2956864D01*
X1561947Y2951530D01*
X1550212Y2944571D01*
X1539544Y2936138D01*
X1530045Y2926334D01*
X1521968Y2915361D01*
X1515414Y2903423D01*
X1510487Y2890672D01*
X1507337Y2877413D01*
X1505966Y2863850D01*
X1506423Y2850184D01*
X1508709Y2836773D01*
X1512722Y2823718D01*
X1518462Y2811373D01*
X1525828Y2799892D01*
X1534617Y2789478D01*
X1544726Y2780334D01*
X1555953Y2772613D01*
X1568145Y2766466D01*
X1581048Y2761945D01*
X1594408Y2759252D01*
G37*
G36*
X338023Y1742338D02*
G01*
X351586Y1743252D01*
X364947Y1745945D01*
X377850Y1750466D01*
X390042Y1756613D01*
X401269Y1764334D01*
X411378Y1773478D01*
X420166Y1783892D01*
X427532Y1795373D01*
X433273Y1807718D01*
X437286Y1820773D01*
X439572Y1834184D01*
X440029Y1847850D01*
X438658Y1861413D01*
X435508Y1874672D01*
X430580Y1887423D01*
X424027Y1899361D01*
X415950Y1910334D01*
X406501Y1920138D01*
X395782Y1928571D01*
X384048Y1935530D01*
X371500Y1940864D01*
X358343Y1944471D01*
X344830Y1946300D01*
X331165Y1946300D01*
X317652Y1944471D01*
X304495Y1940864D01*
X291947Y1935530D01*
X280212Y1928571D01*
X269544Y1920138D01*
X260045Y1910334D01*
X251967Y1899361D01*
X245414Y1887423D01*
X240487Y1874672D01*
X237337Y1861413D01*
X235966Y1847850D01*
X236423Y1834184D01*
X238709Y1820773D01*
X242722Y1807718D01*
X248462Y1795373D01*
X255828Y1783892D01*
X264617Y1773478D01*
X274726Y1764334D01*
X285953Y1756613D01*
X298145Y1750466D01*
X311048Y1745945D01*
X324408Y1743252D01*
G37*
G36*
X338023Y2758338D02*
G01*
X351586Y2759252D01*
X364947Y2761945D01*
X377850Y2766466D01*
X390042Y2772613D01*
X401269Y2780334D01*
X411378Y2789478D01*
X420166Y2799892D01*
X427532Y2811373D01*
X433273Y2823718D01*
X437286Y2836773D01*
X439572Y2850184D01*
X440029Y2863850D01*
X438658Y2877413D01*
X435508Y2890672D01*
X430580Y2903423D01*
X424027Y2915361D01*
X415950Y2926334D01*
X406501Y2936138D01*
X395782Y2944571D01*
X384048Y2951530D01*
X371500Y2956864D01*
X358343Y2960471D01*
X344830Y2962300D01*
X331165Y2962300D01*
X317652Y2960471D01*
X304495Y2956864D01*
X291947Y2951530D01*
X280212Y2944571D01*
X269544Y2936138D01*
X260045Y2926334D01*
X251967Y2915361D01*
X245414Y2903423D01*
X240487Y2890672D01*
X237337Y2877413D01*
X235966Y2863850D01*
X236423Y2850184D01*
X238709Y2836773D01*
X242722Y2823718D01*
X248462Y2811373D01*
X255828Y2799892D01*
X264617Y2789478D01*
X274726Y2780334D01*
X285953Y2772613D01*
X298145Y2766466D01*
X311048Y2761945D01*
X324408Y2759252D01*
G37*
G36*
X1862023Y2758338D02*
G01*
X1875586Y2759252D01*
X1888947Y2761945D01*
X1901850Y2766466D01*
X1914042Y2772613D01*
X1925269Y2780334D01*
X1935378Y2789478D01*
X1944166Y2799892D01*
X1951532Y2811373D01*
X1957273Y2823718D01*
X1961286Y2836773D01*
X1963572Y2850184D01*
X1964029Y2863850D01*
X1962657Y2877413D01*
X1959508Y2890672D01*
X1954580Y2903423D01*
X1948027Y2915361D01*
X1939950Y2926334D01*
X1930501Y2936138D01*
X1919782Y2944571D01*
X1908048Y2951530D01*
X1895500Y2956864D01*
X1882343Y2960471D01*
X1868830Y2962300D01*
X1855165Y2962300D01*
X1841652Y2960471D01*
X1828495Y2956864D01*
X1815947Y2951530D01*
X1804212Y2944571D01*
X1793544Y2936138D01*
X1784045Y2926334D01*
X1775968Y2915361D01*
X1769414Y2903423D01*
X1764487Y2890672D01*
X1761337Y2877413D01*
X1759966Y2863850D01*
X1760423Y2850184D01*
X1762709Y2836773D01*
X1766722Y2823718D01*
X1772462Y2811373D01*
X1779828Y2799892D01*
X1788617Y2789478D01*
X1798726Y2780334D01*
X1809953Y2772613D01*
X1822145Y2766466D01*
X1835048Y2761945D01*
X1848408Y2759252D01*
G37*
G36*
X1862023Y1996338D02*
G01*
X1875586Y1997252D01*
X1888947Y1999945D01*
X1901850Y2004466D01*
X1914042Y2010613D01*
X1925269Y2018334D01*
X1935378Y2027478D01*
X1944166Y2037892D01*
X1951532Y2049373D01*
X1957273Y2061718D01*
X1961286Y2074773D01*
X1963572Y2088184D01*
X1964029Y2101850D01*
X1962657Y2115413D01*
X1959508Y2128672D01*
X1954580Y2141423D01*
X1948027Y2153361D01*
X1939950Y2164334D01*
X1930501Y2174138D01*
X1919782Y2182571D01*
X1908048Y2189530D01*
X1895500Y2194864D01*
X1882343Y2198471D01*
X1868830Y2200300D01*
X1855165Y2200300D01*
X1841652Y2198471D01*
X1828495Y2194864D01*
X1815947Y2189530D01*
X1804212Y2182571D01*
X1793544Y2174138D01*
X1784045Y2164334D01*
X1775968Y2153361D01*
X1769414Y2141423D01*
X1764487Y2128672D01*
X1761337Y2115413D01*
X1759966Y2101850D01*
X1760423Y2088184D01*
X1762709Y2074773D01*
X1766722Y2061718D01*
X1772462Y2049373D01*
X1779828Y2037892D01*
X1788617Y2027478D01*
X1798726Y2018334D01*
X1809953Y2010613D01*
X1822145Y2004466D01*
X1835048Y1999945D01*
X1848408Y1997252D01*
G37*
G36*
X338023Y1996338D02*
G01*
X351586Y1997252D01*
X364947Y1999945D01*
X377850Y2004466D01*
X390042Y2010613D01*
X401269Y2018334D01*
X411378Y2027478D01*
X420166Y2037892D01*
X427532Y2049373D01*
X433273Y2061718D01*
X437286Y2074773D01*
X439572Y2088184D01*
X440029Y2101850D01*
X438658Y2115413D01*
X435508Y2128672D01*
X430580Y2141423D01*
X424027Y2153361D01*
X415950Y2164334D01*
X406501Y2174138D01*
X395782Y2182571D01*
X384048Y2189530D01*
X371500Y2194864D01*
X358343Y2198471D01*
X344830Y2200300D01*
X331165Y2200300D01*
X317652Y2198471D01*
X304495Y2194864D01*
X291947Y2189530D01*
X280212Y2182571D01*
X269544Y2174138D01*
X260045Y2164334D01*
X251967Y2153361D01*
X245414Y2141423D01*
X240487Y2128672D01*
X237337Y2115413D01*
X235966Y2101850D01*
X236423Y2088184D01*
X238709Y2074773D01*
X242722Y2061718D01*
X248462Y2049373D01*
X255828Y2037892D01*
X264617Y2027478D01*
X274726Y2018334D01*
X285953Y2010613D01*
X298145Y2004466D01*
X311048Y1999945D01*
X324408Y1997252D01*
G37*
G36*
X7040575Y2740507D02*
G01*
X7219442Y2740507D01*
X7225741Y2741218D01*
X7231227Y2743149D01*
X7236104Y2746248D01*
X7240219Y2750312D01*
X7243267Y2755239D01*
X7245197Y2760675D01*
X7245908Y2767025D01*
X7245908Y2885846D01*
X7245197Y2892196D01*
X7243267Y2897632D01*
X7240219Y2902559D01*
X7236104Y2906623D01*
X7231227Y2909722D01*
X7225741Y2911652D01*
X7219442Y2912364D01*
X7040575Y2912364D01*
X7034225Y2911652D01*
X7028789Y2909722D01*
X7023862Y2906623D01*
X7019798Y2902559D01*
X7016699Y2897632D01*
X7014819Y2892196D01*
X7014108Y2885846D01*
X7014108Y2767025D01*
X7014819Y2760675D01*
X7016699Y2755239D01*
X7019798Y2750312D01*
X7023862Y2746248D01*
X7028789Y2743149D01*
X7034225Y2741218D01*
G37*
G36*
X7040575Y2180488D02*
G01*
X7219442Y2180488D01*
X7225741Y2181199D01*
X7231227Y2183130D01*
X7236104Y2186228D01*
X7240219Y2190292D01*
X7243267Y2195220D01*
X7245197Y2200656D01*
X7245908Y2207006D01*
X7245908Y2325827D01*
X7245197Y2332177D01*
X7243267Y2337612D01*
X7240219Y2342540D01*
X7236104Y2346604D01*
X7231227Y2349703D01*
X7225741Y2351633D01*
X7219442Y2352344D01*
X7040575Y2352344D01*
X7034225Y2351633D01*
X7028789Y2349703D01*
X7023862Y2346604D01*
X7019798Y2342540D01*
X7016699Y2337612D01*
X7014819Y2332177D01*
X7014108Y2325827D01*
X7014108Y2207006D01*
X7014819Y2200656D01*
X7016699Y2195220D01*
X7019798Y2190292D01*
X7023862Y2186228D01*
X7028789Y2183130D01*
X7034225Y2181199D01*
G37*
G36*
X6021832Y2185771D02*
G01*
X6054293Y2185771D01*
X6054293Y2244699D01*
X5995365Y2244699D01*
X5995365Y2212238D01*
X5996076Y2205939D01*
X5997956Y2200452D01*
X6001054Y2195576D01*
X6005169Y2191461D01*
X6010046Y2188413D01*
X6015532Y2186482D01*
G37*
G36*
X1608023Y2504338D02*
G01*
X1621586Y2505252D01*
X1634947Y2507945D01*
X1647850Y2512466D01*
X1660042Y2518613D01*
X1671269Y2526334D01*
X1681378Y2535478D01*
X1690166Y2545892D01*
X1697532Y2557373D01*
X1703273Y2569718D01*
X1707286Y2582773D01*
X1709572Y2596184D01*
X1710029Y2609850D01*
X1708657Y2623413D01*
X1705508Y2636672D01*
X1700580Y2649423D01*
X1694027Y2661361D01*
X1685950Y2672334D01*
X1676501Y2682138D01*
X1665782Y2690571D01*
X1654048Y2697530D01*
X1641500Y2702864D01*
X1628343Y2706471D01*
X1614830Y2708300D01*
X1601165Y2708300D01*
X1587652Y2706471D01*
X1574495Y2702864D01*
X1561947Y2697530D01*
X1550212Y2690571D01*
X1539544Y2682138D01*
X1530045Y2672334D01*
X1521968Y2661361D01*
X1515414Y2649423D01*
X1510487Y2636672D01*
X1507337Y2623413D01*
X1505966Y2609850D01*
X1506423Y2596184D01*
X1508709Y2582773D01*
X1512722Y2569718D01*
X1518462Y2557373D01*
X1525828Y2545892D01*
X1534617Y2535478D01*
X1544726Y2526334D01*
X1555953Y2518613D01*
X1568145Y2512466D01*
X1581048Y2507945D01*
X1594408Y2505252D01*
G37*
G36*
X1862023Y2250338D02*
G01*
X1875586Y2251252D01*
X1888947Y2253945D01*
X1901850Y2258466D01*
X1914042Y2264613D01*
X1925269Y2272334D01*
X1935378Y2281478D01*
X1944166Y2291892D01*
X1951532Y2303373D01*
X1957273Y2315718D01*
X1961286Y2328773D01*
X1963572Y2342184D01*
X1964029Y2355850D01*
X1962657Y2369413D01*
X1959508Y2382672D01*
X1954580Y2395423D01*
X1948027Y2407361D01*
X1939950Y2418334D01*
X1930501Y2428138D01*
X1919782Y2436571D01*
X1908048Y2443530D01*
X1895500Y2448864D01*
X1882343Y2452471D01*
X1868830Y2454300D01*
X1855165Y2454300D01*
X1841652Y2452471D01*
X1828495Y2448864D01*
X1815947Y2443530D01*
X1804212Y2436571D01*
X1793544Y2428138D01*
X1784045Y2418334D01*
X1775968Y2407361D01*
X1769414Y2395423D01*
X1764487Y2382672D01*
X1761337Y2369413D01*
X1759966Y2355850D01*
X1760423Y2342184D01*
X1762709Y2328773D01*
X1766722Y2315718D01*
X1772462Y2303373D01*
X1779828Y2291892D01*
X1788617Y2281478D01*
X1798726Y2272334D01*
X1809953Y2264613D01*
X1822145Y2258466D01*
X1835048Y2253945D01*
X1848408Y2251252D01*
G37*
G36*
X338023Y2250338D02*
G01*
X351586Y2251252D01*
X364947Y2253945D01*
X377850Y2258466D01*
X390042Y2264613D01*
X401269Y2272334D01*
X411378Y2281478D01*
X420166Y2291892D01*
X427532Y2303373D01*
X433273Y2315718D01*
X437286Y2328773D01*
X439572Y2342184D01*
X440029Y2355850D01*
X438658Y2369413D01*
X435508Y2382672D01*
X430580Y2395423D01*
X424027Y2407361D01*
X415950Y2418334D01*
X406501Y2428138D01*
X395782Y2436571D01*
X384048Y2443530D01*
X371500Y2448864D01*
X358343Y2452471D01*
X344830Y2454300D01*
X331165Y2454300D01*
X317652Y2452471D01*
X304495Y2448864D01*
X291947Y2443530D01*
X280212Y2436571D01*
X269544Y2428138D01*
X260045Y2418334D01*
X251967Y2407361D01*
X245414Y2395423D01*
X240487Y2382672D01*
X237337Y2369413D01*
X235966Y2355850D01*
X236423Y2342184D01*
X238709Y2328773D01*
X242722Y2315718D01*
X248462Y2303373D01*
X255828Y2291892D01*
X264617Y2281478D01*
X274726Y2272334D01*
X285953Y2264613D01*
X298145Y2258466D01*
X311048Y2253945D01*
X324408Y2251252D01*
G37*
G36*
X1608023Y2250338D02*
G01*
X1621586Y2251252D01*
X1634947Y2253945D01*
X1647850Y2258466D01*
X1660042Y2264613D01*
X1671269Y2272334D01*
X1681378Y2281478D01*
X1690166Y2291892D01*
X1697532Y2303373D01*
X1703273Y2315718D01*
X1707286Y2328773D01*
X1709572Y2342184D01*
X1710029Y2355850D01*
X1708657Y2369413D01*
X1705508Y2382672D01*
X1700580Y2395423D01*
X1694027Y2407361D01*
X1685950Y2418334D01*
X1676501Y2428138D01*
X1665782Y2436571D01*
X1654048Y2443530D01*
X1641500Y2448864D01*
X1628343Y2452471D01*
X1614830Y2454300D01*
X1601165Y2454300D01*
X1587652Y2452471D01*
X1574495Y2448864D01*
X1561947Y2443530D01*
X1550212Y2436571D01*
X1539544Y2428138D01*
X1530045Y2418334D01*
X1521968Y2407361D01*
X1515414Y2395423D01*
X1510487Y2382672D01*
X1507337Y2369413D01*
X1505966Y2355850D01*
X1506423Y2342184D01*
X1508709Y2328773D01*
X1512722Y2315718D01*
X1518462Y2303373D01*
X1525828Y2291892D01*
X1534617Y2281478D01*
X1544726Y2272334D01*
X1555953Y2264613D01*
X1568145Y2258466D01*
X1581048Y2253945D01*
X1594408Y2251252D01*
G37*
G36*
X5995365Y2336139D02*
G01*
X6054293Y2336139D01*
X6054293Y2395067D01*
X6021832Y2395067D01*
X6015532Y2394356D01*
X6010046Y2392476D01*
X6005169Y2389378D01*
X6001054Y2385263D01*
X5997956Y2380386D01*
X5996076Y2374900D01*
X5995365Y2368600D01*
G37*
G36*
X6145733Y2336139D02*
G01*
X6204661Y2336139D01*
X6204661Y2368600D01*
X6203950Y2374900D01*
X6202019Y2380386D01*
X6198920Y2385263D01*
X6194856Y2389378D01*
X6189929Y2392476D01*
X6184493Y2394356D01*
X6178194Y2395067D01*
X6145733Y2395067D01*
G37*
G36*
X6665569Y2340508D02*
G01*
X6697421Y2340508D01*
X6697421Y2375052D01*
X6639102Y2375052D01*
X6639102Y2366975D01*
X6639814Y2360676D01*
X6641693Y2355189D01*
X6644792Y2350312D01*
X6648907Y2346198D01*
X6653784Y2343150D01*
X6659219Y2341219D01*
G37*
G36*
X6787591Y2340508D02*
G01*
X6819442Y2340508D01*
X6825742Y2341219D01*
X6831228Y2343150D01*
X6836105Y2346198D01*
X6840220Y2350312D01*
X6843268Y2355189D01*
X6845198Y2360676D01*
X6845909Y2366975D01*
X6845909Y2375052D01*
X6787591Y2375052D01*
G37*
G36*
X4663084Y2368499D02*
G01*
X4908448Y2368499D01*
X4914747Y2369210D01*
X4920234Y2371140D01*
X4925110Y2374239D01*
X4929225Y2378303D01*
X4932273Y2383231D01*
X4934204Y2388666D01*
X4934915Y2395016D01*
X4934915Y2661767D01*
X4935677Y2665679D01*
X4937861Y2668981D01*
X5025745Y2756865D01*
X5029047Y2759049D01*
X5032959Y2759811D01*
X5764326Y2759811D01*
X5768695Y2758846D01*
X5772200Y2756103D01*
X5774182Y2752090D01*
X5774283Y2747619D01*
X5772454Y2743555D01*
X5769102Y2740660D01*
X5759602Y2735681D01*
X5750509Y2728925D01*
X5742482Y2720949D01*
X5735726Y2711805D01*
X5730443Y2701798D01*
X5726684Y2691079D01*
X5724601Y2679903D01*
X5724194Y2668574D01*
X5725464Y2657348D01*
X5728360Y2646375D01*
X5732932Y2635961D01*
X5738926Y2626360D01*
X5746597Y2617470D01*
X5875223Y2488895D01*
X5884062Y2481834D01*
X5891682Y2477211D01*
X5902096Y2472740D01*
X5904433Y2471978D01*
X5913069Y2469794D01*
X5915507Y2469388D01*
X5924346Y2468575D01*
X6024372Y2468524D01*
X6027978Y2467864D01*
X6031077Y2465984D01*
X6036310Y2461412D01*
X6047689Y2453843D01*
X6059982Y2447747D01*
X6072936Y2443378D01*
X6086348Y2440686D01*
X6100013Y2439822D01*
X6114338Y2440736D01*
X6118860Y2439974D01*
X6127597Y2436368D01*
X6137808Y2433828D01*
X6139942Y2433523D01*
X6148324Y2433015D01*
X6628942Y2433015D01*
X6632803Y2432253D01*
X6636105Y2430018D01*
X6638290Y2426716D01*
X6639102Y2422855D01*
X6639102Y2417775D01*
X6697421Y2417775D01*
X6697421Y2422855D01*
X6698183Y2426716D01*
X6700367Y2430018D01*
X6703669Y2432253D01*
X6707581Y2433015D01*
X6742074Y2433015D01*
X6752945Y2433878D01*
X6763105Y2436469D01*
X6770319Y2439670D01*
X6774434Y2440482D01*
X6777431Y2440482D01*
X6781342Y2439720D01*
X6784644Y2437536D01*
X6786829Y2434234D01*
X6787591Y2430322D01*
X6787591Y2417775D01*
X6845909Y2417775D01*
X6845909Y2425852D01*
X6845198Y2432151D01*
X6843268Y2437638D01*
X6841134Y2440990D01*
X6839762Y2444546D01*
X6839762Y2448306D01*
X6841134Y2451811D01*
X6843268Y2455214D01*
X6845198Y2460650D01*
X6845909Y2467000D01*
X6845909Y2525826D01*
X6845198Y2532176D01*
X6843268Y2537612D01*
X6841134Y2541016D01*
X6839762Y2544521D01*
X6839762Y2548331D01*
X6841134Y2551836D01*
X6843268Y2555240D01*
X6845198Y2560675D01*
X6845909Y2567025D01*
X6845909Y2625852D01*
X6845198Y2632202D01*
X6843268Y2637637D01*
X6841134Y2641041D01*
X6839762Y2644546D01*
X6839762Y2648305D01*
X6841134Y2651861D01*
X6843268Y2655214D01*
X6845198Y2660700D01*
X6845909Y2667000D01*
X6845909Y2725877D01*
X6845198Y2732176D01*
X6843268Y2737662D01*
X6840220Y2742539D01*
X6836105Y2746654D01*
X6831228Y2749702D01*
X6825742Y2751632D01*
X6819442Y2752344D01*
X6665569Y2752344D01*
X6659219Y2751632D01*
X6653784Y2749702D01*
X6648907Y2746654D01*
X6644792Y2742539D01*
X6643065Y2739796D01*
X6640779Y2737256D01*
X6637832Y2735630D01*
X6634480Y2735021D01*
X6476187Y2735021D01*
X6472326Y2735834D01*
X6469024Y2738018D01*
X6200597Y3006394D01*
X6198514Y3009493D01*
X6197650Y3013151D01*
X6198158Y3016859D01*
X6201054Y3025343D01*
X6203746Y3038754D01*
X6204610Y3052419D01*
X6203746Y3066084D01*
X6201054Y3079496D01*
X6196685Y3092450D01*
X6190589Y3104743D01*
X6183020Y3116122D01*
X6173978Y3126384D01*
X6163716Y3135426D01*
X6152337Y3143046D01*
X6140043Y3149092D01*
X6127089Y3153511D01*
X6113678Y3156153D01*
X6100013Y3157067D01*
X6086348Y3156153D01*
X6072936Y3153511D01*
X6059982Y3149092D01*
X6047689Y3143046D01*
X6036310Y3135426D01*
X6025997Y3126384D01*
X6017006Y3116122D01*
X6009386Y3104743D01*
X6005423Y3096717D01*
X6003188Y3093720D01*
X5999988Y3091738D01*
X5996330Y3091027D01*
X3681526Y3091027D01*
X3673500Y3090265D01*
X3666236Y3088030D01*
X3659581Y3084474D01*
X3653332Y3079394D01*
X3552240Y2978251D01*
X3548938Y2976067D01*
X3545078Y2975305D01*
X3541166Y2976067D01*
X3537864Y2978251D01*
X3535679Y2981553D01*
X3534918Y2985465D01*
X3534918Y3047847D01*
X3534206Y3054197D01*
X3532276Y3059633D01*
X3529228Y3064560D01*
X3525113Y3068624D01*
X3520236Y3071723D01*
X3514750Y3073603D01*
X3508451Y3074314D01*
X3448761Y3074314D01*
X3444900Y3075127D01*
X3441598Y3077311D01*
X3439363Y3080613D01*
X3438601Y3084474D01*
X3438601Y3385413D01*
X3439363Y3389325D01*
X3441598Y3392627D01*
X3444900Y3394811D01*
X3448761Y3395573D01*
X3476904Y3395573D01*
X3483203Y3396284D01*
X3488690Y3398215D01*
X3493566Y3401314D01*
X3497681Y3405378D01*
X3500729Y3410305D01*
X3502660Y3415741D01*
X3503371Y3422040D01*
X3503371Y3520948D01*
X3502660Y3527247D01*
X3500729Y3532682D01*
X3497681Y3537610D01*
X3493566Y3541674D01*
X3488690Y3544773D01*
X3483203Y3546703D01*
X3476904Y3547414D01*
X3323031Y3547414D01*
X3316732Y3546703D01*
X3311245Y3544773D01*
X3306368Y3541674D01*
X3302254Y3537610D01*
X3299206Y3532682D01*
X3297275Y3527247D01*
X3296564Y3520948D01*
X3296564Y3422040D01*
X3297275Y3415741D01*
X3299206Y3410305D01*
X3302254Y3405378D01*
X3306368Y3401314D01*
X3311245Y3398215D01*
X3316732Y3396284D01*
X3323031Y3395573D01*
X3351225Y3395573D01*
X3355136Y3394811D01*
X3358438Y3392627D01*
X3360623Y3389325D01*
X3361385Y3385413D01*
X3361385Y3084474D01*
X3360623Y3080613D01*
X3358438Y3077311D01*
X3355136Y3075127D01*
X3351225Y3074314D01*
X3263087Y3074314D01*
X3256737Y3073603D01*
X3251301Y3071723D01*
X3246374Y3068624D01*
X3242310Y3064560D01*
X3239211Y3059633D01*
X3237280Y3054197D01*
X3236569Y3047847D01*
X3236569Y2920187D01*
X3235807Y2916326D01*
X3233623Y2913024D01*
X3230321Y2910789D01*
X3226409Y2910027D01*
X2973578Y2910027D01*
X2969666Y2910789D01*
X2966364Y2913024D01*
X2964180Y2916326D01*
X2963418Y2920187D01*
X2963418Y2923336D01*
X2962706Y2929686D01*
X2960776Y2935122D01*
X2957728Y2940050D01*
X2953613Y2944114D01*
X2948736Y2947212D01*
X2943250Y2949143D01*
X2936951Y2949854D01*
X2691587Y2949854D01*
X2685237Y2949143D01*
X2679801Y2947212D01*
X2674874Y2944114D01*
X2670810Y2940050D01*
X2667711Y2935122D01*
X2665780Y2929686D01*
X2665069Y2923336D01*
X2665069Y2819501D01*
X2665780Y2813151D01*
X2667711Y2807716D01*
X2670810Y2802788D01*
X2674874Y2798724D01*
X2679801Y2795625D01*
X2685237Y2793746D01*
X2691587Y2793034D01*
X2936951Y2793034D01*
X2943250Y2793746D01*
X2948736Y2795625D01*
X2953613Y2798724D01*
X2957728Y2802788D01*
X2960776Y2807716D01*
X2962706Y2813151D01*
X2963418Y2819501D01*
X2963418Y2822651D01*
X2964180Y2826562D01*
X2966364Y2829864D01*
X2969666Y2832049D01*
X2973578Y2832811D01*
X3226409Y2832811D01*
X3230321Y2832049D01*
X3233623Y2829864D01*
X3235807Y2826562D01*
X3236569Y2822651D01*
X3236569Y2694990D01*
X3237280Y2688691D01*
X3239211Y2683205D01*
X3242310Y2678328D01*
X3246374Y2674213D01*
X3251301Y2671165D01*
X3256737Y2669235D01*
X3263087Y2668524D01*
X3508451Y2668524D01*
X3514750Y2669235D01*
X3520236Y2671165D01*
X3525113Y2674213D01*
X3529228Y2678328D01*
X3532276Y2683205D01*
X3534206Y2688691D01*
X3534918Y2694990D01*
X3534918Y2847543D01*
X3535679Y2851404D01*
X3537864Y2854706D01*
X3694023Y3010865D01*
X3697325Y3013049D01*
X3701186Y3013811D01*
X5996330Y3013811D01*
X5999988Y3013100D01*
X6003188Y3011170D01*
X6005423Y3008172D01*
X6009386Y3000095D01*
X6017006Y2988716D01*
X6025997Y2978454D01*
X6036310Y2969412D01*
X6047689Y2961843D01*
X6059982Y2955747D01*
X6072936Y2951378D01*
X6086348Y2948686D01*
X6100013Y2947822D01*
X6113678Y2948686D01*
X6127089Y2951378D01*
X6135573Y2954223D01*
X6139281Y2954782D01*
X6142939Y2953918D01*
X6146038Y2951835D01*
X6428333Y2669489D01*
X6434582Y2664358D01*
X6441236Y2660802D01*
X6448450Y2658618D01*
X6456476Y2657805D01*
X6634480Y2657805D01*
X6637832Y2657246D01*
X6640779Y2655620D01*
X6643827Y2651861D01*
X6645198Y2648305D01*
X6645198Y2644546D01*
X6643065Y2639822D01*
X6640779Y2637282D01*
X6637832Y2635605D01*
X6634480Y2635046D01*
X6322212Y2635046D01*
X6318300Y2635808D01*
X6314998Y2638044D01*
X6200597Y2752394D01*
X6198514Y2755493D01*
X6197650Y2759151D01*
X6198158Y2762859D01*
X6201054Y2771343D01*
X6203746Y2784754D01*
X6204610Y2798419D01*
X6203746Y2812084D01*
X6201054Y2825496D01*
X6196685Y2838450D01*
X6190589Y2850743D01*
X6183020Y2862122D01*
X6173978Y2872384D01*
X6163716Y2881426D01*
X6152337Y2889046D01*
X6140043Y2895092D01*
X6127089Y2899511D01*
X6113678Y2902153D01*
X6100013Y2903067D01*
X6086348Y2902153D01*
X6072936Y2899511D01*
X6059982Y2895092D01*
X6047689Y2889046D01*
X6036310Y2881426D01*
X6025997Y2872384D01*
X6017006Y2862122D01*
X6009386Y2850743D01*
X6005423Y2842717D01*
X6003188Y2839720D01*
X5999988Y2837738D01*
X5996330Y2837027D01*
X5013248Y2837027D01*
X5005222Y2836265D01*
X4998008Y2834030D01*
X4991303Y2830474D01*
X4985105Y2825394D01*
X4932832Y2773121D01*
X4930038Y2771140D01*
X4926787Y2770174D01*
X4923383Y2770378D01*
X4914747Y2773629D01*
X4908448Y2774340D01*
X4663084Y2774340D01*
X4656734Y2773629D01*
X4651298Y2771698D01*
X4646371Y2768650D01*
X4642307Y2764536D01*
X4639208Y2759659D01*
X4637328Y2754172D01*
X4636617Y2747873D01*
X4636617Y2620213D01*
X4635804Y2616301D01*
X4633620Y2612999D01*
X4630318Y2610815D01*
X4626457Y2610053D01*
X4373575Y2610053D01*
X4369663Y2610815D01*
X4366361Y2612999D01*
X4364177Y2616301D01*
X4363415Y2620213D01*
X4363415Y2623362D01*
X4362704Y2629662D01*
X4360773Y2635148D01*
X4357725Y2640025D01*
X4353610Y2644140D01*
X4348734Y2647188D01*
X4343247Y2649118D01*
X4336948Y2649829D01*
X4091584Y2649829D01*
X4085234Y2649118D01*
X4079798Y2647188D01*
X4074871Y2644140D01*
X4070807Y2640025D01*
X4067708Y2635148D01*
X4065828Y2629662D01*
X4065117Y2623362D01*
X4065117Y2620213D01*
X4064304Y2616301D01*
X4062120Y2612999D01*
X4058818Y2610815D01*
X4054957Y2610053D01*
X3944975Y2610053D01*
X3941114Y2610815D01*
X3937812Y2612999D01*
X3936237Y2614574D01*
X3928160Y2620213D01*
X3919270Y2624378D01*
X3909771Y2626918D01*
X3900017Y2627782D01*
X3890213Y2626918D01*
X3880713Y2624378D01*
X3871823Y2620213D01*
X3863797Y2614574D01*
X3856837Y2607665D01*
X3851198Y2599588D01*
X3847033Y2590698D01*
X3844493Y2581198D01*
X3843629Y2571445D01*
X3844493Y2561640D01*
X3847033Y2552141D01*
X3851198Y2543251D01*
X3856837Y2535224D01*
X3863797Y2528265D01*
X3871823Y2522626D01*
X3880713Y2518460D01*
X3890213Y2515920D01*
X3900017Y2515057D01*
X3909771Y2515920D01*
X3919270Y2518460D01*
X3928160Y2522626D01*
X3936237Y2528265D01*
X3937812Y2529840D01*
X3941114Y2532024D01*
X3944975Y2532837D01*
X4054957Y2532837D01*
X4058818Y2532024D01*
X4062120Y2529840D01*
X4064304Y2526538D01*
X4065117Y2522677D01*
X4065117Y2519476D01*
X4065828Y2513177D01*
X4067708Y2507691D01*
X4070807Y2502814D01*
X4074871Y2498699D01*
X4079798Y2495651D01*
X4085234Y2493721D01*
X4091584Y2493010D01*
X4336948Y2493010D01*
X4343247Y2493721D01*
X4348734Y2495651D01*
X4353610Y2498699D01*
X4357725Y2502814D01*
X4360773Y2507691D01*
X4362704Y2513177D01*
X4363415Y2519476D01*
X4363415Y2522677D01*
X4364177Y2526538D01*
X4366361Y2529840D01*
X4369663Y2532024D01*
X4373575Y2532837D01*
X4626457Y2532837D01*
X4630318Y2532024D01*
X4633620Y2529840D01*
X4635804Y2526538D01*
X4636617Y2522677D01*
X4636617Y2395016D01*
X4637328Y2388666D01*
X4639208Y2383231D01*
X4642307Y2378303D01*
X4646371Y2374239D01*
X4651298Y2371140D01*
X4656734Y2369210D01*
G37*
G36*
X338023Y2504338D02*
G01*
X351586Y2505252D01*
X364947Y2507945D01*
X377850Y2512466D01*
X390042Y2518613D01*
X401269Y2526334D01*
X411378Y2535478D01*
X420166Y2545892D01*
X427532Y2557373D01*
X433273Y2569718D01*
X437286Y2582773D01*
X439572Y2596184D01*
X440029Y2609850D01*
X438658Y2623413D01*
X435508Y2636672D01*
X430580Y2649423D01*
X424027Y2661361D01*
X415950Y2672334D01*
X406501Y2682138D01*
X395782Y2690571D01*
X384048Y2697530D01*
X371500Y2702864D01*
X358343Y2706471D01*
X344830Y2708300D01*
X331165Y2708300D01*
X317652Y2706471D01*
X304495Y2702864D01*
X291947Y2697530D01*
X280212Y2690571D01*
X269544Y2682138D01*
X260045Y2672334D01*
X251967Y2661361D01*
X245414Y2649423D01*
X240487Y2636672D01*
X237337Y2623413D01*
X235966Y2609850D01*
X236423Y2596184D01*
X238709Y2582773D01*
X242722Y2569718D01*
X248462Y2557373D01*
X255828Y2545892D01*
X264617Y2535478D01*
X274726Y2526334D01*
X285953Y2518613D01*
X298145Y2512466D01*
X311048Y2507945D01*
X324408Y2505252D01*
G37*
G36*
X1862023Y2504338D02*
G01*
X1875586Y2505252D01*
X1888947Y2507945D01*
X1901850Y2512466D01*
X1914042Y2518613D01*
X1925269Y2526334D01*
X1935378Y2535478D01*
X1944166Y2545892D01*
X1951532Y2557373D01*
X1957273Y2569718D01*
X1961286Y2582773D01*
X1963572Y2596184D01*
X1964029Y2609850D01*
X1962657Y2623413D01*
X1959508Y2636672D01*
X1954580Y2649423D01*
X1948027Y2661361D01*
X1939950Y2672334D01*
X1930501Y2682138D01*
X1919782Y2690571D01*
X1908048Y2697530D01*
X1895500Y2702864D01*
X1882343Y2706471D01*
X1868830Y2708300D01*
X1855165Y2708300D01*
X1841652Y2706471D01*
X1828495Y2702864D01*
X1815947Y2697530D01*
X1804212Y2690571D01*
X1793544Y2682138D01*
X1784045Y2672334D01*
X1775968Y2661361D01*
X1769414Y2649423D01*
X1764487Y2636672D01*
X1761337Y2623413D01*
X1759966Y2609850D01*
X1760423Y2596184D01*
X1762709Y2582773D01*
X1766722Y2569718D01*
X1772462Y2557373D01*
X1779828Y2545892D01*
X1788617Y2535478D01*
X1798726Y2526334D01*
X1809953Y2518613D01*
X1822145Y2512466D01*
X1835048Y2507945D01*
X1848408Y2505252D01*
G37*

%LPD*%
D11*
X5799996Y2671429D02*
G01*
X5926996Y2544429D01*
X6099995Y2544429D01*
D10*
X2800004Y476458D02*
G01*
X2805028Y471429D01*
X3100003Y471429D01*
D11*
X3100003Y271426D02*
G01*
X3399993Y271426D01*
X3100003Y3671425D02*
G01*
X3700005Y3671425D01*
X3700005Y3671425D02*
G01*
X3800005Y3671425D01*
X4100007Y3371430D01*
X4300006Y3371430D01*
X4500006Y3571430D01*
D10*
X2800004Y3466401D02*
G01*
X2805028Y3471430D01*
X3100003Y3471430D01*
X6742511Y1446430D02*
G01*
X6205997Y1446430D01*
X6100008Y1552422D01*
X6742511Y1346431D02*
G01*
X6148016Y1346431D01*
X6100008Y1298422D01*
X6742511Y2596438D02*
G01*
X6301991Y2596438D01*
X6100008Y2798424D01*
X6742511Y2696438D02*
G01*
X6455991Y2696438D01*
X6100008Y3052424D01*
D11*
X4799995Y3571430D02*
G01*
X4799995Y3871424D01*
X4799995Y371426D02*
G01*
X4799995Y71427D01*
D12*
X6100008Y2544424D02*
G01*
X6148016Y2496413D01*
X6742511Y2496413D01*
X6100008Y1044422D02*
G01*
X6302016Y1246431D01*
X6742511Y1246431D01*
D10*
X2914256Y2871424D02*
G01*
X3385743Y2871424D01*
X3385753Y2871424D02*
G01*
X3400005Y2885673D01*
X3400005Y3471430D01*
X3385753Y2871424D02*
G01*
X3500005Y2871424D01*
X3681006Y3052424D01*
X6100008Y3052424D01*
D11*
X3499993Y2471422D02*
G01*
X3829994Y2801424D01*
X4214256Y2801424D01*
D10*
X1862002Y1844428D02*
G01*
X2659001Y2641429D01*
X2814253Y2641429D01*
X3899994Y2571424D02*
G01*
X4785743Y2571424D01*
X4785756Y2571429D02*
G01*
X5012743Y2798424D01*
X6100008Y2798424D01*
X1862002Y1590428D02*
G01*
X2613002Y2341422D01*
X4214243Y2341422D01*
X3700005Y3321430D02*
G01*
X3700005Y3471430D01*
D11*
X1862002Y3114428D02*
G01*
X1879998Y3096427D01*
X2814253Y3101426D01*
D10*
X4199991Y2199995D02*
G01*
X4199991Y2341432D01*
X4214253Y2341432D01*
X3150108Y1474978D02*
G01*
X2196591Y1474978D01*
X3131372Y1474978D02*
G01*
X3400000Y1206350D01*
X3400000Y471426D01*
X1862073Y1844547D02*
G01*
X1700021Y1682495D01*
X1700021Y1549907D01*
X1774952Y1474978D01*
X3150108Y1474978D01*
X3227324Y1552447D01*
X6100063Y1552447D01*
X6100063Y1299971D02*
G01*
X4299965Y1299971D01*
X4199890Y1400047D01*
X4299965Y1299971D02*
G01*
X3700002Y700008D01*
X3700002Y471426D01*
D11*
X3400043Y271526D02*
G01*
X3771391Y271526D01*
X4071365Y571500D01*
X4299965Y571500D01*
X4499863Y371347D01*
X1862000Y3114428D02*
G01*
X1314429Y3114428D01*
X846000Y2645999D01*
X846000Y320428D01*
X2200003Y71427D02*
G01*
X5699996Y71427D01*
X5699996Y644410D01*
X6100008Y1044422D01*
X2200000Y71427D02*
G01*
X2196426Y75001D01*
X950000Y75001D01*
X846000Y179001D01*
X846000Y320428D01*
X1862002Y3622428D02*
G01*
X2111004Y3871424D01*
X5619107Y3871424D01*
D14*
G01*
X3699941Y271348D03*
G01*
X3699941Y471347D03*
G01*
X3399967Y271348D03*
G01*
X3399967Y471347D03*
G01*
X3399967Y3671493D03*
G01*
X3399967Y3471494D03*
G01*
X3699941Y3671493D03*
G01*
X3699941Y3471494D03*
D15*
G01*
X6742506Y1446428D03*
G01*
X6742506Y1346428D03*
G01*
X6742506Y1246428D03*
D16*
G01*
X7130008Y1016431D03*
G01*
X7130008Y1576425D03*
D15*
G01*
X6742506Y1146429D03*
G01*
X6742506Y2696438D03*
G01*
X6742506Y2596438D03*
G01*
X6742506Y2496413D03*
D16*
G01*
X7130008Y2266416D03*
G01*
X7130008Y2826435D03*
D15*
G01*
X6742506Y2396413D03*
D17*
G01*
X2799994Y476453D03*
G01*
X2799994Y266395D03*
G01*
X2799994Y3466388D03*
G01*
X2799994Y3676446D03*
G36*
X2691000Y3153925D02*
G01*
X2691000Y3048927D01*
X2937502Y3048927D01*
X2937502Y3153925D01*
G37*
G36*
X2691000Y2923926D02*
G01*
X2691000Y2818927D01*
X2937502Y2818927D01*
X2937502Y2923926D01*
G37*
G36*
X2691000Y2693926D02*
G01*
X2691000Y2588928D01*
X2937502Y2588928D01*
X2937502Y2693926D01*
G37*
G36*
X3262500Y2694426D02*
G01*
X3262500Y3048426D01*
X3509002Y3048426D01*
X3509002Y2694426D01*
G37*
G36*
X4091000Y2853926D02*
G01*
X4091000Y2748927D01*
X4337502Y2748927D01*
X4337502Y2853926D01*
G37*
G36*
X4091000Y2623926D02*
G01*
X4091000Y2518928D01*
X4337502Y2518928D01*
X4337502Y2623926D01*
G37*
G36*
X4091000Y2393927D02*
G01*
X4091000Y2288928D01*
X4337502Y2288928D01*
X4337502Y2393927D01*
G37*
G36*
X4662500Y2394427D02*
G01*
X4662500Y2748427D01*
X4909002Y2748427D01*
X4909002Y2394427D01*
G37*
D14*
G01*
X3099993Y271424D03*
G01*
X3099993Y471423D03*
G01*
X3099993Y3671417D03*
G01*
X3099993Y3471418D03*
D20*
G01*
X6099987Y790422D03*
D21*
G01*
X6100013Y1044422D03*
G01*
X6100013Y1298422D03*
G01*
X6100013Y1552422D03*
D20*
G01*
X6099987Y2290419D03*
D21*
G01*
X6100013Y2544419D03*
G01*
X6100013Y2798419D03*
G01*
X6100013Y3052419D03*
D22*
G01*
X5099989Y371424D03*
G01*
X4799990Y371424D03*
G01*
X4499990Y371424D03*
G01*
X5099989Y3571417D03*
G01*
X4799990Y3571417D03*
G01*
X4499990Y3571417D03*
D23*
G01*
X1861997Y3622420D03*
G01*
X1861997Y3368420D03*
G01*
X1861997Y3114420D03*
G01*
X1861997Y2860420D03*
G01*
X1861997Y2606420D03*
G01*
X1861997Y2352420D03*
G01*
X1861997Y2098420D03*
G01*
X1861997Y1844420D03*
G01*
X1861997Y1590420D03*
G01*
X1861997Y1336420D03*
G01*
X1861997Y1082420D03*
G01*
X1861997Y828420D03*
G01*
X1861997Y574420D03*
G01*
X1861997Y320420D03*
G01*
X1607997Y3368420D03*
G01*
X1607997Y2860420D03*
G01*
X1607997Y2606420D03*
G01*
X1607997Y2352420D03*
G01*
X1607997Y320420D03*
G01*
X1353997Y320420D03*
G01*
X1099997Y320420D03*
G01*
X845997Y320420D03*
G01*
X591997Y320420D03*
G01*
X337997Y333120D03*
G01*
X337997Y574420D03*
G01*
X337997Y828420D03*
G01*
X337997Y1082420D03*
G01*
X337997Y1336420D03*
G01*
X337997Y1590420D03*
G01*
X337997Y1844420D03*
G01*
X337997Y2098420D03*
G01*
X337997Y2352420D03*
G01*
X337997Y2606420D03*
G01*
X337997Y2860420D03*
G01*
X337997Y3114420D03*
G01*
X337997Y3368420D03*
G01*
X337997Y3622420D03*
D13*
G01*
X5800013Y2671419D03*
G01*
X5619115Y3871417D03*
G01*
X2199995Y3096437D03*
G01*
X3499993Y2471420D03*
G01*
X3899992Y2571419D03*
G01*
X3699992Y3321430D03*
G01*
X4199991Y1399997D03*
G01*
X4199991Y2199995D03*
G01*
X599998Y999997D03*
G01*
X599998Y1499996D03*
G01*
X599998Y1999995D03*
G01*
X599998Y2499995D03*
G01*
X599998Y2999994D03*
G01*
X599998Y499998D03*
G01*
X1099997Y499998D03*
G01*
X1099997Y999997D03*
G01*
X1099997Y1499996D03*
G01*
X1099997Y1999995D03*
G01*
X1099997Y2499995D03*
G01*
X999997Y3399993D03*
G01*
X1499996Y499998D03*
G01*
X1499996Y999997D03*
G01*
X1499996Y1499996D03*
G01*
X1499996Y1999995D03*
G01*
X1399997Y2499995D03*
G01*
X1399997Y2899994D03*
G01*
X2499995Y499998D03*
G01*
X2499995Y999997D03*
G01*
X2499995Y1999995D03*
G01*
X2499995Y2699994D03*
G01*
X2499995Y3299993D03*
G01*
X5499988Y1424990D03*
G01*
X4999990Y1424990D03*
G01*
X4499990Y1424990D03*
G01*
X3699992Y1399997D03*
G01*
X3699992Y999997D03*
G01*
X7000011Y499998D03*
G01*
X6500012Y499998D03*
G01*
X6000013Y499998D03*
G01*
X6000013Y3499993D03*
G01*
X6500012Y3499993D03*
G01*
X7000011Y3499993D03*
G01*
X7000011Y1999995D03*
G01*
X6500012Y1999995D03*
G01*
X6000013Y1999995D03*
G01*
X5599988Y1999995D03*
G01*
X4999990Y1999995D03*
G01*
X4499990Y1999995D03*
G01*
X3999991Y1999995D03*
G01*
X3499993Y1999995D03*
G01*
X2999993Y1999995D03*
G01*
X5499988Y2899994D03*
G01*
X4999990Y2899994D03*
G01*
X3774998Y2475001D03*
G01*
X5499988Y2499995D03*
G01*
X4999990Y2499995D03*
G01*
X4499990Y999997D03*
G01*
X4999990Y999997D03*
G01*
X5499988Y999997D03*
G01*
X2999993Y999997D03*
G01*
X6500012Y999997D03*
G01*
X6500012Y2999994D03*
G01*
X3350006Y2575001D03*
G01*
X2199995Y3499993D03*
G01*
X6949998Y1150010D03*
G01*
X6925005Y2399995D03*
G01*
X3899992Y2950006D03*
G01*
X3599992Y2799994D03*
D24*
X5379999Y421424D02*
G01*
X5379999Y321424D01*
X4219981Y421424D02*
G01*
X4219981Y321424D01*
X5379999Y3621417D02*
G01*
X5379999Y3521417D01*
X4219981Y3621417D02*
G01*
X4219981Y3521417D01*
M02*
