G04 Layer: BottomLayer*
G04 EasyEDA v6.4.25, 2022-02-05T09:57:48+11:00*
G04 a67cddfb3fce44daa9051d46cbbcc19f,10*
G04 Gerber Generator version 0.2*
G04 Scale: 100 percent, Rotated: No, Reflected: No *
G04 Dimensions in millimeters *
G04 leading zeros omitted , absolute positions ,4 integer and 5 decimal *
%FSLAX45Y45*%
%MOMM*%

%ADD10C,0.2540*%
%ADD11C,1.0000*%
%ADD13C,0.6096*%
%ADD20R,1.5748X1.5748*%
%ADD21C,1.5748*%
%ADD22C,1.8000*%
%ADD23C,1.5240*%
%ADD24C,1.5000*%

%LPD*%
G36*
X300278Y25908D02*
G01*
X278079Y26822D01*
X256743Y29362D01*
X235610Y33629D01*
X214934Y39471D01*
X194767Y46939D01*
X175209Y55981D01*
X156464Y66548D01*
X138582Y78536D01*
X121716Y91846D01*
X105918Y106476D01*
X91338Y122326D01*
X78028Y139242D01*
X66141Y157124D01*
X55626Y175920D01*
X46634Y195478D01*
X39217Y215696D01*
X33426Y236423D01*
X29260Y257505D01*
X26771Y278892D01*
X25908Y300685D01*
X25908Y3699306D01*
X26822Y3721912D01*
X29362Y3743248D01*
X33629Y3764381D01*
X39471Y3785057D01*
X46939Y3805224D01*
X55981Y3824782D01*
X66548Y3843528D01*
X78536Y3861409D01*
X91846Y3878275D01*
X106476Y3894074D01*
X122326Y3908653D01*
X139242Y3921963D01*
X157124Y3933901D01*
X175920Y3944365D01*
X195478Y3953357D01*
X215696Y3960774D01*
X236423Y3966565D01*
X257505Y3970731D01*
X278892Y3973220D01*
X300685Y3974084D01*
X6999325Y3974084D01*
X7021880Y3973169D01*
X7043267Y3970629D01*
X7064349Y3966413D01*
X7085075Y3960520D01*
X7105243Y3953052D01*
X7124750Y3944010D01*
X7143546Y3933444D01*
X7161428Y3921506D01*
X7178294Y3908145D01*
X7194092Y3893515D01*
X7208672Y3877665D01*
X7221931Y3860749D01*
X7233869Y3842867D01*
X7244384Y3824071D01*
X7253325Y3804513D01*
X7260793Y3784295D01*
X7266584Y3763568D01*
X7270750Y3742486D01*
X7273239Y3721100D01*
X7274102Y3699306D01*
X7274102Y300685D01*
X7273188Y278079D01*
X7270597Y256743D01*
X7266381Y235610D01*
X7260539Y214934D01*
X7253020Y194767D01*
X7244029Y175209D01*
X7233462Y156464D01*
X7221474Y138582D01*
X7208113Y121716D01*
X7193483Y105918D01*
X7177684Y91338D01*
X7160768Y78028D01*
X7142835Y66141D01*
X7124090Y55626D01*
X7104532Y46634D01*
X7084314Y39217D01*
X7063587Y33426D01*
X7042454Y29260D01*
X7021118Y26771D01*
X6999325Y25908D01*
G37*

%LPC*%
G36*
X382473Y3666896D02*
G01*
X429768Y3666896D01*
X424027Y3677361D01*
X415950Y3688334D01*
X406501Y3698138D01*
X395782Y3706571D01*
X384048Y3713530D01*
X382473Y3714191D01*
G37*
G36*
X1608023Y218338D02*
G01*
X1621586Y219252D01*
X1634947Y221945D01*
X1647850Y226466D01*
X1660042Y232613D01*
X1671269Y240334D01*
X1681378Y249478D01*
X1690166Y259892D01*
X1697532Y271373D01*
X1703273Y283718D01*
X1707286Y296773D01*
X1709572Y310184D01*
X1710029Y323850D01*
X1708657Y337413D01*
X1705508Y350672D01*
X1700580Y363423D01*
X1694027Y375361D01*
X1685950Y386334D01*
X1676501Y396138D01*
X1665782Y404571D01*
X1654048Y411530D01*
X1641500Y416864D01*
X1628343Y420471D01*
X1614830Y422300D01*
X1601165Y422300D01*
X1587652Y420471D01*
X1574495Y416864D01*
X1561947Y411530D01*
X1550212Y404571D01*
X1539544Y396138D01*
X1530045Y386334D01*
X1521968Y375361D01*
X1515414Y363423D01*
X1510487Y350672D01*
X1507337Y337413D01*
X1505966Y323850D01*
X1506423Y310184D01*
X1508709Y296773D01*
X1512722Y283718D01*
X1518462Y271373D01*
X1525828Y259892D01*
X1534617Y249478D01*
X1544726Y240334D01*
X1555953Y232613D01*
X1568145Y226466D01*
X1581048Y221945D01*
X1594408Y219252D01*
G37*
G36*
X592023Y218338D02*
G01*
X605586Y219252D01*
X618947Y221945D01*
X631850Y226466D01*
X644042Y232613D01*
X655269Y240334D01*
X665378Y249478D01*
X674166Y259892D01*
X681532Y271373D01*
X687273Y283718D01*
X691286Y296773D01*
X693572Y310184D01*
X694029Y323850D01*
X692658Y337413D01*
X689508Y350672D01*
X684580Y363423D01*
X678027Y375361D01*
X669950Y386334D01*
X660501Y396138D01*
X649782Y404571D01*
X638048Y411530D01*
X625500Y416864D01*
X612343Y420471D01*
X598830Y422300D01*
X585165Y422300D01*
X571652Y420471D01*
X558495Y416864D01*
X545947Y411530D01*
X534212Y404571D01*
X523544Y396138D01*
X514045Y386334D01*
X505968Y375361D01*
X499414Y363423D01*
X494487Y350672D01*
X491337Y337413D01*
X489966Y323850D01*
X490423Y310184D01*
X492709Y296773D01*
X496722Y283718D01*
X502462Y271373D01*
X509828Y259892D01*
X518617Y249478D01*
X528726Y240334D01*
X539953Y232613D01*
X552145Y226466D01*
X565048Y221945D01*
X578408Y219252D01*
G37*
G36*
X846023Y218338D02*
G01*
X859586Y219252D01*
X872947Y221945D01*
X885850Y226466D01*
X898042Y232613D01*
X909269Y240334D01*
X919378Y249478D01*
X928166Y259892D01*
X935532Y271373D01*
X941273Y283718D01*
X945286Y296773D01*
X947572Y310184D01*
X948029Y323850D01*
X946658Y337413D01*
X943508Y350672D01*
X938580Y363423D01*
X932027Y375361D01*
X923950Y386334D01*
X914501Y396138D01*
X903782Y404571D01*
X892048Y411530D01*
X879500Y416864D01*
X866343Y420471D01*
X852830Y422300D01*
X839165Y422300D01*
X825652Y420471D01*
X812495Y416864D01*
X799947Y411530D01*
X788212Y404571D01*
X777544Y396138D01*
X768045Y386334D01*
X759968Y375361D01*
X753414Y363423D01*
X748487Y350672D01*
X745337Y337413D01*
X743966Y323850D01*
X744423Y310184D01*
X746709Y296773D01*
X750722Y283718D01*
X756462Y271373D01*
X763828Y259892D01*
X772617Y249478D01*
X782726Y240334D01*
X793953Y232613D01*
X806145Y226466D01*
X819048Y221945D01*
X832408Y219252D01*
G37*
G36*
X1354023Y218338D02*
G01*
X1367586Y219252D01*
X1380947Y221945D01*
X1393850Y226466D01*
X1406042Y232613D01*
X1417269Y240334D01*
X1427378Y249478D01*
X1436166Y259892D01*
X1443532Y271373D01*
X1449273Y283718D01*
X1453286Y296773D01*
X1455572Y310184D01*
X1456029Y323850D01*
X1454658Y337413D01*
X1451508Y350672D01*
X1446580Y363423D01*
X1440027Y375361D01*
X1431950Y386334D01*
X1422501Y396138D01*
X1411782Y404571D01*
X1400048Y411530D01*
X1387500Y416864D01*
X1374343Y420471D01*
X1360830Y422300D01*
X1347165Y422300D01*
X1333652Y420471D01*
X1320495Y416864D01*
X1307947Y411530D01*
X1296212Y404571D01*
X1285544Y396138D01*
X1276045Y386334D01*
X1267968Y375361D01*
X1261414Y363423D01*
X1256487Y350672D01*
X1253337Y337413D01*
X1251966Y323850D01*
X1252423Y310184D01*
X1254709Y296773D01*
X1258722Y283718D01*
X1264462Y271373D01*
X1271828Y259892D01*
X1280617Y249478D01*
X1290726Y240334D01*
X1301953Y232613D01*
X1314145Y226466D01*
X1327048Y221945D01*
X1340408Y219252D01*
G37*
G36*
X5380024Y220522D02*
G01*
X5393182Y221386D01*
X5406136Y223977D01*
X5418582Y228244D01*
X5430418Y234035D01*
X5441391Y241401D01*
X5451348Y250088D01*
X5460034Y259994D01*
X5467350Y270967D01*
X5473192Y282803D01*
X5477459Y295300D01*
X5479999Y308254D01*
X5480913Y321767D01*
X5480913Y421081D01*
X5479999Y434593D01*
X5477459Y447548D01*
X5473192Y460044D01*
X5467350Y471881D01*
X5460034Y482854D01*
X5451348Y492759D01*
X5441391Y501446D01*
X5430418Y508812D01*
X5418582Y514654D01*
X5406136Y518871D01*
X5393182Y521462D01*
X5380024Y522325D01*
X5366816Y521462D01*
X5353913Y518871D01*
X5341416Y514654D01*
X5329580Y508812D01*
X5318607Y501446D01*
X5308650Y492759D01*
X5299964Y482854D01*
X5292648Y471881D01*
X5286806Y460044D01*
X5282539Y447548D01*
X5279999Y434593D01*
X5279085Y421081D01*
X5279085Y321767D01*
X5279999Y308254D01*
X5282539Y295300D01*
X5286806Y282803D01*
X5292648Y270967D01*
X5299964Y259994D01*
X5308650Y250088D01*
X5318607Y241401D01*
X5329580Y234035D01*
X5341416Y228244D01*
X5353913Y223977D01*
X5366816Y221386D01*
G37*
G36*
X4220006Y220522D02*
G01*
X4233164Y221386D01*
X4246118Y223977D01*
X4258614Y228244D01*
X4270451Y234035D01*
X4281424Y241401D01*
X4291330Y250088D01*
X4300016Y259994D01*
X4307382Y270967D01*
X4313224Y282803D01*
X4317441Y295300D01*
X4320032Y308254D01*
X4320895Y321767D01*
X4320895Y421081D01*
X4320032Y434593D01*
X4317441Y447548D01*
X4313224Y460044D01*
X4307382Y471881D01*
X4300016Y482854D01*
X4291330Y492759D01*
X4281424Y501446D01*
X4270451Y508812D01*
X4258614Y514654D01*
X4246118Y518871D01*
X4233164Y521462D01*
X4220006Y522325D01*
X4206849Y521462D01*
X4193895Y518871D01*
X4181398Y514654D01*
X4169562Y508812D01*
X4158589Y501446D01*
X4148683Y492759D01*
X4139946Y482854D01*
X4132630Y471881D01*
X4126788Y460044D01*
X4122572Y447548D01*
X4119981Y434593D01*
X4119118Y421081D01*
X4119118Y321767D01*
X4119981Y308254D01*
X4122572Y295300D01*
X4126788Y282803D01*
X4132630Y270967D01*
X4139946Y259994D01*
X4148683Y250088D01*
X4158589Y241401D01*
X4169562Y234035D01*
X4181398Y228244D01*
X4193895Y223977D01*
X4206849Y221386D01*
G37*
G36*
X1144473Y228752D02*
G01*
X1152042Y232613D01*
X1163269Y240334D01*
X1173378Y249478D01*
X1182166Y259892D01*
X1189532Y271373D01*
X1191666Y275996D01*
X1144473Y275996D01*
G37*
G36*
X1055573Y228752D02*
G01*
X1055573Y275996D01*
X1008329Y275996D01*
X1010462Y271373D01*
X1017828Y259892D01*
X1026617Y249478D01*
X1036726Y240334D01*
X1047953Y232613D01*
G37*
G36*
X338023Y231038D02*
G01*
X351586Y231952D01*
X364947Y234645D01*
X377850Y239166D01*
X390042Y245313D01*
X401269Y253034D01*
X411378Y262178D01*
X420166Y272592D01*
X427532Y284073D01*
X433273Y296418D01*
X437286Y309473D01*
X439572Y322884D01*
X440029Y336550D01*
X438658Y350113D01*
X435508Y363372D01*
X430580Y376123D01*
X424027Y388061D01*
X415950Y399034D01*
X406501Y408838D01*
X395782Y417271D01*
X384048Y424230D01*
X371500Y429564D01*
X358343Y433171D01*
X344830Y435000D01*
X331165Y435000D01*
X317652Y433171D01*
X304495Y429564D01*
X291947Y424230D01*
X280212Y417271D01*
X269544Y408838D01*
X260045Y399034D01*
X251967Y388061D01*
X245414Y376123D01*
X240487Y363372D01*
X237337Y350113D01*
X235966Y336550D01*
X236423Y322884D01*
X238709Y309473D01*
X242722Y296418D01*
X248462Y284073D01*
X255828Y272592D01*
X264617Y262178D01*
X274726Y253034D01*
X285953Y245313D01*
X298145Y239166D01*
X311048Y234645D01*
X324408Y231952D01*
G37*
G36*
X4492701Y255778D02*
G01*
X4507280Y255778D01*
X4521708Y257606D01*
X4535830Y261213D01*
X4549343Y266547D01*
X4562094Y273558D01*
X4573879Y282143D01*
X4584496Y292100D01*
X4593742Y303326D01*
X4601565Y315620D01*
X4607763Y328777D01*
X4612233Y342595D01*
X4614976Y356920D01*
X4615891Y371449D01*
X4614976Y385927D01*
X4612233Y400253D01*
X4607763Y414070D01*
X4601565Y427278D01*
X4593742Y439521D01*
X4584496Y450748D01*
X4573879Y460705D01*
X4562094Y469290D01*
X4549343Y476300D01*
X4535830Y481634D01*
X4521708Y485241D01*
X4507280Y487070D01*
X4492701Y487070D01*
X4478274Y485241D01*
X4464202Y481634D01*
X4450638Y476300D01*
X4437888Y469290D01*
X4426153Y460705D01*
X4415536Y450748D01*
X4406239Y439521D01*
X4398467Y427278D01*
X4392269Y414070D01*
X4387748Y400253D01*
X4385005Y385927D01*
X4384090Y371449D01*
X4385005Y356920D01*
X4387748Y342595D01*
X4392269Y328777D01*
X4398467Y315620D01*
X4406239Y303326D01*
X4415536Y292100D01*
X4426153Y282143D01*
X4437888Y273558D01*
X4450638Y266547D01*
X4464202Y261213D01*
X4478274Y257606D01*
G37*
G36*
X5092700Y255778D02*
G01*
X5107279Y255778D01*
X5121706Y257606D01*
X5135829Y261213D01*
X5149342Y266547D01*
X5162092Y273558D01*
X5173878Y282143D01*
X5184495Y292100D01*
X5193741Y303326D01*
X5201564Y315620D01*
X5207762Y328777D01*
X5212232Y342595D01*
X5214975Y356920D01*
X5215890Y371449D01*
X5214975Y385927D01*
X5212232Y400253D01*
X5207762Y414070D01*
X5201564Y427278D01*
X5193741Y439521D01*
X5184495Y450748D01*
X5173878Y460705D01*
X5162092Y469290D01*
X5149342Y476300D01*
X5135829Y481634D01*
X5121706Y485241D01*
X5107279Y487070D01*
X5092700Y487070D01*
X5078272Y485241D01*
X5064201Y481634D01*
X5050637Y476300D01*
X5037886Y469290D01*
X5026152Y460705D01*
X5015534Y450748D01*
X5006238Y439521D01*
X4998466Y427278D01*
X4992268Y414070D01*
X4987747Y400253D01*
X4985004Y385927D01*
X4984089Y371449D01*
X4985004Y356920D01*
X4987747Y342595D01*
X4992268Y328777D01*
X4998466Y315620D01*
X5006238Y303326D01*
X5015534Y292100D01*
X5026152Y282143D01*
X5037886Y273558D01*
X5050637Y266547D01*
X5064201Y261213D01*
X5078272Y257606D01*
G37*
G36*
X4792726Y255778D02*
G01*
X4807254Y255778D01*
X4821732Y257606D01*
X4835804Y261213D01*
X4849368Y266547D01*
X4862118Y273558D01*
X4873853Y282143D01*
X4884470Y292100D01*
X4893767Y303326D01*
X4901539Y315620D01*
X4907737Y328777D01*
X4912258Y342595D01*
X4914950Y356920D01*
X4915865Y371449D01*
X4914950Y385927D01*
X4912258Y400253D01*
X4907737Y414070D01*
X4901539Y427278D01*
X4893767Y439521D01*
X4884470Y450748D01*
X4873853Y460705D01*
X4862118Y469290D01*
X4849368Y476300D01*
X4835804Y481634D01*
X4821732Y485241D01*
X4807254Y487070D01*
X4792726Y487070D01*
X4778298Y485241D01*
X4764176Y481634D01*
X4750663Y476300D01*
X4737912Y469290D01*
X4726127Y460705D01*
X4715510Y450748D01*
X4706264Y439521D01*
X4698441Y427278D01*
X4692243Y414070D01*
X4687773Y400253D01*
X4685030Y385927D01*
X4684115Y371449D01*
X4685030Y356920D01*
X4687773Y342595D01*
X4692243Y328777D01*
X4698441Y315620D01*
X4706264Y303326D01*
X4715510Y292100D01*
X4726127Y282143D01*
X4737912Y273558D01*
X4750663Y266547D01*
X4764176Y261213D01*
X4778298Y257606D01*
G37*
G36*
X1008227Y364896D02*
G01*
X1055573Y364896D01*
X1055573Y412191D01*
X1053947Y411530D01*
X1042212Y404571D01*
X1031544Y396138D01*
X1022045Y386334D01*
X1013968Y375361D01*
G37*
G36*
X1144473Y364896D02*
G01*
X1191768Y364896D01*
X1186027Y375361D01*
X1177950Y386334D01*
X1168501Y396138D01*
X1157782Y404571D01*
X1146048Y411530D01*
X1144473Y412191D01*
G37*
G36*
X1862023Y472338D02*
G01*
X1875586Y473252D01*
X1888947Y475945D01*
X1901850Y480466D01*
X1914042Y486613D01*
X1925269Y494334D01*
X1935378Y503478D01*
X1944166Y513892D01*
X1951532Y525373D01*
X1957273Y537718D01*
X1961286Y550773D01*
X1963572Y564184D01*
X1964029Y577850D01*
X1962657Y591413D01*
X1959508Y604672D01*
X1954580Y617423D01*
X1948027Y629361D01*
X1939950Y640334D01*
X1930501Y650138D01*
X1919782Y658571D01*
X1908048Y665530D01*
X1895500Y670864D01*
X1882343Y674471D01*
X1868830Y676300D01*
X1855165Y676300D01*
X1841652Y674471D01*
X1828495Y670864D01*
X1815947Y665530D01*
X1804212Y658571D01*
X1793544Y650138D01*
X1784045Y640334D01*
X1775968Y629361D01*
X1769414Y617423D01*
X1764487Y604672D01*
X1761337Y591413D01*
X1759966Y577850D01*
X1760423Y564184D01*
X1762709Y550773D01*
X1766722Y537718D01*
X1772462Y525373D01*
X1779828Y513892D01*
X1788617Y503478D01*
X1798726Y494334D01*
X1809953Y486613D01*
X1822145Y480466D01*
X1835048Y475945D01*
X1848408Y473252D01*
G37*
G36*
X338023Y472338D02*
G01*
X351586Y473252D01*
X364947Y475945D01*
X377850Y480466D01*
X390042Y486613D01*
X401269Y494334D01*
X411378Y503478D01*
X420166Y513892D01*
X427532Y525373D01*
X433273Y537718D01*
X437286Y550773D01*
X439572Y564184D01*
X440029Y577850D01*
X438658Y591413D01*
X435508Y604672D01*
X430580Y617423D01*
X424027Y629361D01*
X415950Y640334D01*
X406501Y650138D01*
X395782Y658571D01*
X384048Y665530D01*
X371500Y670864D01*
X358343Y674471D01*
X344830Y676300D01*
X331165Y676300D01*
X317652Y674471D01*
X304495Y670864D01*
X291947Y665530D01*
X280212Y658571D01*
X269544Y650138D01*
X260045Y640334D01*
X251967Y629361D01*
X245414Y617423D01*
X240487Y604672D01*
X237337Y591413D01*
X235966Y577850D01*
X236423Y564184D01*
X238709Y550773D01*
X242722Y537718D01*
X248462Y525373D01*
X255828Y513892D01*
X264617Y503478D01*
X274726Y494334D01*
X285953Y486613D01*
X298145Y480466D01*
X311048Y475945D01*
X324408Y473252D01*
G37*
G36*
X6145733Y685800D02*
G01*
X6178194Y685800D01*
X6184493Y686511D01*
X6189929Y688390D01*
X6194856Y691489D01*
X6198920Y695553D01*
X6202019Y700481D01*
X6203950Y705916D01*
X6204661Y712266D01*
X6204661Y744728D01*
X6145733Y744728D01*
G37*
G36*
X6021832Y685800D02*
G01*
X6054293Y685800D01*
X6054293Y744728D01*
X5995365Y744728D01*
X5995365Y712266D01*
X5996076Y705916D01*
X5997956Y700481D01*
X6001054Y695553D01*
X6005169Y691489D01*
X6010046Y688390D01*
X6015532Y686511D01*
G37*
G36*
X1862023Y726338D02*
G01*
X1875586Y727252D01*
X1888947Y729945D01*
X1901850Y734466D01*
X1914042Y740613D01*
X1925269Y748334D01*
X1935378Y757478D01*
X1944166Y767892D01*
X1951532Y779373D01*
X1957273Y791718D01*
X1961286Y804773D01*
X1963572Y818184D01*
X1964029Y831850D01*
X1962657Y845413D01*
X1959508Y858672D01*
X1954580Y871423D01*
X1948027Y883361D01*
X1939950Y894334D01*
X1930501Y904138D01*
X1919782Y912571D01*
X1908048Y919530D01*
X1895500Y924864D01*
X1882343Y928471D01*
X1868830Y930300D01*
X1855165Y930300D01*
X1841652Y928471D01*
X1828495Y924864D01*
X1815947Y919530D01*
X1804212Y912571D01*
X1793544Y904138D01*
X1784045Y894334D01*
X1775968Y883361D01*
X1769414Y871423D01*
X1764487Y858672D01*
X1761337Y845413D01*
X1759966Y831850D01*
X1760423Y818184D01*
X1762709Y804773D01*
X1766722Y791718D01*
X1772462Y779373D01*
X1779828Y767892D01*
X1788617Y757478D01*
X1798726Y748334D01*
X1809953Y740613D01*
X1822145Y734466D01*
X1835048Y729945D01*
X1848408Y727252D01*
G37*
G36*
X338023Y726338D02*
G01*
X351586Y727252D01*
X364947Y729945D01*
X377850Y734466D01*
X390042Y740613D01*
X401269Y748334D01*
X411378Y757478D01*
X420166Y767892D01*
X427532Y779373D01*
X433273Y791718D01*
X437286Y804773D01*
X439572Y818184D01*
X440029Y831850D01*
X438658Y845413D01*
X435508Y858672D01*
X430580Y871423D01*
X424027Y883361D01*
X415950Y894334D01*
X406501Y904138D01*
X395782Y912571D01*
X384048Y919530D01*
X371500Y924864D01*
X358343Y928471D01*
X344830Y930300D01*
X331165Y930300D01*
X317652Y928471D01*
X304495Y924864D01*
X291947Y919530D01*
X280212Y912571D01*
X269544Y904138D01*
X260045Y894334D01*
X251967Y883361D01*
X245414Y871423D01*
X240487Y858672D01*
X237337Y845413D01*
X235966Y831850D01*
X236423Y818184D01*
X238709Y804773D01*
X242722Y791718D01*
X248462Y779373D01*
X255828Y767892D01*
X264617Y757478D01*
X274726Y748334D01*
X285953Y740613D01*
X298145Y734466D01*
X311048Y729945D01*
X324408Y727252D01*
G37*
G36*
X6145733Y836168D02*
G01*
X6204661Y836168D01*
X6204661Y868578D01*
X6203950Y874928D01*
X6202019Y880364D01*
X6198920Y885291D01*
X6194856Y889355D01*
X6189929Y892454D01*
X6184493Y894384D01*
X6178194Y895096D01*
X6145733Y895096D01*
G37*
G36*
X5995365Y836168D02*
G01*
X6054293Y836168D01*
X6054293Y895096D01*
X6021832Y895096D01*
X6015532Y894384D01*
X6010046Y892454D01*
X6005169Y889355D01*
X6001054Y885291D01*
X5997956Y880364D01*
X5996076Y874928D01*
X5995365Y868578D01*
G37*
G36*
X6100013Y939800D02*
G01*
X6113678Y940714D01*
X6127089Y943356D01*
X6140043Y947775D01*
X6152337Y953820D01*
X6163716Y961440D01*
X6173978Y970432D01*
X6183020Y980744D01*
X6190589Y992124D01*
X6196685Y1004366D01*
X6201054Y1017371D01*
X6203746Y1030782D01*
X6204610Y1044448D01*
X6203746Y1058062D01*
X6201054Y1071524D01*
X6196685Y1084478D01*
X6190589Y1096721D01*
X6183020Y1108100D01*
X6173978Y1118412D01*
X6163716Y1127455D01*
X6152337Y1135024D01*
X6140043Y1141069D01*
X6127089Y1145489D01*
X6113678Y1148181D01*
X6100013Y1149045D01*
X6086348Y1148181D01*
X6072936Y1145489D01*
X6059982Y1141069D01*
X6047689Y1135024D01*
X6036310Y1127455D01*
X6025997Y1118412D01*
X6017006Y1108100D01*
X6009386Y1096721D01*
X6003340Y1084478D01*
X5998921Y1071524D01*
X5996279Y1058062D01*
X5995365Y1044448D01*
X5996279Y1030782D01*
X5998921Y1017371D01*
X6003340Y1004366D01*
X6009386Y992124D01*
X6017006Y980744D01*
X6025997Y970432D01*
X6036310Y961440D01*
X6047689Y953820D01*
X6059982Y947775D01*
X6072936Y943356D01*
X6086348Y940714D01*
G37*
G36*
X1862023Y980338D02*
G01*
X1875586Y981252D01*
X1888947Y983945D01*
X1901850Y988466D01*
X1914042Y994613D01*
X1925269Y1002334D01*
X1935378Y1011478D01*
X1944166Y1021892D01*
X1951532Y1033373D01*
X1957273Y1045718D01*
X1961286Y1058773D01*
X1963572Y1072184D01*
X1964029Y1085850D01*
X1962657Y1099413D01*
X1959508Y1112672D01*
X1954580Y1125423D01*
X1948027Y1137361D01*
X1939950Y1148334D01*
X1930501Y1158138D01*
X1919782Y1166571D01*
X1908048Y1173530D01*
X1895500Y1178864D01*
X1882343Y1182471D01*
X1868830Y1184300D01*
X1855165Y1184300D01*
X1841652Y1182471D01*
X1828495Y1178864D01*
X1815947Y1173530D01*
X1804212Y1166571D01*
X1793544Y1158138D01*
X1784045Y1148334D01*
X1775968Y1137361D01*
X1769414Y1125423D01*
X1764487Y1112672D01*
X1761337Y1099413D01*
X1759966Y1085850D01*
X1760423Y1072184D01*
X1762709Y1058773D01*
X1766722Y1045718D01*
X1772462Y1033373D01*
X1779828Y1021892D01*
X1788617Y1011478D01*
X1798726Y1002334D01*
X1809953Y994613D01*
X1822145Y988466D01*
X1835048Y983945D01*
X1848408Y981252D01*
G37*
G36*
X338023Y980338D02*
G01*
X351586Y981252D01*
X364947Y983945D01*
X377850Y988466D01*
X390042Y994613D01*
X401269Y1002334D01*
X411378Y1011478D01*
X420166Y1021892D01*
X427532Y1033373D01*
X433273Y1045718D01*
X437286Y1058773D01*
X439572Y1072184D01*
X440029Y1085850D01*
X438658Y1099413D01*
X435508Y1112672D01*
X430580Y1125423D01*
X424027Y1137361D01*
X415950Y1148334D01*
X406501Y1158138D01*
X395782Y1166571D01*
X384048Y1173530D01*
X371500Y1178864D01*
X358343Y1182471D01*
X344830Y1184300D01*
X331165Y1184300D01*
X317652Y1182471D01*
X304495Y1178864D01*
X291947Y1173530D01*
X280212Y1166571D01*
X269544Y1158138D01*
X260045Y1148334D01*
X251967Y1137361D01*
X245414Y1125423D01*
X240487Y1112672D01*
X237337Y1099413D01*
X235966Y1085850D01*
X236423Y1072184D01*
X238709Y1058773D01*
X242722Y1045718D01*
X248462Y1033373D01*
X255828Y1021892D01*
X264617Y1011478D01*
X274726Y1002334D01*
X285953Y994613D01*
X298145Y988466D01*
X311048Y983945D01*
X324408Y981252D01*
G37*
G36*
X6100013Y1193800D02*
G01*
X6113678Y1194714D01*
X6127089Y1197356D01*
X6140043Y1201775D01*
X6152337Y1207820D01*
X6163716Y1215440D01*
X6173978Y1224432D01*
X6183020Y1234744D01*
X6190589Y1246124D01*
X6196685Y1258366D01*
X6201054Y1271371D01*
X6203746Y1284782D01*
X6204610Y1298448D01*
X6203746Y1312062D01*
X6201054Y1325524D01*
X6196685Y1338478D01*
X6190589Y1350721D01*
X6183020Y1362100D01*
X6173978Y1372412D01*
X6163716Y1381455D01*
X6152337Y1389024D01*
X6140043Y1395069D01*
X6127089Y1399489D01*
X6113678Y1402181D01*
X6100013Y1403045D01*
X6086348Y1402181D01*
X6072936Y1399489D01*
X6059982Y1395069D01*
X6047689Y1389024D01*
X6036310Y1381455D01*
X6025997Y1372412D01*
X6017006Y1362100D01*
X6009386Y1350721D01*
X6003340Y1338478D01*
X5998921Y1325524D01*
X5996279Y1312062D01*
X5995365Y1298448D01*
X5996279Y1284782D01*
X5998921Y1271371D01*
X6003340Y1258366D01*
X6009386Y1246124D01*
X6017006Y1234744D01*
X6025997Y1224432D01*
X6036310Y1215440D01*
X6047689Y1207820D01*
X6059982Y1201775D01*
X6072936Y1197356D01*
X6086348Y1194714D01*
G37*
G36*
X1862023Y1234338D02*
G01*
X1875586Y1235252D01*
X1888947Y1237945D01*
X1901850Y1242466D01*
X1914042Y1248613D01*
X1925269Y1256334D01*
X1935378Y1265478D01*
X1944166Y1275892D01*
X1951532Y1287373D01*
X1957273Y1299718D01*
X1961286Y1312773D01*
X1963572Y1326184D01*
X1964029Y1339850D01*
X1962657Y1353413D01*
X1959508Y1366672D01*
X1954580Y1379423D01*
X1948027Y1391361D01*
X1939950Y1402334D01*
X1930501Y1412138D01*
X1919782Y1420571D01*
X1908048Y1427530D01*
X1895500Y1432864D01*
X1882343Y1436471D01*
X1868830Y1438300D01*
X1855165Y1438300D01*
X1841652Y1436471D01*
X1828495Y1432864D01*
X1815947Y1427530D01*
X1804212Y1420571D01*
X1793544Y1412138D01*
X1784045Y1402334D01*
X1775968Y1391361D01*
X1769414Y1379423D01*
X1764487Y1366672D01*
X1761337Y1353413D01*
X1759966Y1339850D01*
X1760423Y1326184D01*
X1762709Y1312773D01*
X1766722Y1299718D01*
X1772462Y1287373D01*
X1779828Y1275892D01*
X1788617Y1265478D01*
X1798726Y1256334D01*
X1809953Y1248613D01*
X1822145Y1242466D01*
X1835048Y1237945D01*
X1848408Y1235252D01*
G37*
G36*
X338023Y1234338D02*
G01*
X351586Y1235252D01*
X364947Y1237945D01*
X377850Y1242466D01*
X390042Y1248613D01*
X401269Y1256334D01*
X411378Y1265478D01*
X420166Y1275892D01*
X427532Y1287373D01*
X433273Y1299718D01*
X437286Y1312773D01*
X439572Y1326184D01*
X440029Y1339850D01*
X438658Y1353413D01*
X435508Y1366672D01*
X430580Y1379423D01*
X424027Y1391361D01*
X415950Y1402334D01*
X406501Y1412138D01*
X395782Y1420571D01*
X384048Y1427530D01*
X371500Y1432864D01*
X358343Y1436471D01*
X344830Y1438300D01*
X331165Y1438300D01*
X317652Y1436471D01*
X304495Y1432864D01*
X291947Y1427530D01*
X280212Y1420571D01*
X269544Y1412138D01*
X260045Y1402334D01*
X251967Y1391361D01*
X245414Y1379423D01*
X240487Y1366672D01*
X237337Y1353413D01*
X235966Y1339850D01*
X236423Y1326184D01*
X238709Y1312773D01*
X242722Y1299718D01*
X248462Y1287373D01*
X255828Y1275892D01*
X264617Y1265478D01*
X274726Y1256334D01*
X285953Y1248613D01*
X298145Y1242466D01*
X311048Y1237945D01*
X324408Y1235252D01*
G37*
G36*
X4199991Y1343660D02*
G01*
X4209796Y1344523D01*
X4219295Y1347063D01*
X4228185Y1351178D01*
X4236212Y1356817D01*
X4243171Y1363776D01*
X4248810Y1371803D01*
X4252925Y1380744D01*
X4255516Y1390192D01*
X4256328Y1399997D01*
X4255516Y1409801D01*
X4252925Y1419250D01*
X4248810Y1428191D01*
X4243171Y1436217D01*
X4241596Y1437792D01*
X4239361Y1441094D01*
X4238599Y1445006D01*
X4238599Y2154986D01*
X4239361Y2158898D01*
X4241596Y2162200D01*
X4243171Y2163775D01*
X4248810Y2171801D01*
X4252925Y2180742D01*
X4255516Y2190191D01*
X4256328Y2199995D01*
X4255516Y2209800D01*
X4252925Y2219248D01*
X4248810Y2228189D01*
X4243171Y2236216D01*
X4236212Y2243175D01*
X4228185Y2248814D01*
X4219295Y2252929D01*
X4209796Y2255469D01*
X4199991Y2256332D01*
X4190237Y2255469D01*
X4180738Y2252929D01*
X4171848Y2248814D01*
X4163771Y2243175D01*
X4156811Y2236216D01*
X4151223Y2228189D01*
X4147058Y2219248D01*
X4144518Y2209800D01*
X4143654Y2199995D01*
X4144518Y2190191D01*
X4147058Y2180742D01*
X4151223Y2171801D01*
X4156811Y2163775D01*
X4158386Y2162200D01*
X4160621Y2158898D01*
X4161383Y2155037D01*
X4161383Y1444955D01*
X4160621Y1441094D01*
X4158386Y1437792D01*
X4156811Y1436217D01*
X4151223Y1428191D01*
X4147058Y1419250D01*
X4144518Y1409801D01*
X4143654Y1399997D01*
X4144518Y1390192D01*
X4147058Y1380744D01*
X4151223Y1371803D01*
X4156811Y1363776D01*
X4163771Y1356817D01*
X4171848Y1351178D01*
X4180738Y1347063D01*
X4190237Y1344523D01*
G37*
G36*
X6100013Y1447800D02*
G01*
X6113678Y1448714D01*
X6127089Y1451356D01*
X6140043Y1455775D01*
X6152337Y1461820D01*
X6163716Y1469440D01*
X6173978Y1478432D01*
X6183020Y1488744D01*
X6190589Y1500124D01*
X6196685Y1512366D01*
X6201054Y1525371D01*
X6203746Y1538782D01*
X6204610Y1552448D01*
X6203746Y1566062D01*
X6201054Y1579524D01*
X6196685Y1592478D01*
X6190589Y1604721D01*
X6183020Y1616100D01*
X6173978Y1626412D01*
X6163716Y1635455D01*
X6152337Y1643024D01*
X6140043Y1649069D01*
X6127089Y1653489D01*
X6113678Y1656181D01*
X6100013Y1657045D01*
X6086348Y1656181D01*
X6072936Y1653489D01*
X6059982Y1649069D01*
X6047689Y1643024D01*
X6036310Y1635455D01*
X6025997Y1626412D01*
X6017006Y1616100D01*
X6009386Y1604721D01*
X6003340Y1592478D01*
X5998921Y1579524D01*
X5996279Y1566062D01*
X5995365Y1552448D01*
X5996279Y1538782D01*
X5998921Y1525371D01*
X6003340Y1512366D01*
X6009386Y1500124D01*
X6017006Y1488744D01*
X6025997Y1478432D01*
X6036310Y1469440D01*
X6047689Y1461820D01*
X6059982Y1455775D01*
X6072936Y1451356D01*
X6086348Y1448714D01*
G37*
G36*
X1862023Y1488338D02*
G01*
X1875586Y1489252D01*
X1888947Y1491945D01*
X1901850Y1496466D01*
X1914042Y1502613D01*
X1925269Y1510334D01*
X1935378Y1519478D01*
X1944166Y1529892D01*
X1951532Y1541373D01*
X1957273Y1553718D01*
X1961286Y1566773D01*
X1963572Y1580184D01*
X1964029Y1593850D01*
X1962657Y1607413D01*
X1959508Y1620672D01*
X1954580Y1633423D01*
X1948027Y1645361D01*
X1939950Y1656334D01*
X1930501Y1666138D01*
X1919782Y1674571D01*
X1908048Y1681530D01*
X1895500Y1686864D01*
X1882343Y1690471D01*
X1868830Y1692300D01*
X1855165Y1692300D01*
X1841652Y1690471D01*
X1828495Y1686864D01*
X1815947Y1681530D01*
X1804212Y1674571D01*
X1793544Y1666138D01*
X1784045Y1656334D01*
X1775968Y1645361D01*
X1769414Y1633423D01*
X1764487Y1620672D01*
X1761337Y1607413D01*
X1759966Y1593850D01*
X1760423Y1580184D01*
X1762709Y1566773D01*
X1766722Y1553718D01*
X1772462Y1541373D01*
X1779828Y1529892D01*
X1788617Y1519478D01*
X1798726Y1510334D01*
X1809953Y1502613D01*
X1822145Y1496466D01*
X1835048Y1491945D01*
X1848408Y1489252D01*
G37*
G36*
X338023Y1488338D02*
G01*
X351586Y1489252D01*
X364947Y1491945D01*
X377850Y1496466D01*
X390042Y1502613D01*
X401269Y1510334D01*
X411378Y1519478D01*
X420166Y1529892D01*
X427532Y1541373D01*
X433273Y1553718D01*
X437286Y1566773D01*
X439572Y1580184D01*
X440029Y1593850D01*
X438658Y1607413D01*
X435508Y1620672D01*
X430580Y1633423D01*
X424027Y1645361D01*
X415950Y1656334D01*
X406501Y1666138D01*
X395782Y1674571D01*
X384048Y1681530D01*
X371500Y1686864D01*
X358343Y1690471D01*
X344830Y1692300D01*
X331165Y1692300D01*
X317652Y1690471D01*
X304495Y1686864D01*
X291947Y1681530D01*
X280212Y1674571D01*
X269544Y1666138D01*
X260045Y1656334D01*
X251967Y1645361D01*
X245414Y1633423D01*
X240487Y1620672D01*
X237337Y1607413D01*
X235966Y1593850D01*
X236423Y1580184D01*
X238709Y1566773D01*
X242722Y1553718D01*
X248462Y1541373D01*
X255828Y1529892D01*
X264617Y1519478D01*
X274726Y1510334D01*
X285953Y1502613D01*
X298145Y1496466D01*
X311048Y1491945D01*
X324408Y1489252D01*
G37*
G36*
X1862023Y1742338D02*
G01*
X1875586Y1743252D01*
X1888947Y1745945D01*
X1901850Y1750466D01*
X1914042Y1756613D01*
X1925269Y1764334D01*
X1935378Y1773478D01*
X1944166Y1783892D01*
X1951532Y1795373D01*
X1957273Y1807718D01*
X1961286Y1820773D01*
X1963572Y1834184D01*
X1964029Y1847850D01*
X1962657Y1861413D01*
X1959508Y1874672D01*
X1954580Y1887423D01*
X1948027Y1899361D01*
X1939950Y1910334D01*
X1930501Y1920138D01*
X1919782Y1928571D01*
X1908048Y1935530D01*
X1895500Y1940864D01*
X1882343Y1944471D01*
X1868830Y1946300D01*
X1855165Y1946300D01*
X1841652Y1944471D01*
X1828495Y1940864D01*
X1815947Y1935530D01*
X1804212Y1928571D01*
X1793544Y1920138D01*
X1784045Y1910334D01*
X1775968Y1899361D01*
X1769414Y1887423D01*
X1764487Y1874672D01*
X1761337Y1861413D01*
X1759966Y1847850D01*
X1760423Y1834184D01*
X1762709Y1820773D01*
X1766722Y1807718D01*
X1772462Y1795373D01*
X1779828Y1783892D01*
X1788617Y1773478D01*
X1798726Y1764334D01*
X1809953Y1756613D01*
X1822145Y1750466D01*
X1835048Y1745945D01*
X1848408Y1743252D01*
G37*
G36*
X338023Y1742338D02*
G01*
X351586Y1743252D01*
X364947Y1745945D01*
X377850Y1750466D01*
X390042Y1756613D01*
X401269Y1764334D01*
X411378Y1773478D01*
X420166Y1783892D01*
X427532Y1795373D01*
X433273Y1807718D01*
X437286Y1820773D01*
X439572Y1834184D01*
X440029Y1847850D01*
X438658Y1861413D01*
X435508Y1874672D01*
X430580Y1887423D01*
X424027Y1899361D01*
X415950Y1910334D01*
X406501Y1920138D01*
X395782Y1928571D01*
X384048Y1935530D01*
X371500Y1940864D01*
X358343Y1944471D01*
X344830Y1946300D01*
X331165Y1946300D01*
X317652Y1944471D01*
X304495Y1940864D01*
X291947Y1935530D01*
X280212Y1928571D01*
X269544Y1920138D01*
X260045Y1910334D01*
X251967Y1899361D01*
X245414Y1887423D01*
X240487Y1874672D01*
X237337Y1861413D01*
X235966Y1847850D01*
X236423Y1834184D01*
X238709Y1820773D01*
X242722Y1807718D01*
X248462Y1795373D01*
X255828Y1783892D01*
X264617Y1773478D01*
X274726Y1764334D01*
X285953Y1756613D01*
X298145Y1750466D01*
X311048Y1745945D01*
X324408Y1743252D01*
G37*
G36*
X1862023Y1996338D02*
G01*
X1875586Y1997252D01*
X1888947Y1999945D01*
X1901850Y2004466D01*
X1914042Y2010613D01*
X1925269Y2018334D01*
X1935378Y2027478D01*
X1944166Y2037892D01*
X1951532Y2049373D01*
X1957273Y2061718D01*
X1961286Y2074773D01*
X1963572Y2088184D01*
X1964029Y2101850D01*
X1962657Y2115413D01*
X1959508Y2128672D01*
X1954580Y2141423D01*
X1948027Y2153361D01*
X1939950Y2164334D01*
X1930501Y2174138D01*
X1919782Y2182571D01*
X1908048Y2189530D01*
X1895500Y2194864D01*
X1882343Y2198471D01*
X1868830Y2200300D01*
X1855165Y2200300D01*
X1841652Y2198471D01*
X1828495Y2194864D01*
X1815947Y2189530D01*
X1804212Y2182571D01*
X1793544Y2174138D01*
X1784045Y2164334D01*
X1775968Y2153361D01*
X1769414Y2141423D01*
X1764487Y2128672D01*
X1761337Y2115413D01*
X1759966Y2101850D01*
X1760423Y2088184D01*
X1762709Y2074773D01*
X1766722Y2061718D01*
X1772462Y2049373D01*
X1779828Y2037892D01*
X1788617Y2027478D01*
X1798726Y2018334D01*
X1809953Y2010613D01*
X1822145Y2004466D01*
X1835048Y1999945D01*
X1848408Y1997252D01*
G37*
G36*
X1862023Y218338D02*
G01*
X1875586Y219252D01*
X1888947Y221945D01*
X1901850Y226466D01*
X1914042Y232613D01*
X1925269Y240334D01*
X1935378Y249478D01*
X1944166Y259892D01*
X1951532Y271373D01*
X1957273Y283718D01*
X1961286Y296773D01*
X1963572Y310184D01*
X1964029Y323850D01*
X1962657Y337413D01*
X1959508Y350672D01*
X1954580Y363423D01*
X1948027Y375361D01*
X1939950Y386334D01*
X1930501Y396138D01*
X1919782Y404571D01*
X1908048Y411530D01*
X1895500Y416864D01*
X1882343Y420471D01*
X1868830Y422300D01*
X1855165Y422300D01*
X1841652Y420471D01*
X1828495Y416864D01*
X1815947Y411530D01*
X1804212Y404571D01*
X1793544Y396138D01*
X1784045Y386334D01*
X1775968Y375361D01*
X1769414Y363423D01*
X1764487Y350672D01*
X1761337Y337413D01*
X1759966Y323850D01*
X1760423Y310184D01*
X1762709Y296773D01*
X1766722Y283718D01*
X1772462Y271373D01*
X1779828Y259892D01*
X1788617Y249478D01*
X1798726Y240334D01*
X1809953Y232613D01*
X1822145Y226466D01*
X1835048Y221945D01*
X1848408Y219252D01*
G37*
G36*
X6021832Y2185771D02*
G01*
X6054293Y2185771D01*
X6054293Y2244699D01*
X5995365Y2244699D01*
X5995365Y2212238D01*
X5996076Y2205939D01*
X5997956Y2200452D01*
X6001054Y2195576D01*
X6005169Y2191461D01*
X6010046Y2188413D01*
X6015532Y2186482D01*
G37*
G36*
X6145733Y2185771D02*
G01*
X6178194Y2185771D01*
X6184493Y2186482D01*
X6189929Y2188413D01*
X6194856Y2191461D01*
X6198920Y2195576D01*
X6202019Y2200452D01*
X6203950Y2205939D01*
X6204661Y2212238D01*
X6204661Y2244699D01*
X6145733Y2244699D01*
G37*
G36*
X1862023Y2250338D02*
G01*
X1875586Y2251252D01*
X1888947Y2253945D01*
X1901850Y2258466D01*
X1914042Y2264613D01*
X1925269Y2272334D01*
X1935378Y2281478D01*
X1944166Y2291892D01*
X1951532Y2303373D01*
X1957273Y2315718D01*
X1961286Y2328773D01*
X1963572Y2342184D01*
X1964029Y2355850D01*
X1962657Y2369413D01*
X1959508Y2382672D01*
X1954580Y2395423D01*
X1948027Y2407361D01*
X1939950Y2418334D01*
X1930501Y2428138D01*
X1919782Y2436571D01*
X1908048Y2443530D01*
X1895500Y2448864D01*
X1882343Y2452471D01*
X1868830Y2454300D01*
X1855165Y2454300D01*
X1841652Y2452471D01*
X1828495Y2448864D01*
X1815947Y2443530D01*
X1804212Y2436571D01*
X1793544Y2428138D01*
X1784045Y2418334D01*
X1775968Y2407361D01*
X1769414Y2395423D01*
X1764487Y2382672D01*
X1761337Y2369413D01*
X1759966Y2355850D01*
X1760423Y2342184D01*
X1762709Y2328773D01*
X1766722Y2315718D01*
X1772462Y2303373D01*
X1779828Y2291892D01*
X1788617Y2281478D01*
X1798726Y2272334D01*
X1809953Y2264613D01*
X1822145Y2258466D01*
X1835048Y2253945D01*
X1848408Y2251252D01*
G37*
G36*
X338023Y2250338D02*
G01*
X351586Y2251252D01*
X364947Y2253945D01*
X377850Y2258466D01*
X390042Y2264613D01*
X401269Y2272334D01*
X411378Y2281478D01*
X420166Y2291892D01*
X427532Y2303373D01*
X433273Y2315718D01*
X437286Y2328773D01*
X439572Y2342184D01*
X440029Y2355850D01*
X438658Y2369413D01*
X435508Y2382672D01*
X430580Y2395423D01*
X424027Y2407361D01*
X415950Y2418334D01*
X406501Y2428138D01*
X395782Y2436571D01*
X384048Y2443530D01*
X371500Y2448864D01*
X358343Y2452471D01*
X344830Y2454300D01*
X331165Y2454300D01*
X317652Y2452471D01*
X304495Y2448864D01*
X291947Y2443530D01*
X280212Y2436571D01*
X269544Y2428138D01*
X260045Y2418334D01*
X251967Y2407361D01*
X245414Y2395423D01*
X240487Y2382672D01*
X237337Y2369413D01*
X235966Y2355850D01*
X236423Y2342184D01*
X238709Y2328773D01*
X242722Y2315718D01*
X248462Y2303373D01*
X255828Y2291892D01*
X264617Y2281478D01*
X274726Y2272334D01*
X285953Y2264613D01*
X298145Y2258466D01*
X311048Y2253945D01*
X324408Y2251252D01*
G37*
G36*
X1608023Y2250338D02*
G01*
X1621586Y2251252D01*
X1634947Y2253945D01*
X1647850Y2258466D01*
X1660042Y2264613D01*
X1671269Y2272334D01*
X1681378Y2281478D01*
X1690166Y2291892D01*
X1697532Y2303373D01*
X1703273Y2315718D01*
X1707286Y2328773D01*
X1709572Y2342184D01*
X1710029Y2355850D01*
X1708657Y2369413D01*
X1705508Y2382672D01*
X1700580Y2395423D01*
X1694027Y2407361D01*
X1685950Y2418334D01*
X1676501Y2428138D01*
X1665782Y2436571D01*
X1654048Y2443530D01*
X1641500Y2448864D01*
X1628343Y2452471D01*
X1614830Y2454300D01*
X1601165Y2454300D01*
X1587652Y2452471D01*
X1574495Y2448864D01*
X1561947Y2443530D01*
X1550212Y2436571D01*
X1539544Y2428138D01*
X1530045Y2418334D01*
X1521968Y2407361D01*
X1515414Y2395423D01*
X1510487Y2382672D01*
X1507337Y2369413D01*
X1505966Y2355850D01*
X1506423Y2342184D01*
X1508709Y2328773D01*
X1512722Y2315718D01*
X1518462Y2303373D01*
X1525828Y2291892D01*
X1534617Y2281478D01*
X1544726Y2272334D01*
X1555953Y2264613D01*
X1568145Y2258466D01*
X1581048Y2253945D01*
X1594408Y2251252D01*
G37*
G36*
X5995365Y2336139D02*
G01*
X6054293Y2336139D01*
X6054293Y2395067D01*
X6021832Y2395067D01*
X6015532Y2394356D01*
X6010046Y2392476D01*
X6005169Y2389378D01*
X6001054Y2385263D01*
X5997956Y2380386D01*
X5996076Y2374900D01*
X5995365Y2368600D01*
G37*
G36*
X6145733Y2336139D02*
G01*
X6204661Y2336139D01*
X6204661Y2368600D01*
X6203950Y2374900D01*
X6202019Y2380386D01*
X6198920Y2385263D01*
X6194856Y2389378D01*
X6189929Y2392476D01*
X6184493Y2394356D01*
X6178194Y2395067D01*
X6145733Y2395067D01*
G37*
G36*
X2500122Y2395524D02*
G01*
X3499612Y2395524D01*
X3511296Y2396388D01*
X3522370Y2398928D01*
X3532936Y2403043D01*
X3542741Y2408732D01*
X3551580Y2415794D01*
X3559301Y2424125D01*
X3565702Y2433472D01*
X3570630Y2443683D01*
X3573983Y2454554D01*
X3575659Y2465730D01*
X3575659Y2477109D01*
X3573983Y2488285D01*
X3570630Y2499156D01*
X3565702Y2509367D01*
X3559301Y2518714D01*
X3551580Y2527046D01*
X3542741Y2534107D01*
X3532936Y2539796D01*
X3522370Y2543911D01*
X3511296Y2546451D01*
X3499612Y2547315D01*
X2535631Y2547315D01*
X2531770Y2548128D01*
X2528468Y2550312D01*
X2278888Y2799892D01*
X2276703Y2803194D01*
X2275890Y2807055D01*
X2275890Y3096056D01*
X2275027Y3107740D01*
X2272487Y3118764D01*
X2268372Y3129330D01*
X2262682Y3139186D01*
X2255621Y3148025D01*
X2247290Y3155746D01*
X2237943Y3162147D01*
X2227732Y3167075D01*
X2216861Y3170377D01*
X2205685Y3172104D01*
X2194306Y3172104D01*
X2183130Y3170377D01*
X2172258Y3167024D01*
X2162048Y3162147D01*
X2152700Y3155746D01*
X2144369Y3148025D01*
X2137308Y3139135D01*
X2131618Y3129330D01*
X2127504Y3118764D01*
X2124964Y3107740D01*
X2124100Y3096056D01*
X2124151Y2768752D01*
X2124964Y2759913D01*
X2125370Y2757474D01*
X2127554Y2748889D01*
X2128316Y2746552D01*
X2132787Y2736138D01*
X2138832Y2726486D01*
X2144471Y2719679D01*
X2448255Y2415895D01*
X2455062Y2410256D01*
X2464714Y2404211D01*
X2466898Y2403094D01*
X2477465Y2398928D01*
X2486101Y2396794D01*
X2488488Y2396388D01*
X2497378Y2395575D01*
G37*
G36*
X6100013Y2439822D02*
G01*
X6113678Y2440686D01*
X6127089Y2443378D01*
X6140043Y2447747D01*
X6152337Y2453843D01*
X6163716Y2461412D01*
X6173978Y2470454D01*
X6183020Y2480716D01*
X6190589Y2492095D01*
X6196685Y2504389D01*
X6201054Y2517343D01*
X6203746Y2530754D01*
X6204610Y2544419D01*
X6203746Y2558084D01*
X6201054Y2571496D01*
X6196685Y2584450D01*
X6190589Y2596743D01*
X6183020Y2608122D01*
X6173978Y2618384D01*
X6163716Y2627426D01*
X6152337Y2635046D01*
X6140043Y2641092D01*
X6127089Y2645511D01*
X6113678Y2648153D01*
X6100013Y2649067D01*
X6086348Y2648153D01*
X6072936Y2645511D01*
X6059982Y2641092D01*
X6047689Y2635046D01*
X6036310Y2627426D01*
X6025997Y2618384D01*
X6017006Y2608122D01*
X6009386Y2596743D01*
X6003340Y2584450D01*
X5998921Y2571496D01*
X5996279Y2558084D01*
X5995365Y2544419D01*
X5996279Y2530754D01*
X5998921Y2517343D01*
X6003340Y2504389D01*
X6009386Y2492095D01*
X6017006Y2480716D01*
X6025997Y2470454D01*
X6036310Y2461412D01*
X6047689Y2453843D01*
X6059982Y2447747D01*
X6072936Y2443378D01*
X6086348Y2440686D01*
G37*
G36*
X1862023Y2504338D02*
G01*
X1875586Y2505252D01*
X1888947Y2507945D01*
X1901850Y2512466D01*
X1914042Y2518613D01*
X1925269Y2526334D01*
X1935378Y2535478D01*
X1944166Y2545892D01*
X1951532Y2557373D01*
X1957273Y2569718D01*
X1961286Y2582773D01*
X1963572Y2596184D01*
X1964029Y2609850D01*
X1962657Y2623413D01*
X1959508Y2636672D01*
X1954580Y2649423D01*
X1948027Y2661361D01*
X1939950Y2672334D01*
X1930501Y2682138D01*
X1919782Y2690571D01*
X1908048Y2697530D01*
X1895500Y2702864D01*
X1882343Y2706471D01*
X1868830Y2708300D01*
X1855165Y2708300D01*
X1841652Y2706471D01*
X1828495Y2702864D01*
X1815947Y2697530D01*
X1804212Y2690571D01*
X1793544Y2682138D01*
X1784045Y2672334D01*
X1775968Y2661361D01*
X1769414Y2649423D01*
X1764487Y2636672D01*
X1761337Y2623413D01*
X1759966Y2609850D01*
X1760423Y2596184D01*
X1762709Y2582773D01*
X1766722Y2569718D01*
X1772462Y2557373D01*
X1779828Y2545892D01*
X1788617Y2535478D01*
X1798726Y2526334D01*
X1809953Y2518613D01*
X1822145Y2512466D01*
X1835048Y2507945D01*
X1848408Y2505252D01*
G37*
G36*
X338023Y2504338D02*
G01*
X351586Y2505252D01*
X364947Y2507945D01*
X377850Y2512466D01*
X390042Y2518613D01*
X401269Y2526334D01*
X411378Y2535478D01*
X420166Y2545892D01*
X427532Y2557373D01*
X433273Y2569718D01*
X437286Y2582773D01*
X439572Y2596184D01*
X440029Y2609850D01*
X438658Y2623413D01*
X435508Y2636672D01*
X430580Y2649423D01*
X424027Y2661361D01*
X415950Y2672334D01*
X406501Y2682138D01*
X395782Y2690571D01*
X384048Y2697530D01*
X371500Y2702864D01*
X358343Y2706471D01*
X344830Y2708300D01*
X331165Y2708300D01*
X317652Y2706471D01*
X304495Y2702864D01*
X291947Y2697530D01*
X280212Y2690571D01*
X269544Y2682138D01*
X260045Y2672334D01*
X251967Y2661361D01*
X245414Y2649423D01*
X240487Y2636672D01*
X237337Y2623413D01*
X235966Y2609850D01*
X236423Y2596184D01*
X238709Y2582773D01*
X242722Y2569718D01*
X248462Y2557373D01*
X255828Y2545892D01*
X264617Y2535478D01*
X274726Y2526334D01*
X285953Y2518613D01*
X298145Y2512466D01*
X311048Y2507945D01*
X324408Y2505252D01*
G37*
G36*
X1608023Y2504338D02*
G01*
X1621586Y2505252D01*
X1634947Y2507945D01*
X1647850Y2512466D01*
X1660042Y2518613D01*
X1671269Y2526334D01*
X1681378Y2535478D01*
X1690166Y2545892D01*
X1697532Y2557373D01*
X1703273Y2569718D01*
X1707286Y2582773D01*
X1709572Y2596184D01*
X1710029Y2609850D01*
X1708657Y2623413D01*
X1705508Y2636672D01*
X1700580Y2649423D01*
X1694027Y2661361D01*
X1685950Y2672334D01*
X1676501Y2682138D01*
X1665782Y2690571D01*
X1654048Y2697530D01*
X1641500Y2702864D01*
X1628343Y2706471D01*
X1614830Y2708300D01*
X1601165Y2708300D01*
X1587652Y2706471D01*
X1574495Y2702864D01*
X1561947Y2697530D01*
X1550212Y2690571D01*
X1539544Y2682138D01*
X1530045Y2672334D01*
X1521968Y2661361D01*
X1515414Y2649423D01*
X1510487Y2636672D01*
X1507337Y2623413D01*
X1505966Y2609850D01*
X1506423Y2596184D01*
X1508709Y2582773D01*
X1512722Y2569718D01*
X1518462Y2557373D01*
X1525828Y2545892D01*
X1534617Y2535478D01*
X1544726Y2526334D01*
X1555953Y2518613D01*
X1568145Y2512466D01*
X1581048Y2507945D01*
X1594408Y2505252D01*
G37*
G36*
X3900017Y2515057D02*
G01*
X3909771Y2515920D01*
X3919270Y2518460D01*
X3928160Y2522626D01*
X3936237Y2528265D01*
X3943146Y2535224D01*
X3948785Y2543251D01*
X3952951Y2552141D01*
X3955491Y2561640D01*
X3956354Y2571445D01*
X3955491Y2581198D01*
X3952951Y2590698D01*
X3948785Y2599588D01*
X3943146Y2607665D01*
X3936237Y2614574D01*
X3928160Y2620213D01*
X3919270Y2624378D01*
X3909771Y2626918D01*
X3901795Y2627630D01*
X3898341Y2628544D01*
X3895496Y2630576D01*
X3741572Y2784449D01*
X3739387Y2787751D01*
X3738626Y2791612D01*
X3738626Y3276447D01*
X3739387Y3280308D01*
X3741572Y3283610D01*
X3743147Y3285185D01*
X3748786Y3293262D01*
X3752951Y3302152D01*
X3755491Y3311651D01*
X3756355Y3321405D01*
X3755491Y3331210D01*
X3752951Y3340709D01*
X3748786Y3349599D01*
X3743147Y3357626D01*
X3736238Y3364585D01*
X3728161Y3370224D01*
X3719271Y3374390D01*
X3709771Y3376929D01*
X3700018Y3377793D01*
X3690213Y3376929D01*
X3680714Y3374390D01*
X3671824Y3370224D01*
X3663797Y3364585D01*
X3656837Y3357626D01*
X3651199Y3349599D01*
X3647033Y3340709D01*
X3644493Y3331210D01*
X3643629Y3321405D01*
X3644493Y3311651D01*
X3647033Y3302152D01*
X3651199Y3293262D01*
X3656837Y3285185D01*
X3658412Y3283610D01*
X3660648Y3280308D01*
X3661410Y3276447D01*
X3661410Y2771902D01*
X3662172Y2763926D01*
X3664356Y2756662D01*
X3667963Y2750007D01*
X3673043Y2743758D01*
X3840886Y2575966D01*
X3842918Y2573070D01*
X3843832Y2569667D01*
X3844493Y2561640D01*
X3847033Y2552141D01*
X3851198Y2543251D01*
X3856837Y2535224D01*
X3863797Y2528265D01*
X3871823Y2522626D01*
X3880713Y2518460D01*
X3890213Y2515920D01*
G37*
G36*
X5794349Y2595778D02*
G01*
X5805678Y2595778D01*
X5816904Y2597454D01*
X5827725Y2600807D01*
X5837936Y2605735D01*
X5847283Y2612085D01*
X5855614Y2619806D01*
X5862675Y2628696D01*
X5868365Y2638501D01*
X5872480Y2649067D01*
X5875020Y2660142D01*
X5875883Y2671826D01*
X5875832Y3693160D01*
X5875020Y3702050D01*
X5874613Y3704437D01*
X5872480Y3713073D01*
X5871718Y3715410D01*
X5868314Y3723640D01*
X5867196Y3725824D01*
X5862624Y3733444D01*
X5861202Y3735476D01*
X5855512Y3742283D01*
X5673039Y3924808D01*
X5664149Y3932478D01*
X5654548Y3938524D01*
X5644184Y3943045D01*
X5633212Y3945991D01*
X5621934Y3947261D01*
X5610606Y3946804D01*
X5599480Y3944721D01*
X5588762Y3940962D01*
X5578754Y3935679D01*
X5569610Y3928922D01*
X5561584Y3920896D01*
X5554878Y3911803D01*
X5549544Y3901744D01*
X5545836Y3891076D01*
X5543702Y3879900D01*
X5543296Y3868572D01*
X5544566Y3857294D01*
X5547461Y3846372D01*
X5552033Y3835958D01*
X5558078Y3826357D01*
X5565698Y3817467D01*
X5721096Y3662070D01*
X5723331Y3658768D01*
X5724093Y3654907D01*
X5724093Y2671826D01*
X5724956Y2660142D01*
X5727496Y2649067D01*
X5731611Y2638501D01*
X5737301Y2628696D01*
X5744362Y2619806D01*
X5752693Y2612085D01*
X5762040Y2605735D01*
X5772251Y2600807D01*
X5783122Y2597454D01*
G37*
G36*
X6100013Y2693822D02*
G01*
X6113678Y2694686D01*
X6127089Y2697378D01*
X6140043Y2701747D01*
X6152337Y2707843D01*
X6163716Y2715412D01*
X6173978Y2724454D01*
X6183020Y2734716D01*
X6190589Y2746095D01*
X6196685Y2758389D01*
X6201054Y2771343D01*
X6203746Y2784754D01*
X6204610Y2798419D01*
X6203746Y2812084D01*
X6201054Y2825496D01*
X6196685Y2838450D01*
X6190589Y2850743D01*
X6183020Y2862122D01*
X6173978Y2872384D01*
X6163716Y2881426D01*
X6152337Y2889046D01*
X6140043Y2895092D01*
X6127089Y2899511D01*
X6113678Y2902153D01*
X6100013Y2903067D01*
X6086348Y2902153D01*
X6072936Y2899511D01*
X6059982Y2895092D01*
X6047689Y2889046D01*
X6036310Y2881426D01*
X6025997Y2872384D01*
X6017006Y2862122D01*
X6009386Y2850743D01*
X6003340Y2838450D01*
X5998921Y2825496D01*
X5996279Y2812084D01*
X5995365Y2798419D01*
X5996279Y2784754D01*
X5998921Y2771343D01*
X6003340Y2758389D01*
X6009386Y2746095D01*
X6017006Y2734716D01*
X6025997Y2724454D01*
X6036310Y2715412D01*
X6047689Y2707843D01*
X6059982Y2701747D01*
X6072936Y2697378D01*
X6086348Y2694686D01*
G37*
G36*
X1862023Y2758338D02*
G01*
X1875586Y2759252D01*
X1888947Y2761945D01*
X1901850Y2766466D01*
X1914042Y2772613D01*
X1925269Y2780334D01*
X1935378Y2789478D01*
X1944166Y2799892D01*
X1951532Y2811373D01*
X1957273Y2823718D01*
X1961286Y2836773D01*
X1963572Y2850184D01*
X1964029Y2863850D01*
X1962657Y2877413D01*
X1959508Y2890672D01*
X1954580Y2903423D01*
X1948027Y2915361D01*
X1939950Y2926334D01*
X1930501Y2936138D01*
X1919782Y2944571D01*
X1908048Y2951530D01*
X1895500Y2956864D01*
X1882343Y2960471D01*
X1868830Y2962300D01*
X1855165Y2962300D01*
X1841652Y2960471D01*
X1828495Y2956864D01*
X1815947Y2951530D01*
X1804212Y2944571D01*
X1793544Y2936138D01*
X1784045Y2926334D01*
X1775968Y2915361D01*
X1769414Y2903423D01*
X1764487Y2890672D01*
X1761337Y2877413D01*
X1759966Y2863850D01*
X1760423Y2850184D01*
X1762709Y2836773D01*
X1766722Y2823718D01*
X1772462Y2811373D01*
X1779828Y2799892D01*
X1788617Y2789478D01*
X1798726Y2780334D01*
X1809953Y2772613D01*
X1822145Y2766466D01*
X1835048Y2761945D01*
X1848408Y2759252D01*
G37*
G36*
X1608023Y2758338D02*
G01*
X1621586Y2759252D01*
X1634947Y2761945D01*
X1647850Y2766466D01*
X1660042Y2772613D01*
X1671269Y2780334D01*
X1681378Y2789478D01*
X1690166Y2799892D01*
X1697532Y2811373D01*
X1703273Y2823718D01*
X1707286Y2836773D01*
X1709572Y2850184D01*
X1710029Y2863850D01*
X1708657Y2877413D01*
X1705508Y2890672D01*
X1700580Y2903423D01*
X1694027Y2915361D01*
X1685950Y2926334D01*
X1676501Y2936138D01*
X1665782Y2944571D01*
X1654048Y2951530D01*
X1641500Y2956864D01*
X1628343Y2960471D01*
X1614830Y2962300D01*
X1601165Y2962300D01*
X1587652Y2960471D01*
X1574495Y2956864D01*
X1561947Y2951530D01*
X1550212Y2944571D01*
X1539544Y2936138D01*
X1530045Y2926334D01*
X1521968Y2915361D01*
X1515414Y2903423D01*
X1510487Y2890672D01*
X1507337Y2877413D01*
X1505966Y2863850D01*
X1506423Y2850184D01*
X1508709Y2836773D01*
X1512722Y2823718D01*
X1518462Y2811373D01*
X1525828Y2799892D01*
X1534617Y2789478D01*
X1544726Y2780334D01*
X1555953Y2772613D01*
X1568145Y2766466D01*
X1581048Y2761945D01*
X1594408Y2759252D01*
G37*
G36*
X338023Y2758338D02*
G01*
X351586Y2759252D01*
X364947Y2761945D01*
X377850Y2766466D01*
X390042Y2772613D01*
X401269Y2780334D01*
X411378Y2789478D01*
X420166Y2799892D01*
X427532Y2811373D01*
X433273Y2823718D01*
X437286Y2836773D01*
X439572Y2850184D01*
X440029Y2863850D01*
X438658Y2877413D01*
X435508Y2890672D01*
X430580Y2903423D01*
X424027Y2915361D01*
X415950Y2926334D01*
X406501Y2936138D01*
X395782Y2944571D01*
X384048Y2951530D01*
X371500Y2956864D01*
X358343Y2960471D01*
X344830Y2962300D01*
X331165Y2962300D01*
X317652Y2960471D01*
X304495Y2956864D01*
X291947Y2951530D01*
X280212Y2944571D01*
X269544Y2936138D01*
X260045Y2926334D01*
X251967Y2915361D01*
X245414Y2903423D01*
X240487Y2890672D01*
X237337Y2877413D01*
X235966Y2863850D01*
X236423Y2850184D01*
X238709Y2836773D01*
X242722Y2823718D01*
X248462Y2811373D01*
X255828Y2799892D01*
X264617Y2789478D01*
X274726Y2780334D01*
X285953Y2772613D01*
X298145Y2766466D01*
X311048Y2761945D01*
X324408Y2759252D01*
G37*
G36*
X6100013Y2947822D02*
G01*
X6113678Y2948686D01*
X6127089Y2951378D01*
X6140043Y2955747D01*
X6152337Y2961843D01*
X6163716Y2969412D01*
X6173978Y2978454D01*
X6183020Y2988716D01*
X6190589Y3000095D01*
X6196685Y3012389D01*
X6201054Y3025343D01*
X6203746Y3038754D01*
X6204610Y3052419D01*
X6203746Y3066084D01*
X6201054Y3079496D01*
X6196685Y3092450D01*
X6190589Y3104743D01*
X6183020Y3116122D01*
X6173978Y3126384D01*
X6163716Y3135426D01*
X6152337Y3143046D01*
X6140043Y3149092D01*
X6127089Y3153511D01*
X6113678Y3156153D01*
X6100013Y3157067D01*
X6086348Y3156153D01*
X6072936Y3153511D01*
X6059982Y3149092D01*
X6047689Y3143046D01*
X6036310Y3135426D01*
X6025997Y3126384D01*
X6017006Y3116122D01*
X6009386Y3104743D01*
X6003340Y3092450D01*
X5998921Y3079496D01*
X5996279Y3066084D01*
X5995365Y3052419D01*
X5996279Y3038754D01*
X5998921Y3025343D01*
X6003340Y3012389D01*
X6009386Y3000095D01*
X6017006Y2988716D01*
X6025997Y2978454D01*
X6036310Y2969412D01*
X6047689Y2961843D01*
X6059982Y2955747D01*
X6072936Y2951378D01*
X6086348Y2948686D01*
G37*
G36*
X1862023Y3012338D02*
G01*
X1875586Y3013252D01*
X1888947Y3015945D01*
X1901850Y3020466D01*
X1914042Y3026613D01*
X1925269Y3034334D01*
X1935378Y3043478D01*
X1944166Y3053892D01*
X1951532Y3065373D01*
X1957273Y3077718D01*
X1961286Y3090773D01*
X1963572Y3104184D01*
X1964029Y3117850D01*
X1962657Y3131413D01*
X1959508Y3144672D01*
X1954580Y3157423D01*
X1948027Y3169361D01*
X1939950Y3180334D01*
X1930501Y3190138D01*
X1919782Y3198571D01*
X1908048Y3205530D01*
X1895500Y3210864D01*
X1882343Y3214471D01*
X1868830Y3216300D01*
X1855165Y3216300D01*
X1841652Y3214471D01*
X1828495Y3210864D01*
X1815947Y3205530D01*
X1804212Y3198571D01*
X1793544Y3190138D01*
X1784045Y3180334D01*
X1775968Y3169361D01*
X1769414Y3157423D01*
X1764487Y3144672D01*
X1761337Y3131413D01*
X1759966Y3117850D01*
X1760423Y3104184D01*
X1762709Y3090773D01*
X1766722Y3077718D01*
X1772462Y3065373D01*
X1779828Y3053892D01*
X1788617Y3043478D01*
X1798726Y3034334D01*
X1809953Y3026613D01*
X1822145Y3020466D01*
X1835048Y3015945D01*
X1848408Y3013252D01*
G37*
G36*
X338023Y3012338D02*
G01*
X351586Y3013252D01*
X364947Y3015945D01*
X377850Y3020466D01*
X390042Y3026613D01*
X401269Y3034334D01*
X411378Y3043478D01*
X420166Y3053892D01*
X427532Y3065373D01*
X433273Y3077718D01*
X437286Y3090773D01*
X439572Y3104184D01*
X440029Y3117850D01*
X438658Y3131413D01*
X435508Y3144672D01*
X430580Y3157423D01*
X424027Y3169361D01*
X415950Y3180334D01*
X406501Y3190138D01*
X395782Y3198571D01*
X384048Y3205530D01*
X371500Y3210864D01*
X358343Y3214471D01*
X344830Y3216300D01*
X331165Y3216300D01*
X317652Y3214471D01*
X304495Y3210864D01*
X291947Y3205530D01*
X280212Y3198571D01*
X269544Y3190138D01*
X260045Y3180334D01*
X251967Y3169361D01*
X245414Y3157423D01*
X240487Y3144672D01*
X237337Y3131413D01*
X235966Y3117850D01*
X236423Y3104184D01*
X238709Y3090773D01*
X242722Y3077718D01*
X248462Y3065373D01*
X255828Y3053892D01*
X264617Y3043478D01*
X274726Y3034334D01*
X285953Y3026613D01*
X298145Y3020466D01*
X311048Y3015945D01*
X324408Y3013252D01*
G37*
G36*
X338023Y3266338D02*
G01*
X351586Y3267252D01*
X364947Y3269945D01*
X377850Y3274466D01*
X390042Y3280613D01*
X401269Y3288334D01*
X411378Y3297478D01*
X420166Y3307892D01*
X427532Y3319373D01*
X433273Y3331718D01*
X437286Y3344773D01*
X439572Y3358184D01*
X440029Y3371850D01*
X438658Y3385413D01*
X435508Y3398672D01*
X430580Y3411423D01*
X424027Y3423361D01*
X415950Y3434334D01*
X406501Y3444138D01*
X395782Y3452571D01*
X384048Y3459530D01*
X371500Y3464864D01*
X358343Y3468471D01*
X344830Y3470300D01*
X331165Y3470300D01*
X317652Y3468471D01*
X304495Y3464864D01*
X291947Y3459530D01*
X280212Y3452571D01*
X269544Y3444138D01*
X260045Y3434334D01*
X251967Y3423361D01*
X245414Y3411423D01*
X240487Y3398672D01*
X237337Y3385413D01*
X235966Y3371850D01*
X236423Y3358184D01*
X238709Y3344773D01*
X242722Y3331718D01*
X248462Y3319373D01*
X255828Y3307892D01*
X264617Y3297478D01*
X274726Y3288334D01*
X285953Y3280613D01*
X298145Y3274466D01*
X311048Y3269945D01*
X324408Y3267252D01*
G37*
G36*
X1608023Y3266338D02*
G01*
X1621586Y3267252D01*
X1634947Y3269945D01*
X1647850Y3274466D01*
X1660042Y3280613D01*
X1671269Y3288334D01*
X1681378Y3297478D01*
X1690166Y3307892D01*
X1697532Y3319373D01*
X1703273Y3331718D01*
X1707286Y3344773D01*
X1709572Y3358184D01*
X1710029Y3371850D01*
X1708657Y3385413D01*
X1705508Y3398672D01*
X1700580Y3411423D01*
X1694027Y3423361D01*
X1685950Y3434334D01*
X1676501Y3444138D01*
X1665782Y3452571D01*
X1654048Y3459530D01*
X1641500Y3464864D01*
X1628343Y3468471D01*
X1614830Y3470300D01*
X1601165Y3470300D01*
X1587652Y3468471D01*
X1574495Y3464864D01*
X1561947Y3459530D01*
X1550212Y3452571D01*
X1539544Y3444138D01*
X1530045Y3434334D01*
X1521968Y3423361D01*
X1515414Y3411423D01*
X1510487Y3398672D01*
X1507337Y3385413D01*
X1505966Y3371850D01*
X1506423Y3358184D01*
X1508709Y3344773D01*
X1512722Y3331718D01*
X1518462Y3319373D01*
X1525828Y3307892D01*
X1534617Y3297478D01*
X1544726Y3288334D01*
X1555953Y3280613D01*
X1568145Y3274466D01*
X1581048Y3269945D01*
X1594408Y3267252D01*
G37*
G36*
X1817573Y3276752D02*
G01*
X1817573Y3323996D01*
X1770329Y3323996D01*
X1772462Y3319373D01*
X1779828Y3307892D01*
X1788617Y3297478D01*
X1798726Y3288334D01*
X1809953Y3280613D01*
G37*
G36*
X1906473Y3276752D02*
G01*
X1914042Y3280613D01*
X1925269Y3288334D01*
X1935378Y3297478D01*
X1944166Y3307892D01*
X1951532Y3319373D01*
X1953666Y3323996D01*
X1906473Y3323996D01*
G37*
G36*
X1770227Y3412896D02*
G01*
X1817573Y3412896D01*
X1817573Y3460191D01*
X1815947Y3459530D01*
X1804212Y3452571D01*
X1793544Y3444138D01*
X1784045Y3434334D01*
X1775968Y3423361D01*
G37*
G36*
X1906473Y3412896D02*
G01*
X1953768Y3412896D01*
X1948027Y3423361D01*
X1939950Y3434334D01*
X1930501Y3444138D01*
X1919782Y3452571D01*
X1908048Y3459530D01*
X1906473Y3460191D01*
G37*
G36*
X5380024Y3420567D02*
G01*
X5393182Y3421379D01*
X5406136Y3423970D01*
X5418582Y3428237D01*
X5430418Y3434079D01*
X5441391Y3441395D01*
X5451348Y3450082D01*
X5460034Y3459987D01*
X5467350Y3470960D01*
X5473192Y3482797D01*
X5477459Y3495294D01*
X5479999Y3508248D01*
X5480913Y3521760D01*
X5480913Y3621074D01*
X5479999Y3634587D01*
X5477459Y3647541D01*
X5473192Y3660038D01*
X5467350Y3671874D01*
X5460034Y3682847D01*
X5451348Y3692753D01*
X5441391Y3701491D01*
X5430418Y3708806D01*
X5418582Y3714648D01*
X5406136Y3718864D01*
X5393182Y3721455D01*
X5380024Y3722319D01*
X5366816Y3721455D01*
X5353913Y3718864D01*
X5341416Y3714648D01*
X5329580Y3708806D01*
X5318607Y3701491D01*
X5308650Y3692753D01*
X5299964Y3682847D01*
X5292648Y3671874D01*
X5286806Y3660038D01*
X5282539Y3647541D01*
X5279999Y3634587D01*
X5279085Y3621074D01*
X5279085Y3521760D01*
X5279999Y3508248D01*
X5282539Y3495294D01*
X5286806Y3482797D01*
X5292648Y3470960D01*
X5299964Y3459987D01*
X5308650Y3450082D01*
X5318607Y3441395D01*
X5329580Y3434079D01*
X5341416Y3428237D01*
X5353913Y3423970D01*
X5366816Y3421379D01*
G37*
G36*
X4220006Y3420567D02*
G01*
X4233164Y3421379D01*
X4246118Y3423970D01*
X4258614Y3428237D01*
X4270451Y3434079D01*
X4281424Y3441395D01*
X4291330Y3450082D01*
X4300016Y3459987D01*
X4307382Y3470960D01*
X4313224Y3482797D01*
X4317441Y3495294D01*
X4320032Y3508248D01*
X4320895Y3521760D01*
X4320895Y3621074D01*
X4320032Y3634587D01*
X4317441Y3647541D01*
X4313224Y3660038D01*
X4307382Y3671874D01*
X4300016Y3682847D01*
X4291330Y3692753D01*
X4281424Y3701491D01*
X4270451Y3708806D01*
X4258614Y3714648D01*
X4246118Y3718864D01*
X4233164Y3721455D01*
X4220006Y3722319D01*
X4206849Y3721455D01*
X4193895Y3718864D01*
X4181398Y3714648D01*
X4169562Y3708806D01*
X4158589Y3701491D01*
X4148683Y3692753D01*
X4139946Y3682847D01*
X4132630Y3671874D01*
X4126788Y3660038D01*
X4122572Y3647541D01*
X4119981Y3634587D01*
X4119118Y3621074D01*
X4119118Y3521760D01*
X4119981Y3508248D01*
X4122572Y3495294D01*
X4126788Y3482797D01*
X4132630Y3470960D01*
X4139946Y3459987D01*
X4148683Y3450082D01*
X4158589Y3441395D01*
X4169562Y3434079D01*
X4181398Y3428237D01*
X4193895Y3423970D01*
X4206849Y3421379D01*
G37*
G36*
X4492701Y3455771D02*
G01*
X4507280Y3455771D01*
X4521708Y3457600D01*
X4535830Y3461207D01*
X4549343Y3466592D01*
X4562094Y3473602D01*
X4573879Y3482136D01*
X4584496Y3492093D01*
X4593742Y3503320D01*
X4601565Y3515614D01*
X4607763Y3528771D01*
X4612233Y3542588D01*
X4614976Y3556914D01*
X4615891Y3571443D01*
X4614976Y3585972D01*
X4612233Y3600246D01*
X4607763Y3614064D01*
X4601565Y3627272D01*
X4593742Y3639565D01*
X4584496Y3650742D01*
X4573879Y3660698D01*
X4562094Y3669284D01*
X4549343Y3676294D01*
X4535830Y3681628D01*
X4521708Y3685286D01*
X4507280Y3687064D01*
X4492701Y3687064D01*
X4478274Y3685286D01*
X4464202Y3681628D01*
X4450638Y3676294D01*
X4437888Y3669284D01*
X4426153Y3660698D01*
X4415536Y3650742D01*
X4406239Y3639565D01*
X4398467Y3627272D01*
X4392269Y3614064D01*
X4387748Y3600246D01*
X4385005Y3585972D01*
X4384090Y3571443D01*
X4385005Y3556914D01*
X4387748Y3542588D01*
X4392269Y3528771D01*
X4398467Y3515614D01*
X4406239Y3503320D01*
X4415536Y3492093D01*
X4426153Y3482136D01*
X4437888Y3473602D01*
X4450638Y3466592D01*
X4464202Y3461207D01*
X4478274Y3457600D01*
G37*
G36*
X4792726Y3455771D02*
G01*
X4807254Y3455771D01*
X4821732Y3457600D01*
X4835804Y3461207D01*
X4849368Y3466592D01*
X4862118Y3473602D01*
X4873853Y3482136D01*
X4884470Y3492093D01*
X4893767Y3503320D01*
X4901539Y3515614D01*
X4907737Y3528771D01*
X4912258Y3542588D01*
X4914950Y3556914D01*
X4915865Y3571443D01*
X4914950Y3585972D01*
X4912258Y3600246D01*
X4907737Y3614064D01*
X4901539Y3627272D01*
X4893767Y3639565D01*
X4884470Y3650742D01*
X4873853Y3660698D01*
X4862118Y3669284D01*
X4849368Y3676294D01*
X4835804Y3681628D01*
X4821732Y3685286D01*
X4807254Y3687064D01*
X4792726Y3687064D01*
X4778298Y3685286D01*
X4764176Y3681628D01*
X4750663Y3676294D01*
X4737912Y3669284D01*
X4726127Y3660698D01*
X4715510Y3650742D01*
X4706264Y3639565D01*
X4698441Y3627272D01*
X4692243Y3614064D01*
X4687773Y3600246D01*
X4685030Y3585972D01*
X4684115Y3571443D01*
X4685030Y3556914D01*
X4687773Y3542588D01*
X4692243Y3528771D01*
X4698441Y3515614D01*
X4706264Y3503320D01*
X4715510Y3492093D01*
X4726127Y3482136D01*
X4737912Y3473602D01*
X4750663Y3466592D01*
X4764176Y3461207D01*
X4778298Y3457600D01*
G37*
G36*
X5092700Y3455771D02*
G01*
X5107279Y3455771D01*
X5121706Y3457600D01*
X5135829Y3461207D01*
X5149342Y3466592D01*
X5162092Y3473602D01*
X5173878Y3482136D01*
X5184495Y3492093D01*
X5193741Y3503320D01*
X5201564Y3515614D01*
X5207762Y3528771D01*
X5212232Y3542588D01*
X5214975Y3556914D01*
X5215890Y3571443D01*
X5214975Y3585972D01*
X5212232Y3600246D01*
X5207762Y3614064D01*
X5201564Y3627272D01*
X5193741Y3639565D01*
X5184495Y3650742D01*
X5173878Y3660698D01*
X5162092Y3669284D01*
X5149342Y3676294D01*
X5135829Y3681628D01*
X5121706Y3685286D01*
X5107279Y3687064D01*
X5092700Y3687064D01*
X5078272Y3685286D01*
X5064201Y3681628D01*
X5050637Y3676294D01*
X5037886Y3669284D01*
X5026152Y3660698D01*
X5015534Y3650742D01*
X5006238Y3639565D01*
X4998466Y3627272D01*
X4992268Y3614064D01*
X4987747Y3600246D01*
X4985004Y3585972D01*
X4984089Y3571443D01*
X4985004Y3556914D01*
X4987747Y3542588D01*
X4992268Y3528771D01*
X4998466Y3515614D01*
X5006238Y3503320D01*
X5015534Y3492093D01*
X5026152Y3482136D01*
X5037886Y3473602D01*
X5050637Y3466592D01*
X5064201Y3461207D01*
X5078272Y3457600D01*
G37*
G36*
X1862023Y3520338D02*
G01*
X1875586Y3521252D01*
X1888947Y3523945D01*
X1901850Y3528466D01*
X1914042Y3534613D01*
X1925269Y3542334D01*
X1935378Y3551478D01*
X1944166Y3561892D01*
X1951532Y3573373D01*
X1957273Y3585718D01*
X1961286Y3598773D01*
X1963572Y3612184D01*
X1964029Y3625850D01*
X1962657Y3639413D01*
X1959508Y3652672D01*
X1954580Y3665423D01*
X1948027Y3677361D01*
X1939950Y3688334D01*
X1930501Y3698138D01*
X1919782Y3706571D01*
X1908048Y3713530D01*
X1895500Y3718864D01*
X1882343Y3722471D01*
X1868830Y3724300D01*
X1855165Y3724300D01*
X1841652Y3722471D01*
X1828495Y3718864D01*
X1815947Y3713530D01*
X1804212Y3706571D01*
X1793544Y3698138D01*
X1784045Y3688334D01*
X1775968Y3677361D01*
X1769414Y3665423D01*
X1764487Y3652672D01*
X1761337Y3639413D01*
X1759966Y3625850D01*
X1760423Y3612184D01*
X1762709Y3598773D01*
X1766722Y3585718D01*
X1772462Y3573373D01*
X1779828Y3561892D01*
X1788617Y3551478D01*
X1798726Y3542334D01*
X1809953Y3534613D01*
X1822145Y3528466D01*
X1835048Y3523945D01*
X1848408Y3521252D01*
G37*
G36*
X382473Y3530752D02*
G01*
X390042Y3534613D01*
X401269Y3542334D01*
X411378Y3551478D01*
X420166Y3561892D01*
X427532Y3573373D01*
X429666Y3577996D01*
X382473Y3577996D01*
G37*
G36*
X293573Y3530752D02*
G01*
X293573Y3577996D01*
X246329Y3577996D01*
X248462Y3573373D01*
X255828Y3561892D01*
X264617Y3551478D01*
X274726Y3542334D01*
X285953Y3534613D01*
G37*
G36*
X246227Y3666896D02*
G01*
X293573Y3666896D01*
X293573Y3714191D01*
X291947Y3713530D01*
X280212Y3706571D01*
X269544Y3698138D01*
X260045Y3688334D01*
X251967Y3677361D01*
G37*
G36*
X338023Y1996338D02*
G01*
X351586Y1997252D01*
X364947Y1999945D01*
X377850Y2004466D01*
X390042Y2010613D01*
X401269Y2018334D01*
X411378Y2027478D01*
X420166Y2037892D01*
X427532Y2049373D01*
X433273Y2061718D01*
X437286Y2074773D01*
X439572Y2088184D01*
X440029Y2101850D01*
X438658Y2115413D01*
X435508Y2128672D01*
X430580Y2141423D01*
X424027Y2153361D01*
X415950Y2164334D01*
X406501Y2174138D01*
X395782Y2182571D01*
X384048Y2189530D01*
X371500Y2194864D01*
X358343Y2198471D01*
X344830Y2200300D01*
X331165Y2200300D01*
X317652Y2198471D01*
X304495Y2194864D01*
X291947Y2189530D01*
X280212Y2182571D01*
X269544Y2174138D01*
X260045Y2164334D01*
X251967Y2153361D01*
X245414Y2141423D01*
X240487Y2128672D01*
X237337Y2115413D01*
X235966Y2101850D01*
X236423Y2088184D01*
X238709Y2074773D01*
X242722Y2061718D01*
X248462Y2049373D01*
X255828Y2037892D01*
X264617Y2027478D01*
X274726Y2018334D01*
X285953Y2010613D01*
X298145Y2004466D01*
X311048Y1999945D01*
X324408Y1997252D01*
G37*

%LPD*%
D11*
X5619107Y3871424D02*
G01*
X5799996Y3690536D01*
X5799996Y2671429D01*
D10*
X3900004Y2571429D02*
G01*
X3700005Y2771424D01*
X3700005Y3321430D01*
X4199991Y1399997D02*
G01*
X4199991Y1511579D01*
X4199991Y1399997D02*
G01*
X4199991Y1511579D01*
X4200004Y1400002D02*
G01*
X4199991Y1400014D01*
X4199991Y2199995D01*
D11*
X2199993Y3096414D02*
G01*
X2200003Y2771424D01*
X2810502Y2471422D02*
G01*
X2500005Y2471422D01*
X2200003Y2771424D01*
X3499993Y2471422D02*
G01*
X2810502Y2471422D01*
D20*
G01*
X6099987Y790422D03*
D21*
G01*
X6100013Y1044422D03*
G01*
X6100013Y1298422D03*
G01*
X6100013Y1552422D03*
D20*
G01*
X6099987Y2290419D03*
D21*
G01*
X6100013Y2544419D03*
G01*
X6100013Y2798419D03*
G01*
X6100013Y3052419D03*
D22*
G01*
X5099989Y371424D03*
G01*
X4799990Y371424D03*
G01*
X4499990Y371424D03*
G01*
X5099989Y3571417D03*
G01*
X4799990Y3571417D03*
G01*
X4499990Y3571417D03*
D23*
G01*
X1861997Y3622420D03*
G01*
X1861997Y3368420D03*
G01*
X1861997Y3114420D03*
G01*
X1861997Y2860420D03*
G01*
X1861997Y2606420D03*
G01*
X1861997Y2352420D03*
G01*
X1861997Y2098420D03*
G01*
X1861997Y1844420D03*
G01*
X1861997Y1590420D03*
G01*
X1861997Y1336420D03*
G01*
X1861997Y1082420D03*
G01*
X1861997Y828420D03*
G01*
X1861997Y574420D03*
G01*
X1861997Y320420D03*
G01*
X1607997Y3368420D03*
G01*
X1607997Y2860420D03*
G01*
X1607997Y2606420D03*
G01*
X1607997Y2352420D03*
G01*
X1607997Y320420D03*
G01*
X1353997Y320420D03*
G01*
X1099997Y320420D03*
G01*
X845997Y320420D03*
G01*
X591997Y320420D03*
G01*
X337997Y333120D03*
G01*
X337997Y574420D03*
G01*
X337997Y828420D03*
G01*
X337997Y1082420D03*
G01*
X337997Y1336420D03*
G01*
X337997Y1590420D03*
G01*
X337997Y1844420D03*
G01*
X337997Y2098420D03*
G01*
X337997Y2352420D03*
G01*
X337997Y2606420D03*
G01*
X337997Y2860420D03*
G01*
X337997Y3114420D03*
G01*
X337997Y3368420D03*
G01*
X337997Y3622420D03*
D13*
G01*
X5800013Y2671419D03*
G01*
X5619115Y3871417D03*
G01*
X2199995Y3096437D03*
G01*
X3499993Y2471420D03*
G01*
X3899992Y2571419D03*
G01*
X3699992Y3321430D03*
G01*
X4199991Y1399997D03*
G01*
X4199991Y2199995D03*
G01*
X599998Y999997D03*
G01*
X599998Y1499996D03*
G01*
X599998Y1999995D03*
G01*
X599998Y2499995D03*
G01*
X599998Y2999994D03*
G01*
X599998Y499998D03*
G01*
X1099997Y499998D03*
G01*
X1099997Y999997D03*
G01*
X1099997Y1499996D03*
G01*
X1099997Y1999995D03*
G01*
X1099997Y2499995D03*
G01*
X999997Y3399993D03*
G01*
X1499996Y499998D03*
G01*
X1499996Y999997D03*
G01*
X1499996Y1499996D03*
G01*
X1499996Y1999995D03*
G01*
X1399997Y2499995D03*
G01*
X1399997Y2899994D03*
G01*
X2499995Y499998D03*
G01*
X2499995Y999997D03*
G01*
X2499995Y1999995D03*
G01*
X2499995Y2699994D03*
G01*
X2499995Y3299993D03*
G01*
X5499988Y1424990D03*
G01*
X4999990Y1424990D03*
G01*
X4499990Y1424990D03*
G01*
X3699992Y1399997D03*
G01*
X3699992Y999997D03*
G01*
X7000011Y499998D03*
G01*
X6500012Y499998D03*
G01*
X6000013Y499998D03*
G01*
X6000013Y3499993D03*
G01*
X6500012Y3499993D03*
G01*
X7000011Y3499993D03*
G01*
X7000011Y1999995D03*
G01*
X6500012Y1999995D03*
G01*
X6000013Y1999995D03*
G01*
X5599988Y1999995D03*
G01*
X4999990Y1999995D03*
G01*
X4499990Y1999995D03*
G01*
X3999991Y1999995D03*
G01*
X3499993Y1999995D03*
G01*
X2999993Y1999995D03*
G01*
X5499988Y2899994D03*
G01*
X4999990Y2899994D03*
G01*
X3774998Y2475001D03*
G01*
X5499988Y2499995D03*
G01*
X4999990Y2499995D03*
G01*
X4499990Y999997D03*
G01*
X4999990Y999997D03*
G01*
X5499988Y999997D03*
G01*
X2999993Y999997D03*
G01*
X6500012Y999997D03*
G01*
X6500012Y2999994D03*
G01*
X3350006Y2575001D03*
G01*
X2199995Y3499993D03*
G01*
X6949998Y1150010D03*
G01*
X6925005Y2399995D03*
G01*
X3899992Y2950006D03*
G01*
X3599992Y2799994D03*
D24*
X5379999Y421424D02*
G01*
X5379999Y321424D01*
X4219981Y421424D02*
G01*
X4219981Y321424D01*
X5379999Y3621417D02*
G01*
X5379999Y3521417D01*
X4219981Y3621417D02*
G01*
X4219981Y3521417D01*
M02*
