M48
METRIC,LZ,000.000
;FILE_FORMAT=3:3
;TYPE=PLATED
;Layer: Drill PTH
;EasyEDA v6.4.25, 2022-02-01T03:32:05+11:00
;a67cddfb3fce44daa9051d46cbbcc19f,10
;Gerber Generator version 0.2
;Holesize 1 = 0.305 mm
T01C0.305
;Holesize 2 = 0.800 mm
T02C0.800
;Holesize 3 = 0.889 mm
T03C0.889
;Holesize 4 = 0.915 mm
T04C0.915
;Holesize 5 = 1.301 mm
T05C1.301
%
G05
G90
T01
X058000Y026714
X056191Y038714
X022000Y030964
X035000Y024714
X039000Y025714
X037000Y033214
X042000Y014000
X042000Y022000
X006000Y010000
X006000Y015000
X006000Y020000
X006000Y025000
X006000Y030000
X006000Y005000
X011000Y005000
X011000Y010000
X011000Y015000
X011000Y020000
X011000Y025000
X010000Y034000
X015000Y005000
X015000Y010000
X015000Y015000
X015000Y020000
X014000Y025000
X014000Y029000
X025000Y005000
X025000Y010000
X025000Y020000
X025000Y027000
X025000Y033000
X055000Y014250
X050000Y014250
X045000Y014250
X037000Y014000
X037000Y010000
X070000Y005000
X065000Y005000
X060000Y005000
X060000Y035000
X065000Y035000
X070000Y035000
X070000Y020000
X065000Y020000
X060000Y020000
X056000Y020000
X050000Y020000
X045000Y020000
X040000Y020000
X035000Y020000
X030000Y020000
X055000Y029000
X050000Y029000
X037750Y024750
X055000Y025000
X050000Y025000
X045000Y010000
X050000Y010000
X055000Y010000
X030000Y010000
X065000Y010000
X065000Y030000
X033500Y025750
X022000Y035000
X069500Y011500
X069250Y024000
X039000Y029500
X036000Y028000
T02
X053800Y004214G85X053800Y003214
X042200Y004214G85X042200Y003214
X053800Y036214G85X053800Y035214
X042200Y036214G85X042200Y035214
T03
X061000Y007904
X061000Y010444
X061000Y012984
X061000Y015524
X061000Y022904
X061000Y025444
X061000Y027984
X061000Y030524
T04
X018620Y036224
X018620Y033684
X018620Y031144
X018620Y028604
X018620Y026064
X018620Y023524
X018620Y020984
X018620Y018444
X018620Y015904
X018620Y013364
X018620Y010824
X018620Y008284
X018620Y005744
X018620Y003204
X016080Y033684
X016080Y028604
X016080Y026064
X016080Y023524
X016080Y003204
X013540Y003204
X011000Y003204
X008460Y003204
X005920Y003204
X003380Y003331
X003380Y005744
X003380Y008284
X003380Y010824
X003380Y013364
X003380Y015904
X003380Y018444
X003380Y020984
X003380Y023524
X003380Y026064
X003380Y028604
X003380Y031144
X003380Y033684
X003380Y036224
T05
X051000Y003714
X048000Y003714
X045000Y003714
X051000Y035714
X048000Y035714
X045000Y035714
M30
