G04 Layer: BottomSilkLayer*
G04 EasyEDA v6.4.25, 2022-02-05T09:57:48+11:00*
G04 a67cddfb3fce44daa9051d46cbbcc19f,10*
G04 Gerber Generator version 0.2*
G04 Scale: 100 percent, Rotated: No, Reflected: No *
G04 Dimensions in millimeters *
G04 leading zeros omitted , absolute positions ,4 integer and 5 decimal *
%FSLAX45Y45*%
%MOMM*%

%ADD26C,0.2032*%

%LPD*%
D26*
X5235343Y1805045D02*
G01*
X5235343Y1611083D01*
X5299999Y1805045D02*
G01*
X5170690Y1805045D01*
X5109730Y1684975D02*
G01*
X4998895Y1684975D01*
X4998895Y1703445D01*
X5008130Y1721919D01*
X5017366Y1731154D01*
X5035839Y1740392D01*
X5063548Y1740392D01*
X5082021Y1731154D01*
X5100495Y1712683D01*
X5109730Y1684975D01*
X5109730Y1666501D01*
X5100495Y1638792D01*
X5082021Y1620319D01*
X5063548Y1611083D01*
X5035839Y1611083D01*
X5017366Y1620319D01*
X4998895Y1638792D01*
X4937935Y1684975D02*
G01*
X4827097Y1684975D01*
X4827097Y1703445D01*
X4836335Y1721919D01*
X4845570Y1731154D01*
X4864044Y1740392D01*
X4891752Y1740392D01*
X4910223Y1731154D01*
X4928697Y1712683D01*
X4937935Y1684975D01*
X4937935Y1666501D01*
X4928697Y1638792D01*
X4910223Y1620319D01*
X4891752Y1611083D01*
X4864044Y1611083D01*
X4845570Y1620319D01*
X4827097Y1638792D01*
X4766137Y1740392D02*
G01*
X4766137Y1611083D01*
X4766137Y1703445D02*
G01*
X4738428Y1731154D01*
X4719954Y1740392D01*
X4692246Y1740392D01*
X4673775Y1731154D01*
X4664537Y1703445D01*
X4664537Y1611083D01*
X4501977Y1712683D02*
G01*
X4511215Y1731154D01*
X4538924Y1740392D01*
X4566632Y1740392D01*
X4594341Y1731154D01*
X4603577Y1712683D01*
X4594341Y1694210D01*
X4575868Y1684975D01*
X4529686Y1675737D01*
X4511215Y1666501D01*
X4501977Y1648028D01*
X4501977Y1638792D01*
X4511215Y1620319D01*
X4538924Y1611083D01*
X4566632Y1611083D01*
X4594341Y1620319D01*
X4603577Y1638792D01*
X4431781Y1740392D02*
G01*
X4376364Y1611083D01*
X4320943Y1740392D02*
G01*
X4376364Y1611083D01*
X4394834Y1574137D01*
X4413308Y1555663D01*
X4431781Y1546428D01*
X4441017Y1546428D01*
X4117743Y1805045D02*
G01*
X4117743Y1611083D01*
X4047548Y1758863D02*
G01*
X4047548Y1768101D01*
X4038312Y1786575D01*
X4029075Y1795810D01*
X4010604Y1805045D01*
X3973657Y1805045D01*
X3955183Y1795810D01*
X3945948Y1786575D01*
X3936712Y1768101D01*
X3936712Y1749628D01*
X3945948Y1731154D01*
X3964421Y1703445D01*
X4056783Y1611083D01*
X3927475Y1611083D01*
X3727970Y1758863D02*
G01*
X3737206Y1777337D01*
X3755679Y1795810D01*
X3774152Y1805045D01*
X3811097Y1805045D01*
X3829570Y1795810D01*
X3848044Y1777337D01*
X3857279Y1758863D01*
X3866515Y1731154D01*
X3866515Y1684975D01*
X3857279Y1657263D01*
X3848044Y1638792D01*
X3829570Y1620319D01*
X3811097Y1611083D01*
X3774152Y1611083D01*
X3755679Y1620319D01*
X3737206Y1638792D01*
X3727970Y1657263D01*
X3450879Y1805045D02*
G01*
X3469352Y1805045D01*
X3487823Y1795810D01*
X3497061Y1768101D01*
X3497061Y1611083D01*
X3524770Y1740392D02*
G01*
X3460115Y1740392D01*
X3389919Y1740392D02*
G01*
X3389919Y1611083D01*
X3389919Y1684975D02*
G01*
X3380684Y1712683D01*
X3362210Y1731154D01*
X3343737Y1740392D01*
X3316028Y1740392D01*
X3255068Y1805045D02*
G01*
X3245832Y1795810D01*
X3236595Y1805045D01*
X3245832Y1814283D01*
X3255068Y1805045D01*
X3245832Y1740392D02*
G01*
X3245832Y1611083D01*
X3175634Y1684975D02*
G01*
X3064799Y1684975D01*
X3064799Y1703445D01*
X3074034Y1721919D01*
X3083272Y1731154D01*
X3101743Y1740392D01*
X3129455Y1740392D01*
X3147926Y1731154D01*
X3166399Y1712683D01*
X3175634Y1684975D01*
X3175634Y1666501D01*
X3166399Y1638792D01*
X3147926Y1620319D01*
X3129455Y1611083D01*
X3101743Y1611083D01*
X3083272Y1620319D01*
X3064799Y1638792D01*
X3003839Y1740392D02*
G01*
X3003839Y1611083D01*
X3003839Y1703445D02*
G01*
X2976130Y1731154D01*
X2957657Y1740392D01*
X2929948Y1740392D01*
X2911475Y1731154D01*
X2902239Y1703445D01*
X2902239Y1611083D01*
X2730444Y1805045D02*
G01*
X2730444Y1611083D01*
X2730444Y1712683D02*
G01*
X2748915Y1731154D01*
X2767388Y1740392D01*
X2795097Y1740392D01*
X2813570Y1731154D01*
X2832044Y1712683D01*
X2841279Y1684975D01*
X2841279Y1666501D01*
X2832044Y1638792D01*
X2813570Y1620319D01*
X2795097Y1611083D01*
X2767388Y1611083D01*
X2748915Y1620319D01*
X2730444Y1638792D01*
X4799990Y1305044D02*
G01*
X4726099Y1111082D01*
X4652208Y1305044D02*
G01*
X4726099Y1111082D01*
X4591248Y1184973D02*
G01*
X4480412Y1184973D01*
X4480412Y1203444D01*
X4489648Y1221917D01*
X4498886Y1231153D01*
X4517356Y1240391D01*
X4545065Y1240391D01*
X4563539Y1231153D01*
X4582012Y1212682D01*
X4591248Y1184973D01*
X4591248Y1166500D01*
X4582012Y1138791D01*
X4563539Y1120317D01*
X4545065Y1111082D01*
X4517356Y1111082D01*
X4498886Y1120317D01*
X4480412Y1138791D01*
X4419452Y1240391D02*
G01*
X4419452Y1111082D01*
X4419452Y1184973D02*
G01*
X4410214Y1212682D01*
X4391743Y1231153D01*
X4373270Y1240391D01*
X4345561Y1240391D01*
X4183001Y1212682D02*
G01*
X4192236Y1231153D01*
X4219945Y1240391D01*
X4247654Y1240391D01*
X4275366Y1231153D01*
X4284601Y1212682D01*
X4275366Y1194208D01*
X4256892Y1184973D01*
X4210710Y1175735D01*
X4192236Y1166500D01*
X4183001Y1148026D01*
X4183001Y1138791D01*
X4192236Y1120317D01*
X4219945Y1111082D01*
X4247654Y1111082D01*
X4275366Y1120317D01*
X4284601Y1138791D01*
X4122041Y1305044D02*
G01*
X4112806Y1295808D01*
X4103568Y1305044D01*
X4112806Y1314282D01*
X4122041Y1305044D01*
X4112806Y1240391D02*
G01*
X4112806Y1111082D01*
X3996425Y1240391D02*
G01*
X4014899Y1231153D01*
X4033372Y1212682D01*
X4042608Y1184973D01*
X4042608Y1166500D01*
X4033372Y1138791D01*
X4014899Y1120317D01*
X3996425Y1111082D01*
X3968716Y1111082D01*
X3950246Y1120317D01*
X3931772Y1138791D01*
X3922534Y1166500D01*
X3922534Y1184973D01*
X3931772Y1212682D01*
X3950246Y1231153D01*
X3968716Y1240391D01*
X3996425Y1240391D01*
X3861574Y1240391D02*
G01*
X3861574Y1111082D01*
X3861574Y1203444D02*
G01*
X3833865Y1231153D01*
X3815394Y1240391D01*
X3787686Y1240391D01*
X3769212Y1231153D01*
X3759974Y1203444D01*
X3759974Y1111082D01*
X3556774Y1268100D02*
G01*
X3538303Y1277335D01*
X3510594Y1305044D01*
X3510594Y1111082D01*
X3440396Y1157262D02*
G01*
X3449634Y1148026D01*
X3440396Y1138791D01*
X3431161Y1148026D01*
X3440396Y1157262D01*
X3370201Y1268100D02*
G01*
X3351728Y1277335D01*
X3324019Y1305044D01*
X3324019Y1111082D01*
M02*
